<?xml version="1.0" standalone="no"?>
<!DOCTYPE svg PUBLIC "-//W3C//DTD SVG 20010904//EN"
 "http://www.w3.org/TR/2001/REC-SVG-20010904/DTD/svg10.dtd">
<svg version="1.0" xmlns="http://www.w3.org/2000/svg"
 width="700.000000pt" height="700.000000pt" viewBox="0 0 700.000000 700.000000"
 preserveAspectRatio="xMidYMid meet">
<metadata>
Created by potrace 1.11, written by Peter Selinger 2001-2013
</metadata>
<g transform="translate(0.000000,700.000000) scale(0.100000,-0.100000)"
fill="#000000" stroke="none">
<path d="M3450 6973 c-300 -56 -510 -263 -576 -565 l-17 -78 -319 0 -318 0 -1
-367 c0 -347 -9 -597 -22 -609 -13 -14 -78 37 -205 161 l-138 133 -79 -75
c-44 -42 -144 -139 -222 -216 l-142 -141 -133 61 c-192 88 -262 108 -378 107
-71 0 -110 -6 -155 -22 -141 -51 -315 -212 -386 -357 -88 -182 -75 -328 54
-598 l61 -128 -220 -220 -219 -219 376 -378 c731 -734 1139 -1154 1139 -1172
0 -15 -122 -145 -469 -500 l-347 -355 27 -25 c15 -14 96 -90 181 -169 299
-282 536 -428 804 -495 154 -39 272 -49 493 -43 216 6 325 23 493 78 53 18
103 29 111 26 10 -4 16 -33 20 -109 11 -178 49 -291 139 -414 121 -163 398
-288 563 -254 76 16 211 73 284 120 183 118 290 330 291 577 0 62 7 83 27 83
8 0 55 -13 103 -30 183 -61 289 -75 560 -75 272 1 357 13 537 76 238 84 423
210 736 503 l163 152 -304 310 c-312 317 -512 529 -512 543 0 16 203 226 853
884 l660 669 -218 218 -219 219 61 128 c106 221 107 225 107 343 1 90 -3 118
-28 194 -64 194 -200 334 -402 412 -58 23 -85 27 -169 28 -122 1 -164 -11
-361 -101 l-145 -67 -142 141 c-78 77 -178 174 -222 216 l-79 75 -138 -133
c-127 -124 -192 -175 -205 -161 -13 13 -22 257 -22 604 l-1 372 -314 0 c-291
0 -315 1 -320 18 -75 261 -112 338 -211 438 -54 55 -89 80 -155 112 -119 57
-259 89 -330 75z m161 -448 c70 -66 118 -205 248 -720 l68 -270 43 85 c53 102
148 203 229 243 42 21 70 27 118 27 l63 0 2 -787 3 -788 376 374 377 373 42
-53 c64 -80 83 -130 88 -229 3 -74 0 -97 -27 -180 -16 -52 -28 -96 -26 -98 2
-3 131 73 287 169 374 228 510 299 579 299 28 0 66 -7 85 -16 48 -23 101 -86
114 -135 23 -85 -10 -155 -274 -589 -186 -304 -201 -330 -186 -330 5 0 54 14
107 31 82 27 108 31 168 27 68 -5 93 -13 249 -83 l60 -26 -780 -780 -779 -779
423 -423 424 -424 -49 -40 c-107 -88 -310 -202 -448 -250 l-80 -28 -285 0
c-318 0 -327 1 -487 75 -181 84 -312 178 -476 342 -64 65 -124 118 -131 118
-20 0 -26 -117 -34 -640 -7 -404 -9 -438 -27 -475 -54 -108 -211 -138 -306
-58 -64 54 -62 43 -70 546 -7 479 -13 585 -33 612 -10 14 -25 3 -116 -86 -223
-218 -465 -378 -634 -418 -81 -20 -369 -32 -527 -23 -144 9 -147 9 -250 56
-125 55 -286 151 -370 219 l-61 50 423 423 424 424 -765 765 c-764 764 -764
764 -745 785 40 44 133 97 194 110 74 16 147 8 254 -25 43 -14 82 -25 88 -25
13 0 1 22 -189 342 -198 332 -216 364 -249 442 -53 125 -16 219 107 275 93 42
102 38 609 -266 178 -106 325 -192 327 -190 2 2 -10 50 -26 106 -35 123 -37
169 -9 271 27 100 51 140 84 140 62 0 98 -30 470 -398 l310 -307 3 803 c1 441
4 802 6 802 2 0 35 -10 72 -21 167 -52 253 -122 330 -272 l47 -92 72 285 c126
497 169 626 233 693 38 41 58 47 134 44 59 -2 71 -6 99 -32z"/>
</g>
</svg>
