<?xml version="1.0" encoding="UTF-8" standalone="no"?>
<!DOCTYPE svg PUBLIC "-//W3C//DTD SVG 1.1//EN" "http://www.w3.org/Graphics/SVG/1.1/DTD/svg11.dtd">
<svg width="100%" height="100%" viewBox="0 0 100 100" version="1.1" xmlns="http://www.w3.org/2000/svg" xmlns:xlink="http://www.w3.org/1999/xlink" xml:space="preserve" xmlns:serif="http://www.serif.com/" style="fill-rule:evenodd;clip-rule:evenodd;stroke-linejoin:round;stroke-miterlimit:2;">
    <g>
        <path d="M34.77,54C30.549,53.995 27.079,50.521 27.079,46.3C27.079,44.261 27.889,42.303 29.33,40.86L44.61,25.55C45.198,25.005 45.532,24.239 45.532,23.438C45.532,21.858 44.232,20.558 42.652,20.558C41.851,20.558 41.085,20.892 40.54,21.48L25.1,36.92C23.656,38.359 21.698,39.167 19.66,39.167C15.432,39.167 11.953,35.688 11.953,31.46C11.953,29.412 12.769,27.446 14.22,26L29.66,10.6C33.084,7.176 37.733,5.25 42.575,5.25C52.595,5.25 60.84,13.495 60.84,23.515C60.84,28.357 58.914,33.006 55.49,36.43L40.21,51.71C38.775,53.167 36.815,53.992 34.77,54Z" style="fill:white;fill-rule:nonzero;"/>
        <path d="M74.51,55.45L52.09,77.88C50.971,78.99 49.139,78.99 48.02,77.88C47.476,77.343 47.17,76.609 47.17,75.845C47.17,75.081 47.476,74.347 48.02,73.81L53.62,68.2L70.44,51.38C70.981,50.846 71.711,50.546 72.471,50.546C74.035,50.546 75.329,51.816 75.36,53.38C75.353,54.133 75.047,54.853 74.51,55.38L74.51,55.45ZM85.39,40.45C81.967,37.025 77.318,35.099 72.475,35.099C67.632,35.099 62.983,37.025 59.56,40.45L42.74,57.32L37.14,62.93L18.45,81.62C17.008,83.062 16.197,85.02 16.197,87.06C16.197,91.28 19.67,94.753 23.89,94.753C25.93,94.753 27.888,93.942 29.33,92.5L35.26,86.56C35.828,87.341 36.457,88.077 37.14,88.76C40.563,92.185 45.212,94.111 50.055,94.111C54.898,94.111 59.547,92.185 62.97,88.76L85.39,66.33C88.815,62.907 90.741,58.258 90.741,53.415C90.741,48.572 88.815,43.923 85.39,40.5L85.39,40.45Z" style="fill:white;fill-rule:nonzero;"/>
        <path d="M74.57,40.44C72.588,38.458 69.898,37.343 67.095,37.343C64.292,37.343 61.602,38.458 59.62,40.44L44.86,55.2L44.6,55.45C42.052,58.25 38.437,59.849 34.651,59.849C27.273,59.849 21.201,53.777 21.201,46.399C21.201,42.613 22.8,38.998 25.6,36.45L25.85,36.19L40.6,21.43C41.121,20.986 41.783,20.742 42.468,20.742C44.048,20.742 45.348,22.042 45.348,23.622C45.348,24.307 45.104,24.969 44.66,25.49C46.637,23.506 47.749,20.816 47.749,18.015C47.749,12.206 42.969,7.426 37.16,7.426C34.347,7.426 31.646,8.547 29.66,10.54L15,25.3C14.909,25.378 14.822,25.462 14.74,25.55C3.692,36.622 3.558,54.765 14.44,66C14.522,66.104 14.612,66.201 14.71,66.29C20.115,71.697 27.455,74.738 35.1,74.738C42.745,74.738 50.085,71.697 55.49,66.29C55.578,66.208 55.662,66.121 55.74,66.03L70.5,51.33C71.021,50.886 71.683,50.642 72.368,50.642C73.948,50.642 75.248,51.942 75.248,53.522C75.248,54.207 75.004,54.869 74.56,55.39C76.557,53.406 77.682,50.705 77.682,47.89C77.682,45.075 76.557,42.374 74.56,40.39L74.57,40.44Z" style="fill:white;fill-rule:nonzero;"/>
    </g>
</svg>
