<?xml version="1.0" encoding="UTF-8" standalone="no"?>
<!DOCTYPE svg PUBLIC "-//W3C//DTD SVG 1.1//EN" "http://www.w3.org/Graphics/SVG/1.1/DTD/svg11.dtd">
<svg width="100%" height="100%" viewBox="0 0 240 240" version="1.1" xmlns="http://www.w3.org/2000/svg" xmlns:xlink="http://www.w3.org/1999/xlink" xml:space="preserve" xmlns:serif="http://www.serif.com/" style="fill-rule:evenodd;clip-rule:evenodd;stroke-linejoin:round;stroke-miterlimit:2;">
    <g>
        <path d="M16,240L16,44.9L13.4,41.5C7.3,33.5 6.8,22.5 12,13.4C17.1,4.4 29.3,-1.3 38.3,1.1C50.4,4.3 57.5,12 58.9,23.4C59.4,27.8 59.8,28.5 62.5,29.3C67.3,30.7 95.6,30.6 104,29.1C108.1,28.4 117.4,25.8 124.5,23.5C142.9,17.4 149.3,16.5 172.5,16.5C195.9,16.5 205.9,18 221.5,23.9L231.5,27.7L231.8,88.3L232,148.9L221.3,144.4C207.7,138.7 198.8,136.4 185.2,134.9C166.6,132.9 150.1,135 129.5,141.8C122.9,144 114.1,146.4 110,147.1C101.6,148.6 70.4,148.9 59.3,147.7L52,146.9L52,240L16,240ZM36.9,125.2C38.3,125 42.5,125.8 46.4,126.9C70.7,134.1 97.9,133.4 123.1,125C142.9,118.4 148.7,117.5 173,117.6C193.7,117.6 197.6,118 211.2,121.5L213.8,122.2L214.2,98.3C214.4,85.2 214.3,66.7 214.2,57.3L213.8,40L207.2,38C183.8,31 156.8,31.7 131.9,40C113,46.3 105.4,47.5 82,47.5C60.9,47.5 53.7,46.7 41.5,42.9C35.3,41 35,40.8 35,37.8C35,35.7 36.1,33.5 38.5,30.9C41.9,27.1 42,26.9 40.5,24C39.7,22.4 37.6,20.3 36,19.5C33.2,18 33,18.1 29.5,21.1C25.1,25 25.1,27.4 29.5,31.6L33,34.9L33.2,128.7C33.4,205.5 33.6,213.7 34,174L34.5,125.5L36.9,125.2Z" style="fill-rule:nonzero;"/>
    </g>
    <g>
        <path d="M59.5,106.8C51,105.9 37.3,102.5 35.3,100.8C34.4,100.1 34,96.6 34,89.9L34,80L37.5,80C39.4,80 44.8,81.1 49.4,82.5C72.3,89.1 101.7,87.8 125.5,79.1C140.7,73.6 148.3,72.5 172.5,72.5C194.3,72.5 198.4,72.9 212.1,76.7L217.7,78.2L217.2,88.8C217,94.7 216.6,99.7 216.4,99.9C216.1,100.2 214,99.9 211.7,99.2C195.6,94.5 189.4,93.7 173,93.6C155.1,93.6 145.8,95 132.5,99.7C121.5,103.7 113.2,105.7 102.8,106.9C91.7,108.2 71.1,108.1 59.5,106.8Z" style="fill:rgb(179,179,179);fill-rule:nonzero;"/>
    </g>
    <g>
        <path d="M59.3,62C51.4,60.9 40.2,58.1 36.9,56.4C34.4,55.1 34.3,54.9 34.3,45.1L34.3,35L37.3,35C39.7,35 40,35.2 39.1,36.4C38.1,37.6 38.9,38.2 44.3,39.9C56.1,43.5 63.2,44.4 81.5,44.4C102.2,44.5 110.5,43.1 128.9,37C142.6,32.4 157.7,30 172.5,30C185.3,30 202.1,32.3 210.9,35.3L217.2,37.5L217.2,46C217.2,51.3 216.8,54.6 216.1,54.8C215.5,55 210.6,54 205.2,52.6C179.5,45.9 156.1,46.8 130.5,55.6C125,57.5 117.1,59.7 113,60.5C104.2,62.3 68.6,63.3 59.3,62Z" style="fill:rgb(89,89,89);fill-rule:nonzero;"/>
    </g>
    <g>
        <path d="M56.8,76.5C47.1,74.9 37.1,72.3 35.3,70.8C34.4,70.1 34,66.9 34,61.5C34,52.2 34.5,50 36.7,50C37.5,50 37.9,50.4 37.5,51C36.1,53.2 49.4,57.3 64.7,59.2C75.5,60.5 98.5,59.7 109.6,57.5C114.1,56.7 122.2,54.4 127.6,52.6C144.3,46.8 152.3,45.5 172.5,45.5C191,45.5 200.6,46.8 212.3,50.8L217.2,52.5L217.3,61.3C217.5,71.4 217.7,71.3 207.3,68C199.1,65.5 182.1,63 172.5,63C160.7,63 144.7,65.7 133,69.7C115.3,75.7 106.8,77.1 85,77.5C71.2,77.8 63,77.5 56.8,76.5Z" style="fill:rgb(128,128,128);fill-rule:nonzero;"/>
    </g>
    <g>
        <path d="M59.3,133.4C54.2,132.6 47.3,131.1 43.9,130C37.9,128.2 37.8,128.2 37.3,130C37,131 36.2,131.6 35.6,131.4C34.7,131.1 34.3,127.8 34.3,120.4L34.3,109.8L38.9,110.3C41.4,110.6 46.8,111.7 50.8,112.8C73,119.2 99.5,117.8 126,109C132.3,106.9 142.3,104.4 148.1,103.6C167.7,100.7 196.1,102 211.8,106.5C216,107.8 217,108.5 217.1,110.3C217.2,113.6 216.9,126.5 216.7,126.7C216.6,126.7 212.5,125.7 207.6,124.4C195.1,121.1 179.8,119.6 165.3,120.3C150.7,121.1 141.3,122.9 126,128C106,134.7 80.9,136.7 59.3,133.4Z" style="fill:rgb(230,230,230);fill-rule:nonzero;"/>
    </g>
    <g>
        <path d="M59.5,118.4C54.6,117.6 47.7,116.1 44.3,115C36.6,112.5 36.7,112.5 37.5,115.1C38.1,117 38,117.1 36.1,116C34.1,115 34,114.4 34.6,105.2C35,99.9 35.4,95.3 35.6,95.1C35.8,94.9 36.7,95.6 37.7,96.8C41.2,100.9 63.4,105 82,105C98.8,105 113.9,102.4 129.5,96.7C143.5,91.7 151.9,90.5 173,90.6C192.7,90.7 200,91.6 212.3,95.6L217,97.2L217,104.7C217,111 216.8,112.1 215.5,111.6C205.7,107.9 187.2,105 172.6,105C157.7,105 142.7,107.4 129,112C122.6,114.1 113.6,116.6 109,117.5C97.5,119.8 71.4,120.3 59.5,118.4Z" style="fill:rgb(204,204,204);fill-rule:nonzero;"/>
    </g>
    <g>
        <path d="M63,89C58.9,88.4 51.5,86.9 46.7,85.5C36.3,82.5 37,82.6 37,84.6C37,85.5 36.4,86 35.8,85.8C34.9,85.5 34.4,82.2 34.2,75.2C33.9,64.5 34.6,63.1 37.8,67C39.7,69.1 51,72.3 62.5,73.9C72.6,75.3 98.9,74.5 109,72.5C113.6,71.6 122.6,69.1 129,67C142.6,62.4 157.7,60 172.5,60C185.3,60 202,62.3 211,65.3L217.5,67.5L217.5,74.5C217.5,82.5 218.3,82.2 206.6,79.1C182.4,72.7 149.7,74.1 127.6,82.4C115.9,86.9 103,89 86,89.5C77.5,89.7 67.1,89.5 63,89Z" style="fill:rgb(153,153,153);fill-rule:nonzero;"/>
    </g>
    <g>
        <path d="M30,225L30,37.9L26.5,34.6C23.4,31.6 23,30.7 23,26.2C23,21.7 23.4,20.9 26.5,18.1C34.1,11.5 45,16.7 45,26.9C45,29.1 43.9,31.3 41.3,34.1L37.5,38.3L37.4,83.4C37.4,108.2 37.2,150.2 37.2,176.8L37,225L30,225Z" style="fill:rgb(206,205,197);fill-rule:nonzero;"/>
    </g>
</svg>
