<?xml version="1.0" encoding="UTF-8" standalone="no"?>
<!DOCTYPE svg PUBLIC "-//W3C//DTD SVG 1.1//EN" "http://www.w3.org/Graphics/SVG/1.1/DTD/svg11.dtd">
<svg width="100%" height="100%" viewBox="0 0 66 50" version="1.1" xmlns="http://www.w3.org/2000/svg" xmlns:xlink="http://www.w3.org/1999/xlink" xml:space="preserve" xmlns:serif="http://www.serif.com/" style="fill-rule:evenodd;clip-rule:evenodd;stroke-linejoin:round;stroke-miterlimit:2;">
    <g id="A" transform="matrix(0.919726,0,0,0.919726,3.60393,3.07513)">
        <g>
            <path d="M33.45,6.032C31.257,6.032 28.358,7.432 28.358,10.967L28.358,40.577L31.883,40.577L31.883,10.967C31.883,10.34 32.275,9.567 33.283,9.567L60.387,9.567L60.387,13.875L41.44,13.875C37.053,13.875 36.348,16.617 36.348,18.967L36.348,45.042L28.278,45.042L28.278,48.802L39.95,48.802L39.95,19.349C39.95,18.252 40.185,17.391 41.673,17.391L64,17.391L64,6.032L33.45,6.032Z" style="fill:white;fill-rule:nonzero;"/>
            <path d="M33.45,10.106C32.823,10.106 32.432,10.576 32.432,11.281L32.432,41.048L27.967,41.048L27.967,13.238C27.967,10.261 26.322,8.146 22.954,8.146L3.603,8.146L3.681,3.681L30.785,3.681C32.117,3.681 32.508,4.699 32.508,5.248L32.508,5.796C32.508,5.796 33.056,5.718 33.37,5.718L36.033,5.718L36.033,5.17C36.033,3.29 35.093,1.723 33.448,0.783C32.351,0.156 31.646,0 31.098,0L0,0.079L0,11.594L22.717,11.594C23.814,11.594 24.44,12.377 24.44,13.317L24.44,44.572L35.955,44.572L35.955,10.106L33.45,10.106Z" style="fill:rgb(223,223,223);fill-rule:nonzero;"/>
        </g>
    </g>
</svg>
