<?xml version="1.0" encoding="utf-8"?>
<!DOCTYPE svg PUBLIC "-//W3C//DTD SVG 20010904//EN" "http://www.w3.org/TR/2001/REC-SVG-20010904/DTD/svg10.dtd">
<svg version="1.0" xmlns="http://www.w3.org/2000/svg" width="240px" height="240px" viewBox="0 0 240 240" preserveAspectRatio="xMidYMid meet">
 <g fill="#000000">
  <path d="M38 224.5 l0 -15.5 -3.5 0 -3.5 0 0 -41 0 -41 -7.5 0 -7.5 0 0 -7.5 0 -7.5 -8 0 -8 0 0 -40.5 0 -40.5 22 0 21.9 0 0.3 7.3 0.3 7.2 4.3 0.3 4.2 0.3 0 -11.5 0 -11.6 7.5 0 7.5 0 0 -11.5 0 -11.5 22 0 22 0 0 11.5 0 11.5 8 0 8 0 0 -11.5 0 -11.5 22 0 22 0 0 11.5 0 11.5 7.5 0 7.5 0 0 11.6 0 11.5 4.3 -0.3 4.2 -0.3 0.3 -7.2 0.3 -7.3 21.9 0 22 0 0 40.5 0 40.5 -8 0 -8 0 0 7.5 0 7.5 -7.5 0 -7.5 0 0 41 0 41 -3.5 0 -3.5 0 0 15.5 0 15.5 -82 0 -82 0 0 -15.5z m26 -7 l0 -4.5 -4 0 -4 0 0 4.5 0 4.5 4 0 4 0 0 -4.5z m30 -11 l0 -15.5 -4 0 -4 0 0 15.5 0 15.5 4 0 4 0 0 -15.5z m30 11 l0 -4.5 -4 0 -4 0 0 4.5 0 4.5 4 0 4 0 0 -4.5z m30 -11 l0 -15.5 -4 0 -4 0 0 15.5 0 15.5 4 0 4 0 0 -15.5z m30 11 l0 -4.5 -4 0 -4 0 0 4.5 0 4.5 4 0 4 0 0 -4.5z m-120 -33.5 l0 -8 -8 0 -8 0 0 8 0 8 8 0 8 0 0 -8z m60 -4 l0 -12 -4 0 -4 0 0 12 0 12 4 0 4 0 0 -12z m68 4 l0 -8 -8 0 -8 0 0 8 0 8 8 0 8 0 0 -8z m-105 -26 l0 -11 33 0 33 0 0 11 0 11 8 0 8 0 0 -11 0 -11 11.5 0 11.5 0 0.2 -18.7 0.3 -18.8 7.3 -0.3 7.2 -0.3 0 -3.9 0 -4 -5.9 0 c-9.7 0 -9.1 1.3 -9.1 -19.6 l0 -18.3 -11.2 -0.3 -11.3 -0.3 -0.3 -11.2 -0.3 -11.3 -7.4 0 -7.5 0 0 -11 0 -11 -4 0 -4 0 0 11 0 11 -26 0 -26 0 0 -11 0 -11 -4 0 -4 0 0 11 0 11 -7.5 0 -7.4 0 -0.3 11.3 -0.3 11.2 -11.2 0.3 -11.3 0.3 0 18.3 c0 20.9 0.6 19.6 -9.1 19.6 l-5.9 0 0 4 0 3.9 7.3 0.3 7.2 0.3 0.3 18.8 0.2 18.7 11.5 0 11.5 0 0 11 0 11 8 0 8 0 0 -11z m-60 -87 l0 -23 -4.5 0 -4.5 0 0 23 0 23 4.5 0 4.5 0 0 -23z m195 0 l0 -23 -4.5 0 -4.5 0 0 23 0 23 4.5 0 4.5 0 0 -23z"/>
  <path d="M64.5 129.8 c-0.3 -0.8 -0.4 -12.4 -0.3 -25.8 l0.3 -24.5 14 0 14 0 0 25.5 0 25.5 -13.8 0.3 c-10.5 0.2 -13.9 0 -14.2 -1z"/>
  <path d="M147 105 l0 -26.1 14.3 0.3 14.2 0.3 0 25.5 0 25.5 -14.2 0.3 -14.3 0.3 0 -26.1z"/>
 </g>
 <g fill="#886ce4">
  <path d="M45.2 183.9 l0.3 -11 10.8 -0.2 10.7 -0.2 0 11.3 0 11.2 -11 0 -11.1 0 0.3 -11.1z"/>
  <path d="M173 183.8 l0 -11.3 10.7 0.2 10.8 0.2 0.3 11 0.3 11.1 -11.1 0 -11 0 0 -11.2z"/>
  <path d="M68 161 l0 -11 -11.5 0 -11.5 0 -0.2 -18.7 -0.3 -18.8 -7.2 -0.3 -7.3 -0.3 0 -7.4 0 -7.5 -7.5 0 -7.5 0 0 -26 0 -26 7.5 0 7.5 0 0.2 26.3 0.3 26.2 4.9 0.3 c2.7 0.2 6 0.1 7.3 -0.3 l2.3 -0.5 0 -18.5 0 -18.4 11.3 -0.3 11.2 -0.3 0.3 -11.2 0.3 -11.3 7.4 0 7.5 0 0 -11 0 -11 7 0 7 0 0 11 0 11 23 0 23 0 0 -11 0 -11 7 0 7 0 0 11 0 11 7.5 0 7.4 0 0.3 11.3 0.3 11.2 11.3 0.3 11.2 0.3 0 18.4 0 18.5 2.3 0.5 c1.3 0.4 4.6 0.5 7.3 0.3 l4.9 -0.3 0.3 -26.2 0.2 -26.3 7.5 0 7.5 0 0 26 0 26 -7.5 0 -7.5 0 0 7.5 0 7.4 -7.2 0.3 -7.3 0.3 -0.3 18.8 -0.2 18.7 -11.5 0 -11.5 0 0 11 0 11 -11 0 -11 0 0 -11 0 -11 -30 0 -30 0 0 11 0 11 -11 0 -11 0 0 -11z m21.5 -56 l0 -22.5 -11 0 -11 0 -0.3 21.5 c-0.1 11.8 0 22 0.3 22.8 0.3 1 3.1 1.2 11.2 1 l10.8 -0.3 0 -22.5z m83 0 l0 -22.5 -11.2 -0.3 -11.3 -0.3 0 23.1 0 23.1 11.3 -0.3 11.2 -0.3 0 -22.5z"/>
 </g>
 <g fill="#31d2f7">
  <path d="M52.9 224.6 c-0.2 -0.2 -0.3 -3.6 -0.1 -7.5 l0.4 -7.1 6.8 0 6.8 0 0.4 7.1 c0.2 3.9 0.1 7.3 -0.1 7.5 -0.2 0.2 -3.4 0.4 -7.1 0.4 -3.7 0 -6.9 -0.2 -7.1 -0.4z"/>
  <path d="M83 224.6 c-0.3 -0.2 -0.4 -8.6 -0.2 -18.5 l0.3 -18.1 6.9 0 7 0 0 17.5 c0 9.6 0.1 17.8 0.3 18.3 0.2 0.7 -13.6 1.6 -14.3 0.8z"/>
  <path d="M112.9 224.6 c-0.2 -0.2 -0.3 -3.6 -0.1 -7.5 l0.4 -7.1 6.8 0 6.8 0 0.4 7.1 c0.2 3.9 0.1 7.3 -0.1 7.5 -0.2 0.2 -3.4 0.4 -7.1 0.4 -3.7 0 -6.9 -0.2 -7.1 -0.4z"/>
  <path d="M143 224.6 c-0.3 -0.2 -0.4 -8.6 -0.2 -18.5 l0.3 -18.1 6.9 0 7 0 0 17.5 c0 9.6 0.1 17.8 0.3 18.3 0.2 0.7 -13.6 1.6 -14.3 0.8z"/>
  <path d="M172.9 224.6 c-0.2 -0.2 -0.3 -3.6 -0.1 -7.5 l0.4 -7.1 6.8 0 6.8 0 0.4 7.1 c0.2 3.9 0.1 7.3 -0.1 7.5 -0.2 0.2 -3.4 0.4 -7.1 0.4 -3.7 0 -6.9 -0.2 -7.1 -0.4z"/>
  <path d="M113 180 l0 -15 7 0 7 0 0 15 0 15 -7 0 -7 0 0 -15z"/>
 </g>
</svg>