<?xml version="1.0" encoding="utf-8"?>
<!DOCTYPE svg PUBLIC "-//W3C//DTD SVG 20010904//EN" "http://www.w3.org/TR/2001/REC-SVG-20010904/DTD/svg10.dtd">
<svg version="1.0" xmlns="http://www.w3.org/2000/svg" width="240px" height="240px" viewBox="0 0 240 240" preserveAspectRatio="xMidYMid meet">
 <g fill="#000000">
  <path d="M37.6 238.4 c-9.6 -1.8 -17.1 -5.8 -23.7 -12.3 -6.6 -6.7 -10.4 -14.1 -12.3 -23.8 -1.6 -8.7 -1.4 -10.3 9.3 -59.3 13.2 -60.4 16.3 -73.5 18.7 -80 6.8 -18 20 -34.6 36.4 -45.7 17.7 -12 43.2 -18.6 62.6 -16.2 31 3.8 56.1 18.9 72.2 43.3 9.8 15 10.2 16.3 28.7 100.6 9.3 42.2 10.4 48.7 9.4 55.3 -3.2 20.3 -16.6 34.3 -36.7 38.1 -16.2 3.1 -33.8 -4.4 -43.3 -18.3 -1.9 -2.8 -3.6 -5 -3.9 -5 -0.3 0 -1.4 1.9 -2.5 4.2 -2.4 5.3 -9.9 12.8 -15.5 15.7 -2.3 1.2 -7.1 2.8 -10.6 3.5 -14.7 3.1 -31.1 -4.7 -38 -17.9 -1.6 -3.1 -3.1 -5.6 -3.4 -5.6 -0.3 0 -2 2.3 -3.9 5 -7.5 11.1 -17.5 16.8 -33.6 19.3 -1.6 0.2 -6.1 -0.2 -9.9 -0.9z m18.1 -20 c9.8 -4.7 15.4 -13.6 16.1 -25.6 l0.5 -7.8 3.1 0 c1.8 0 4.7 1.1 6.5 2.5 3.1 2.2 9.4 4.1 16.1 4.7 2.4 0.3 2.5 0.7 3 7.9 0.5 6.3 1.1 8.4 3.5 11.9 3.5 5.1 10.7 9.5 15.5 9.5 4.8 0 12 -4.4 15.5 -9.5 2.4 -3.5 3 -5.6 3.5 -11.9 l0.5 -7.6 5.5 -0.6 c5.3 -0.6 13.2 -3.8 14.5 -5.9 0.3 -0.5 2.4 -1 4.6 -1 l3.9 0 0 5.8 c0 7.3 1.2 11.6 4.9 17.4 6 9.4 18.1 15.2 26.7 12.8 10.2 -2.9 18.1 -10.6 21 -20.6 l1.5 -5.2 -12.7 -57.9 c-6.9 -31.8 -13.5 -60.5 -14.5 -63.9 -2.1 -6.8 -9.5 -19.7 -15.4 -26.8 -9.4 -11.1 -27.8 -22.4 -43 -26.2 -9.3 -2.3 -24.9 -2.3 -33.5 0 -29.8 8 -52.9 31.3 -59.9 60.4 -1.2 4.8 -5.5 24.2 -9.6 43.2 -4.2 19 -9.4 42.4 -11.5 52.2 -2.2 9.7 -4 18.3 -4 19.2 0 0.8 1 4.1 2.1 7.3 2.8 7.3 9.6 14.3 17 17.2 6.5 2.5 11.1 2.2 18.6 -1.5z"/>
  <path d="M104.1 149.3 c-7.5 -8.8 -9.1 -11.3 -9.1 -14 l0 -3.3 25 0 25 0 0 3.3 c0 2.7 -1.6 5.2 -9.1 14 l-9 10.7 -6.8 0 -6.9 0 -9.1 -10.7z"/>
  <path d="M68.1 96.9 l-3.1 -3.1 0 -14.9 0 -14.9 2.9 -3.2 c2.5 -2.8 3.5 -3.2 9.3 -3.6 7.7 -0.5 12 1.3 14.4 5.9 1.2 2.5 1.5 5.8 1.2 17.1 l-0.3 14 -3.3 2.9 c-3 2.6 -3.9 2.9 -10.6 2.9 -7 0 -7.6 -0.2 -10.5 -3.1z"/>
  <path d="M150.4 96.6 l-3.4 -3.4 0 -13.6 c0 -19.2 2.2 -22.6 15 -22.6 5.4 0 6.4 0.3 9.7 3.3 l3.6 3.4 0.5 10.5 c0.6 14.5 -0.2 19.5 -4 23 -2.7 2.6 -3.7 2.8 -10.5 2.8 -7.2 0 -7.6 -0.1 -10.9 -3.4z"/>
 </g>
 <g fill="#ffffff">
  <path d="M97.2 196.9 c0.2 -0.9 -1.4 -1.5 -5.4 -2.1 -5.8 -0.7 -10.6 -2.5 -14.5 -5.4 -2.2 -1.6 -2.3 -1.5 -2.3 0.5 0 3 -1.4 2.6 -4.4 -1.4 -5.7 -7.4 -5.9 -9 -6.3 -36 -0.2 -13.7 -0.6 -26 -0.8 -27.1 -0.3 -1.2 -2.9 -5.3 -5.8 -9 -8.6 -11 -8.2 -9.1 -8.5 -36.2 -0.4 -27.4 -0.8 -25.7 8.7 -36.7 10 -11.7 26.8 -22.1 41.9 -26 7.9 -2 20.5 -3 26.5 -2.1 l4.7 0.7 0 36.3 c0 24.8 0.4 37.4 1.2 39.7 1.5 4.7 5.9 10 10.9 13.5 4.2 2.9 4.4 2.9 21.3 3.4 l17.1 0.5 0.3 3.2 c0.2 2.2 -0.6 4.5 -2.5 7.4 l-2.8 4.2 -0.5 26.6 c-0.5 24.3 -0.8 27 -2.7 31.1 -1.1 2.5 -3.4 5.8 -4.9 7.5 -2.8 2.9 -2.9 2.9 -3.2 0.7 -0.4 -2.3 -1.6 -2.9 -2.7 -1.2 -1.3 2.1 -9.2 5.3 -14.5 5.9 -3.5 0.4 -5.4 1.1 -5.2 1.9 0.3 1.7 -2.5 1.5 -8.3 -0.5 -3.2 -1 -6.7 -3.4 -9.8 -6.5 l-4.9 -5 -3 3.6 c-3.8 4.6 -10.1 8.3 -15.6 9.2 -3.3 0.5 -4.2 0.4 -4 -0.7z m35.8 -50.6 l9.1 -10.8 -11.1 -0.3 c-6 -0.1 -16 -0.1 -22.1 0 l-11 0.3 9.2 10.8 c8.7 10.1 9.3 10.7 13 10.7 3.6 0 4.2 -0.5 12.9 -10.7z m-46.8 -52.2 c3.3 -2.9 3.3 -2.9 3.6 -13.9 0.3 -8.7 0 -11.6 -1.3 -14.1 -3.5 -6.8 -13 -7.9 -17.9 -2 -2.5 2.9 -2.6 3.6 -2.6 14.9 l0 11.8 3.1 3.1 c4.3 4.3 10.4 4.4 15.1 0.2z"/>
 </g>
 <g fill="#8e562e">
  <path d="M34.1 222.9 c-10.8 -4.3 -19.1 -16.3 -19.1 -27.5 0 -2.5 1.8 -12.5 4 -22.2 2.1 -9.8 7.3 -33.2 11.5 -52.2 10.5 -48.1 11.3 -51.5 15.7 -60.1 6.3 -12.7 6.3 -12.7 6.3 14.4 0 13.3 0.3 25.4 0.7 26.8 0.4 1.4 3.5 6.1 6.8 10.4 3.3 4.3 6.2 8.8 6.5 9.9 0.2 1.2 0.6 13.4 0.8 27.1 0.4 26.2 0.6 27.8 5.4 34.7 2.3 3.5 2.5 4.4 2.1 11.5 -0.5 8.5 -2.6 13.7 -7.9 19.7 -7.3 8.4 -22.1 11.7 -32.8 7.5z"/>
  <path d="M185.3 223.1 c-9.2 -3.2 -16.8 -11 -19.3 -20.1 -1.7 -5.9 -1.3 -16.5 0.7 -18.1 0.9 -0.8 2.5 -3.4 3.7 -5.9 1.8 -4.1 2.1 -7.1 2.6 -31.1 l0.5 -26.6 2.8 -4.2 c2.8 -4.2 2.8 -4.3 0.7 -4.8 -2.1 -0.6 -2.1 -0.6 0.3 -3.2 6.6 -7 6.7 -7.5 6.7 -32.6 0 -22.6 0.4 -27.5 2.1 -27.5 1.5 0 9.9 15.3 11.8 21.5 1 3.3 7.6 32.1 14.6 64 14 63.9 14 63.9 9 74.1 -6.4 13.1 -22.1 19.4 -36.2 14.5z"/>
 </g>
 <g fill="#bb9167">
  <path d="M161.4 112.1 c-16.8 -0.6 -17.1 -0.6 -21.3 -3.5 -5 -3.5 -9.4 -8.8 -10.9 -13.5 -0.8 -2.3 -1.2 -15.2 -1.2 -41.2 l0 -37.9 2.7 0 c14.7 0 41.7 14.8 52.7 28.8 l3.9 5 -0.1 26.1 c-0.1 17.3 -0.6 26.9 -1.3 28.4 -1.8 3.5 -5.9 8.7 -6.7 8.5 -0.4 -0.1 -8.4 -0.4 -17.8 -0.7z m7.4 -17.9 c3.7 -3.4 4.7 -9 3.9 -20.1 -0.5 -7.1 -0.8 -7.8 -4.1 -10.9 -4 -3.6 -7.9 -4.1 -12.6 -1.7 -4.8 2.5 -6 6.1 -6 18.1 l0 10.6 3.4 3.4 c2.9 2.9 4.1 3.4 7.9 3.4 3.5 0 5.1 -0.6 7.5 -2.8z"/>
 </g>
 <g fill="#e81224">
  <path d="M110.3 222.5 c-8.4 -4.2 -12.1 -10.3 -12.8 -21.2 l-0.4 -6.2 3.8 -1.1 c7.6 -2 15.9 -10.2 17.6 -17.2 1 -3.9 2 -3.5 3.4 1.3 1.8 5.8 9.3 13.2 15.9 15.3 l5.1 1.7 -0.4 6.3 c-0.7 10.8 -4.4 16.9 -12.8 21.1 -6.7 3.3 -12.7 3.3 -19.4 0z"/>
 </g>
 <g fill="#a4744a">
 </g>
</svg>