<?xml version="1.0" encoding="utf-8"?>
<!DOCTYPE svg PUBLIC "-//W3C//DTD SVG 20010904//EN" "http://www.w3.org/TR/2001/REC-SVG-20010904/DTD/svg10.dtd">
<svg version="1.0" xmlns="http://www.w3.org/2000/svg" width="240px" height="240px" viewBox="0 0 240 240" preserveAspectRatio="xMidYMid meet">
 <g fill="#000000">
  <path d="M15.6 238 c-6.6 -2.6 -11.2 -7.2 -13.6 -13.7 -1.9 -5.1 -2 -7.8 -2 -51.8 0 -44.3 0.1 -46.7 2 -51.9 2.4 -6.2 7.8 -11.7 13.4 -13.6 4.1 -1.3 4.2 -1.5 2 -5.9 -2.3 -4.6 -1.5 -12.9 1.7 -17.6 1.4 -2.1 4.3 -4.5 7.2 -5.8 l4.7 -2.2 0 -29 c0 -25.9 0.2 -29.4 1.9 -33 2.4 -5.3 7.7 -9.9 14 -12 4.6 -1.5 5.6 -1.5 10.1 -0.2 2.7 0.8 12.1 6 20.9 11.6 l15.9 10.1 11.2 0 11.2 0 15.8 -10 c8.6 -5.5 17.8 -10.7 20.5 -11.6 4.4 -1.6 5.1 -1.6 10.2 0 9 2.9 16.2 11.2 16.3 18.9 l0 2.7 30.5 0 30.5 0 0 7.8 c0 13.5 -3 21.3 -10.8 28.3 -4.7 4.3 -4.9 4.7 -5.4 10.9 -0.7 8 -3.2 13.3 -9.1 18.8 -5.1 4.6 -9.5 6.7 -16 7.7 -3.9 0.6 -4.6 1.1 -6 4.4 -1 2.1 -1.7 4 -1.7 4.4 0 0.3 1.6 1.1 3.6 1.7 4.9 1.6 10.3 6.6 12.5 11.5 1.7 3.7 1.9 7.8 1.9 53.8 0 54.8 0.1 53.9 -6.2 60.5 -1.8 1.7 -5.6 4.1 -8.5 5.2 -5.2 1.9 -7.8 2 -89.6 2 -80.6 -0.1 -84.4 -0.2 -89.1 -2z m174.6 -17.8 l2.3 -2.3 0 -45.4 0 -45.4 -2.3 -2.3 c-2.1 -2.1 -3.3 -2.3 -14.7 -2.6 l-12.5 -0.4 0 -2.8 c0 -1.7 2.5 -7 6.1 -13.1 3.4 -5.6 6.3 -10.9 6.6 -11.6 0.4 -1 -1.2 -1.3 -7.1 -1.3 l-7.6 0 0 -3.4 c0 -1.8 0.3 -4.8 0.6 -6.5 l0.7 -3.1 15.8 0 c17.7 0 22.4 -1.1 25.9 -6 1.1 -1.6 2 -3.1 2 -3.4 0 -0.3 -8.1 -0.6 -18 -0.6 l-18 0 0 -4.7 c0 -5.7 2.6 -10.5 7.2 -13.3 2.9 -1.7 5.1 -2 17.5 -2 16 0 20.9 -1.2 24.3 -6 1.1 -1.6 2 -3.1 2 -3.4 0 -0.3 -9.1 -0.6 -20.2 -0.6 -17.8 0 -20.8 0.3 -24.5 1.9 -2.3 1.1 -4.6 2.9 -5.3 4 -0.8 1.5 -2 2.1 -4.5 2.1 l-3.5 0 0 -10.9 c0 -5.9 -0.5 -12.2 -1.1 -14 -2.1 -6.1 -3.1 -5.8 -21.7 6 l-17.3 10.9 -17.9 0 -17.9 0 -17.3 -10.9 c-19.1 -12.1 -19.9 -12.3 -21.9 -4.9 -1.1 4.1 -0.7 36.9 0.7 59.6 l0.6 9.2 -7.7 0 c-6 0 -7.6 0.3 -7.2 1.3 0.3 0.7 3.2 6 6.6 11.6 3.6 6.1 6.1 11.4 6.1 13.1 l0 2.8 -12.5 0.4 c-11.4 0.3 -12.6 0.5 -14.7 2.6 l-2.3 2.3 -0.3 44.2 c-0.2 47.4 -0.2 47.9 4.8 50.4 2 1 19.9 1.2 84.2 1 l81.7 -0.2 2.3 -2.3z"/>
 </g>
 <g fill="#282828">
  <path d="M19 224.7 c-5 -2.5 -5 -2.8 -4.8 -53.4 l0.3 -47.2 2.3 -2.3 c2.1 -2.1 3.3 -2.3 14.6 -2.6 l12.4 -0.4 -6.9 -11.6 c-7.4 -12.5 -8.4 -16.4 -4.1 -17 1.8 -0.3 2.2 0.1 2.2 2.1 0 1.4 2.9 7.5 6.5 13.6 4.2 7.1 6.5 12.1 6.5 14 l0 3.1 -12.8 0 c-19 0 -17.2 -5.2 -17.2 49.6 l0 45.1 2.3 2.1 2.3 2.2 82.5 0 82.6 0 2.1 -2.3 c2.2 -2.3 2.2 -2.5 2.2 -47.3 l0 -45.1 -2.3 -2.1 c-2.1 -2 -3.4 -2.2 -15 -2.2 l-12.7 0 0 -3.1 c0 -1.9 2.3 -6.9 6.5 -14 3.6 -6.1 6.5 -12.2 6.5 -13.6 0 -2 0.4 -2.4 2.3 -2.1 4.2 0.6 3.2 4.5 -4.2 17 l-6.9 11.6 12.4 0.4 c11.3 0.3 12.5 0.5 14.6 2.6 l2.3 2.3 0 48.4 0 48.4 -2.3 2.3 -2.3 2.3 -84.7 0.2 c-66.7 0.2 -85.2 0 -87.2 -1z"/>
  <path d="M56.6 106.5 c-6.1 -2.2 -13.6 -10.4 -13.6 -15 0 -0.8 0.6 -1.5 1.3 -1.5 1 0 1.2 -2 0.9 -9 l-0.4 -9 5 0 5 0 0.4 6.5 c0.4 6.9 2.1 10.1 7.2 13.9 2.1 1.6 4.6 2.2 10.9 2.4 7.2 0.3 8.5 0.1 11 -1.8 2.6 -2.1 2.7 -2.5 2.7 -11.6 l0 -9.4 18 0 18 0 0 9.4 c0 9.1 0.1 9.5 2.8 11.6 2.4 1.9 3.7 2.1 10.9 1.8 6.3 -0.2 8.8 -0.8 10.9 -2.4 5.1 -3.8 6.8 -7 7.2 -13.9 l0.4 -6.5 6.4 0 6.4 0 0 5.5 c0 4.2 -0.3 5.5 -1.5 5.5 -0.8 0 -1.5 0.6 -1.5 1.3 0 0.6 -0.3 2.2 -0.6 3.5 -0.5 1.6 -0.2 2.2 1 2.2 0.9 0 1.6 0.7 1.6 1.5 0 4.9 -8.4 13.7 -14.7 15.4 -4.9 1.4 -27.6 1.4 -32.5 0.1 -5.2 -1.5 -9.4 -6.6 -10.2 -12.7 -0.4 -3.1 -1.4 -5.7 -2.6 -6.8 -1.9 -1.7 -2.1 -1.7 -4 0 -1.2 1.1 -2.2 3.7 -2.6 6.8 -0.8 6.1 -5 11.2 -10.2 12.7 -5.5 1.5 -28.9 1.2 -33.6 -0.5z"/>
  <path d="M194 81 c0 -1.6 0.7 -2 3.5 -2 2.4 0 3.5 -0.5 3.5 -1.4 0 -0.8 0.9 -2.1 2 -2.9 1.1 -0.8 2.3 -2.8 2.6 -4.5 0.8 -4.2 4.4 -4.6 4.4 -0.6 0 4.2 -3.9 9.4 -8.4 11.5 -5.4 2.4 -7.6 2.4 -7.6 -0.1z"/>
  <path d="M170 63.1 c0 -4.7 1 -6.1 4.1 -6.1 2.5 0 2.9 -0.4 2.9 -2.9 0 -3.1 1.4 -4.1 6.1 -4.1 4 0 3.7 2.3 -0.6 3.8 -3.8 1.4 -8.2 6.1 -9.1 9.8 -0.9 3.4 -3.4 3.1 -3.4 -0.5z"/>
  <path d="M44.6 53.8 c-1 -3.8 -0.7 -29.1 0.4 -33 0.6 -2.1 1.9 -4.2 3 -4.8 4.2 -2.2 7.3 -1 24.7 10 l17.4 11 14.9 0 14.9 0 17.4 -11 c11.1 -7 18.4 -11 20.1 -11 6.9 0 8.6 3.8 8.6 19.4 l0 11.1 2.3 -2.7 c2.2 -2.7 8.2 -5.8 11.2 -5.8 0.8 0 1.5 0.9 1.5 2 0 1.6 -0.7 2 -3.5 2 -2.4 0 -3.5 0.5 -3.5 1.4 0 0.8 -0.8 2.1 -1.9 2.8 -1 0.7 -2.1 2.3 -2.5 3.6 -0.6 1.7 -1.5 2.2 -4.2 2.2 l-3.4 0 0 -13.8 c0 -10.8 -0.3 -14.2 -1.6 -16 -0.8 -1.2 -1.9 -2.2 -2.4 -2.2 -0.5 0 -8.7 4.9 -18.2 11 l-17.3 11 -17.5 0 -17.5 0 -17.3 -11 c-9.5 -6.1 -17.7 -11 -18.2 -11 -0.5 0 -1.6 1 -2.4 2.2 -1.3 1.8 -1.6 5.4 -1.6 18.5 0 13.2 -0.3 16.3 -1.4 16.3 -0.7 0 -1.6 -1 -2 -2.2z"/>
  <path d="M209 51 c0 -1.6 0.7 -2 3.5 -2 2.4 0 3.5 -0.5 3.5 -1.4 0 -0.8 0.9 -2.1 2 -2.9 1.1 -0.8 2.3 -2.8 2.6 -4.5 0.8 -4.2 4.4 -4.6 4.4 -0.6 0 4.2 -3.9 9.4 -8.4 11.5 -5.4 2.4 -7.6 2.4 -7.6 -0.1z"/>
 </g>
 <g fill="#e81224">
  <path d="M80 154 l0 -14 14 0 14 0 0 14 0 14 -14 0 -14 0 0 -14z"/>
  <path d="M165 79.1 c0 -4 -0.1 -4.1 -3.5 -4.1 -2.4 0 -3.5 0.5 -3.5 1.5 0 1.3 -2.8 1.5 -19 1.5 -16.2 0 -19 -0.2 -19 -1.5 0 -1.3 -2.3 -1.5 -15 -1.5 -12.7 0 -15 0.2 -15 1.5 0 1.3 -2.8 1.5 -19 1.5 -16.2 0 -19 -0.2 -19 -1.5 0 -1 -1.1 -1.5 -3.5 -1.5 l-3.5 0 0 -12.5 0 -12.5 58.5 0 58.5 0 0 -2.2 c0.1 -1.3 0.7 -3.4 1.5 -4.8 1.4 -2.5 1.4 -2.5 1.5 1.4 l0 3.9 2.3 -3.3 c1.2 -1.8 3.5 -4.3 5 -5.4 2.7 -2 4 -2.1 27.5 -2.1 24.1 0 24.7 0 25 2 0.3 2.5 -3.3 8.1 -7.1 10.9 -2.5 1.9 -4.6 2.2 -19.8 2.6 l-17.1 0.5 -3.9 4.2 c-2.4 2.6 -3.9 5.2 -3.9 6.7 l0 2.6 18.3 0.2 c17.5 0.3 18.2 0.4 18.5 2.3 0.3 2.5 -3.3 8.1 -7.1 10.9 -2.6 1.9 -4.4 2.1 -20.3 2.4 l-17.4 0.4 0 -4.1z"/>
 </g>
 <g fill="#767575">
  <path d="M17.2 222.7 c-2.8 -2.9 -2.9 -5.7 -0.2 -5.7 1.3 0 2 0.7 2 2 0 1.3 0.7 2 2 2 1.3 0 2 0.7 2 2 0 2.7 -3.1 2.6 -5.8 -0.3z"/>
  <path d="M187 223 c0 -1.3 0.7 -2 2 -2 1.3 0 2 -0.7 2 -2 0 -1.3 0.7 -2 2 -2 2.7 0 2.6 3.1 -0.3 5.8 -2.9 2.8 -5.7 2.9 -5.7 0.2z"/>
  <path d="M15 126.2 c0 -2.3 4 -6.2 6.3 -6.2 1 0 1.7 0.8 1.7 2 0 1.3 -0.7 2 -2 2 -1.3 0 -2 0.7 -2 2 0 1.3 -0.7 2 -2 2 -1.3 0 -2 -0.7 -2 -1.8z"/>
  <path d="M191 126 c0 -1.3 -0.7 -2 -2 -2 -1.3 0 -2 -0.7 -2 -2 0 -2.7 3.1 -2.6 5.8 0.3 2.8 2.9 2.9 5.7 0.2 5.7 -1.3 0 -2 -0.7 -2 -2z"/>
  <path d="M41.7 122.3 c-1.2 -1.2 -0.7 -2.2 1.2 -2.5 1.6 -0.3 0.9 -2 -5.7 -13.2 -9.1 -15.4 -9 -16 1.6 -16.4 6.9 -0.3 7.1 -0.2 8.6 2.6 2.2 4.3 9 9.9 13.3 11.1 2.1 0.6 6.4 1.1 9.6 1.1 5 0 5.7 0.2 5.7 2 0 1.1 -0.7 2 -1.5 2 -2.5 0 -9.3 6.9 -10.5 10.6 l-1.2 3.4 -10.2 0 c-5.7 0 -10.6 -0.3 -10.9 -0.7z"/>
  <path d="M146 119.6 c-1.2 -3.7 -8 -10.6 -10.5 -10.6 -0.8 0 -1.5 -0.9 -1.5 -2 0 -1.8 0.7 -2 5.8 -2 3.1 0 7.4 -0.5 9.5 -1.1 4.3 -1.2 11.1 -6.8 13.3 -11.1 1.5 -2.8 1.7 -2.9 8.6 -2.6 10.6 0.4 10.7 1 1.6 16.4 -6.7 11.3 -7.4 12.9 -5.6 13.2 1 0.2 1.7 0.9 1.5 1.5 -0.2 0.8 -4 1.3 -10.9 1.5 l-10.6 0.3 -1.2 -3.5z"/>
  <path d="M82 106.6 c0 -0.8 1.9 -1.8 4.4 -2.5 5.9 -1.5 10.1 -6.3 10.9 -12.6 0.9 -6.2 3 -8.5 7.7 -8.5 4.7 0 6.8 2.3 7.7 8.5 0.8 6.3 5 11.1 10.9 12.6 2.5 0.7 4.4 1.7 4.4 2.5 0 1.2 -4.1 1.4 -23 1.4 -18.9 0 -23 -0.2 -23 -1.4z"/>
  <path d="M61.5 96.6 c-6.3 -2.8 -9.5 -8.5 -9.5 -16.7 0 -4.2 0.3 -4.9 1.9 -4.9 1.6 0 2 0.9 2.4 5.3 0.9 8.6 1.8 11.7 3.5 11.7 3.4 0 8.2 2.4 8.2 4.2 0 2.1 -2.3 2.3 -6.5 0.4z"/>
  <path d="M81 96 c0 -1.5 0.7 -2 2.5 -2 1.8 0 2.5 -0.5 2.5 -2 0 -1.3 0.7 -2 2 -2 2.9 0 2.5 3.4 -0.6 5.9 -3.4 2.7 -6.4 2.7 -6.4 0.1z"/>
  <path d="M122.6 95.9 c-3.1 -2.5 -3.5 -5.9 -0.6 -5.9 1.3 0 2 0.7 2 2 0 1.5 0.7 2 2.5 2 1.8 0 2.5 0.5 2.5 2 0 2.6 -3 2.6 -6.4 -0.1z"/>
  <path d="M142 96.3 c0 -1.9 4.6 -4.3 8.2 -4.3 1.7 0 2.6 -3.1 3.5 -11.7 0.4 -4.5 0.8 -5.3 2.5 -5.3 1.9 0 2 0.5 1.6 6.5 -0.5 8.9 -5 14.6 -12.5 16.1 -2.8 0.6 -3.3 0.4 -3.3 -1.3z"/>
  <path d="M56 50.6 c0 -1.9 1.3 -3.3 5.5 -5.9 l5.6 -3.5 -11 -6.8 c-10.9 -6.8 -11 -7 -11.1 -10.7 0 -4.4 3.5 -8.7 7.2 -8.7 1.3 0 10.4 5.2 20.3 11.5 l18 11.5 14.5 0 14.5 0 18 -11.5 c9.9 -6.3 19 -11.5 20.3 -11.5 3.7 0 7.2 4.3 7.2 8.7 -0.1 3.7 -0.2 3.9 -11.1 10.7 l-11 6.8 5.6 3.5 c4.2 2.6 5.5 4 5.5 5.9 l0 2.4 -49 0 -49 0 0 -2.4z"/>
 </g>
 <g fill="#d48c00">
  <path d="M61 95.8 c-6 -3.1 -9.1 -9.2 -8.3 -16 l0.6 -4.8 18.3 0 18.4 0 0 5.3 0 5.2 -16.7 -0.4 -16.7 -0.3 1.6 2.3 c3.2 5 7.5 6.9 15.7 6.9 7.9 0 12.1 -1.6 12.1 -4.6 0 -0.8 0.9 -1.4 2 -1.4 2.6 0 2.7 3.9 0.1 7.1 -1.8 2.2 -2.8 2.4 -12.3 2.7 -9.1 0.3 -10.8 0.1 -14.8 -2z"/>
  <path d="M124.3 97 c-4.2 -1.7 -6.1 -9 -2.3 -9 1.1 0 2 0.6 2 1.4 0 3 4.2 4.6 12.1 4.6 8.2 0 12.5 -1.9 15.7 -6.9 l1.6 -2.3 -16.7 0.3 -16.7 0.4 0 -5.2 0 -5.3 18.4 0 18.3 0 0.6 4.7 c0.8 6.9 -2.3 13.1 -8.3 16.1 -3.6 1.8 -6 2.2 -13.5 2.1 -4.9 0 -10 -0.4 -11.2 -0.9z"/>
 </g>
 <g fill="#8cbd18">
  <path d="M102 166.5 c0 -0.8 0.7 -1.5 1.5 -1.5 1.2 0 1.5 -1.9 1.5 -11 0 -9.1 -0.3 -11 -1.5 -11 -0.8 0 -1.5 -0.9 -1.5 -2 0 -2 0.5 -2 14.3 -1.8 l14.2 0.3 0.3 14.3 0.3 14.2 -14.6 0 c-12.2 0 -14.5 -0.2 -14.5 -1.5z"/>
 </g>
 <g fill="#df4857">
  <path d="M79.2 153.8 l0.3 -14.3 14.3 -0.3 c11.7 -0.2 14.2 0 14.2 1.2 0 2 -3.2 2.6 -14.7 2.6 l-10.3 0 0 11 c0 9.1 0.3 11 1.5 11 0.8 0 1.5 0.7 1.5 1.5 0 1 -1.1 1.5 -3.5 1.5 l-3.6 0 0.3 -14.2z"/>
  <path d="M98.9 121.8 c-3.4 -2.9 -11.9 -13.7 -11.9 -15.2 0 -1.4 2.1 -1.6 18 -1.6 21.1 0 20.9 -0.2 12.8 9.4 -7 8.3 -7.5 8.6 -12.8 8.6 -2.5 0 -5.3 -0.6 -6.1 -1.2z"/>
  <path d="M45 51 c0 -1.8 0.7 -2 8.7 -2 7.8 0 8.5 0.1 6.7 1.5 -1.7 1.3 3.5 1.4 44.6 1.4 41.1 0 46.3 -0.1 44.6 -1.4 -1.8 -1.4 -1.1 -1.5 6.7 -1.5 8 0 8.7 0.2 8.7 2 0 2 -0.7 2 -60 2 -59.3 0 -60 0 -60 -2z"/>
 </g>
 <g fill="#00bcf2">
  <path d="M79.7 190.3 c-0.4 -0.3 -0.7 -6.9 -0.7 -14.5 0 -11.6 0.2 -13.8 1.5 -13.8 0.8 0 1.5 0.7 1.5 1.5 0 1.3 2.1 1.5 13 1.5 l13 0 0 13 0 13 -13.8 0 c-7.6 0 -14.2 -0.3 -14.5 -0.7z"/>
 </g>
 <g fill="#ffb900">
  <path d="M102 189.5 c0 -0.8 0.7 -1.5 1.5 -1.5 1.2 0 1.5 -1.9 1.5 -11.5 l0 -11.5 11.5 0 c9.6 0 11.5 -0.3 11.5 -1.5 0 -0.8 0.7 -1.5 1.5 -1.5 1.3 0 1.5 2 1.3 14.3 l-0.3 14.2 -14.2 0.3 c-12.3 0.2 -14.3 0 -14.3 -1.3z"/>
  <path d="M60.2 95 c-3.7 -2.3 -7.2 -7.5 -7.2 -10.8 l0 -2.2 18.3 0.2 18.2 0.3 0 5.4 c-0.1 8.1 -1.9 9.1 -15.4 9.1 -8.8 0 -11.1 -0.3 -13.9 -2z"/>
  <path d="M122.9 95.1 c-1.9 -1.5 -2.3 -2.8 -2.4 -7.2 l0 -5.4 18.3 -0.3 18.2 -0.2 0 2.2 c0 3.3 -3.5 8.5 -7.2 10.8 -4.7 2.9 -23.4 2.9 -26.9 0.1z"/>
 </g>
 <g fill="#a6a6a6">
  <path d="M17.5 222.5 c-3 -3 -3.3 -6.5 -0.6 -6.5 1.1 0 2.2 0.9 2.6 1.9 0.3 1.1 1.5 2.3 2.6 2.6 1 0.4 1.9 1.5 1.9 2.6 0 2.7 -3.5 2.4 -6.5 -0.6z"/>
  <path d="M186 223.1 c0 -1.1 0.9 -2.2 1.9 -2.6 1.1 -0.3 2.3 -1.5 2.6 -2.6 0.4 -1 1.5 -1.9 2.6 -1.9 2.7 0 2.4 3.5 -0.6 6.5 -3 3 -6.5 3.3 -6.5 0.6z"/>
  <path d="M15 127 c0 -2.7 4.3 -7 7 -7 2.6 0 2.7 3.6 0.1 4.5 -1.1 0.3 -2.3 1.5 -2.6 2.6 -0.9 2.6 -4.5 2.5 -4.5 -0.1z"/>
  <path d="M190.5 127.1 c-0.3 -1.1 -1.5 -2.3 -2.6 -2.6 -2.6 -0.9 -2.5 -4.5 0.1 -4.5 2.7 0 7 4.3 7 7 0 2.6 -3.6 2.7 -4.5 0.1z"/>
  <path d="M99 119.5 l0 -3.5 2 2 c1.1 1.1 2.9 2 4 2 1.1 0 2.9 -0.9 4 -2 l2 -2 0 3.5 0 3.5 -6 0 -6 0 0 -3.5z"/>
  <path d="M57 121 c0 -0.5 0.6 -1 1.4 -1 0.8 0 1.9 -1.5 2.5 -3.3 2 -5.8 9.6 -11.7 15.2 -11.7 3.1 0 2.4 3.6 -0.9 4.3 -3.2 0.7 -10 7.1 -10.8 10.4 -0.5 1.8 -1.3 2.3 -4 2.3 -1.9 0 -3.4 -0.4 -3.4 -1z"/>
  <path d="M145.6 119.7 c-0.8 -3.3 -7.6 -9.7 -10.8 -10.4 -3.3 -0.7 -4 -4.3 -0.9 -4.3 5.6 0 13.2 5.9 15.2 11.7 0.6 1.8 1.7 3.3 2.5 3.3 0.8 0 1.4 0.5 1.4 1 0 0.6 -1.5 1 -3.4 1 -2.7 0 -3.5 -0.5 -4 -2.3z"/>
  <path d="M91 110.4 c0 -3.9 0.9 -3.8 4 0.6 l2.1 3 -3 0 c-2.9 0 -3.1 -0.3 -3.1 -3.6z"/>
  <path d="M115 111 c3.1 -4.4 4 -4.5 4 -0.6 0 3.3 -0.2 3.6 -3.1 3.6 l-3 0 2.1 -3z"/>
  <path d="M45 37.5 c0 -8 0.2 -14.5 0.5 -14.5 0.8 0 22.7 13.9 24.8 15.8 2.9 2.5 2 3.9 -5.3 8.7 -6.5 4.2 -7.6 4.5 -13.5 4.5 l-6.5 0 0 -14.5z"/>
  <path d="M144.8 47.4 c-7.1 -4.7 -7.9 -6.1 -5 -8.6 2 -1.9 23.9 -15.8 24.7 -15.8 0.3 0 0.5 6.5 0.5 14.5 l0 14.5 -6.7 -0.1 c-6.3 0 -7.3 -0.4 -13.5 -4.5z"/>
 </g>
 <g fill="#e5e5e5">
  <path d="M19.4 223.8 c-1.2 -0.5 -2.7 -2.1 -3.3 -3.4 -1.5 -3.5 -1.5 -92.3 0 -95.7 1.9 -4.2 4.8 -4.7 24.9 -4.7 l19 0 1.3 -3.2 c1.9 -4.6 7.4 -9.6 11.6 -10.8 2 -0.5 6.6 -1 10.3 -1 l6.6 0 6.3 7.5 c8.4 9.9 9.4 9.9 17.8 0 l6.3 -7.5 6.6 0 c3.7 0 8.3 0.5 10.3 1 4.2 1.2 9.7 6.2 11.6 10.8 l1.3 3.2 19 0 c20.1 0 23 0.5 24.9 4.7 1.5 3.4 1.5 92.2 0 95.6 -0.6 1.4 -2.2 3 -3.6 3.6 -3.2 1.5 -167.8 1.4 -170.9 -0.1z m170.2 -4.2 c0.8 -0.8 1.4 -2.6 1.4 -4 l0 -2.6 -86 0 -86 0 0 2.5 c0 5.7 -4.6 5.4 85.8 5.5 70.9 0 83.6 -0.2 84.8 -1.4z m-57.6 -54.6 l0 -27 -27 0 -27 0 0 27 0 27 27 0 27 0 0 -27z m-39 -50 c0 -1.1 -0.7 -2 -1.5 -2 -0.8 0 -2 -0.9 -2.7 -2 -2.4 -3.8 -15.7 -2 -20.5 2.6 -3 2.9 -1.2 3.4 11.7 3.4 12.3 0 13 -0.1 13 -2z m50 0.9 c0 -5.3 -18.8 -9.6 -21.8 -4.9 -0.7 1.1 -1.9 2 -2.7 2 -0.8 0 -1.5 0.9 -1.5 2 0 1.9 0.7 2 13 2 8.6 0 13 -0.4 13 -1.1z"/>
  <path d="M79 187.5 c0 -3.9 2.4 -5 3.3 -1.5 0.3 1.1 1.2 2 2.1 2 0.9 0 1.6 0.7 1.6 1.5 0 1 -1.1 1.5 -3.5 1.5 -3.3 0 -3.5 -0.2 -3.5 -3.5z"/>
  <path d="M79 142.5 c0 -3.3 0.2 -3.5 3.5 -3.5 3.9 0 5 2.4 1.5 3.3 -1.1 0.3 -2 1.2 -2 2.1 0 0.9 -0.7 1.6 -1.5 1.6 -1 0 -1.5 -1.1 -1.5 -3.5z"/>
  <path d="M128 144.4 c0 -0.9 -0.9 -1.8 -2 -2.1 -3.5 -0.9 -2.4 -3.3 1.5 -3.3 3.3 0 3.5 0.2 3.5 3.5 0 2.4 -0.5 3.5 -1.5 3.5 -0.8 0 -1.5 -0.7 -1.5 -1.6z"/>
 </g>
 <g fill="#f8f8f8">
  <path d="M17.7 222.2 c-1.1 -1.2 -1.7 -3.6 -1.7 -7 l0 -5.2 89 0 89 0 0 5.3 c0 9.5 8.2 8.7 -89.2 8.7 -81.6 0 -85.6 -0.1 -87.1 -1.8z"/>
  <path d="M75 165 l0 -30 30 0 30 0 0 30 0 30 -30 0 -30 0 0 -30z m52.8 -0.2 l0.2 -22.8 -23 0 -23 0 0 23 0 23 22.8 -0.2 22.7 -0.3 0.3 -22.7z"/>
  <path d="M61.5 117.8 c1.2 -3.8 5.2 -8.4 8.7 -10 3.3 -1.6 18 -3 19.5 -1.9 0.4 0.3 3.4 3.6 6.6 7.4 l5.9 6.7 -20.7 0 -20.6 0 0.6 -2.2z"/>
  <path d="M113.7 113.3 c3.2 -3.8 6.2 -7.1 6.6 -7.4 1.5 -1.1 16.2 0.3 19.5 1.9 3.5 1.6 7.5 6.2 8.7 10 l0.6 2.2 -20.6 0 -20.7 0 5.9 -6.7z"/>
 </g>
</svg>