<?xml version="1.0" encoding="utf-8"?>
<!DOCTYPE svg PUBLIC "-//W3C//DTD SVG 20010904//EN" "http://www.w3.org/TR/2001/REC-SVG-20010904/DTD/svg10.dtd">
<svg version="1.0" xmlns="http://www.w3.org/2000/svg" width="120px" height="120px" viewBox="0 0 120 120" preserveAspectRatio="xMidYMid meet">
 <g fill="#000000">
  <path d="M32.8 85.3 c-16 -16.1 -27.4 -28.4 -28.6 -30.9 -8 -16.1 -0.9 -36.4 15.6 -44.6 3.9 -1.9 6.3 -2.3 14.2 -2.3 10.3 0 14.2 1.4 22.2 7.7 l3.7 2.9 5.9 -4.4 c7.4 -5.5 12.9 -7 22.4 -6.5 15.5 0.9 26.6 10.7 30.4 26.7 1.5 6.3 0.4 14.1 -2.8 20.6 -1.2 2.4 -12.7 14.8 -28.6 30.8 -14.7 14.7 -26.9 26.7 -27.2 26.7 -0.3 0 -12.5 -12 -27.2 -26.7z m49.9 -10.5 c23 -23.1 26.3 -27.4 26.3 -34.8 0 -4.3 -3.2 -11.6 -6.8 -15.3 -3.9 -4.1 -11.4 -7.7 -16.2 -7.7 -5.4 0 -12.4 3.7 -18 9.4 -6.2 6.4 -9.8 6.4 -16 0 -5.6 -5.7 -12.6 -9.4 -18 -9.4 -4.8 0 -12.3 3.6 -16.2 7.7 -3.6 3.7 -6.8 11 -6.8 15.3 0 7.4 3.3 11.7 26.3 34.8 12.2 12.2 22.4 22.2 22.7 22.2 0.3 0 10.5 -10 22.7 -22.2z"/>
 </g>
 <g fill="#e81224">
  <path d="M35.8 79.3 c-26.4 -26.5 -27.8 -28.5 -27.8 -39.3 0 -15.3 11 -26.4 26 -26.4 8 0 13.4 2.5 20.8 9.7 l5.2 5.1 5.3 -5.1 c7.3 -7.2 12.7 -9.7 20.7 -9.7 15 0 26 11.1 26 26.4 0 10.8 -1.4 12.8 -27.8 39.3 -13 13 -23.9 23.7 -24.2 23.7 -0.3 0 -11.2 -10.7 -24.2 -23.7z m5.5 -21.5 c-5.5 -5.7 -10.6 -11.3 -11.2 -12.5 -0.6 -1.2 -1.1 -4.4 -1.1 -7.2 0 -5.9 -1.3 -7.3 -3 -3.2 -0.9 2.2 -0.9 3.9 0 7.2 1 3.5 3.3 6.5 11.9 15.1 5.8 6 11.3 10.8 12.1 10.8 0.8 0 -3.1 -4.6 -8.7 -10.2z"/>
 </g>
 <g fill="#ef6950">
  <path d="M36 61.2 c-9.2 -9.1 -12 -12.6 -12.9 -15.7 -2.4 -8.8 -0.3 -17.5 4.2 -17.5 3.5 0 4.7 1.9 4.7 7.3 0 2.6 0.5 5.8 1.1 7 0.6 1.2 5.5 6.7 10.9 12.2 11.4 11.6 12.7 14.7 7.1 17.1 l-3.3 1.4 -11.8 -11.8z"/>
 </g>
</svg>