<?xml version="1.0" encoding="utf-8"?>
<!DOCTYPE svg PUBLIC "-//W3C//DTD SVG 20010904//EN" "http://www.w3.org/TR/2001/REC-SVG-20010904/DTD/svg10.dtd">
<svg version="1.0" xmlns="http://www.w3.org/2000/svg" width="240px" height="240px" viewBox="0 0 240 240" preserveAspectRatio="xMidYMid meet">
 <g fill="#000000">
  <path d="M27 220.4 l0 -19.6 -3.4 -3.9 c-3.6 -4.2 -4.9 -8.2 -3.9 -11.9 0.7 -2.5 22.4 -32.2 27.8 -38 1.8 -1.9 3.6 -4.6 4 -6 1.1 -4.1 6.4 -11.3 10.5 -14.4 l3.8 -2.8 -2.4 -5.3 c-5.3 -11.5 -6.4 -19 -6.4 -43 0 -25 1.2 -32.5 7.2 -43.8 4.6 -8.7 15.5 -19.4 24.6 -24.1 13.3 -6.9 19.5 -7.6 67.6 -7.6 l41.8 0 -0.4 12.8 c-0.5 14.2 -1.9 19.7 -7.1 28.4 l-3.5 5.6 1.6 5.4 c2.4 8.2 2.3 45 -0.1 53.8 -2.4 8.5 -7.9 19.8 -12.3 24.8 -1.9 2.2 -3.4 4.7 -3.4 5.5 0 0.8 2.4 2.3 6 3.6 14.1 5.2 27.5 17.2 34.5 31 6 12 6.6 16 7.2 43.9 l0.5 25.2 -97.1 0 -97.1 0 0 -19.6z m176 -11.7 c0 -14.3 -1.1 -20.1 -5.7 -29.2 -3.5 -6.8 -13.2 -16.7 -20.2 -20.4 -10.4 -5.5 -15 -6.1 -52.3 -6.1 l-33.8 0 0 -2.4 c0 -5.8 -9 -13.6 -14.2 -12.3 -4 1 -8.5 5.9 -9.9 10.8 -0.7 2.6 -2.9 6.2 -5.4 8.9 -5 5.2 -21.5 27.4 -21.5 28.8 0 0.5 0.9 1.7 2 2.7 1.8 1.7 2 3.1 2 17.2 l0 15.3 79.5 0 79.5 0 0 -13.3z m-70.2 -70.2 c17.8 -4.2 32.2 -17.5 38.4 -35.3 2.1 -6.2 2.3 -8.1 2.1 -24.5 -0.2 -16 -0.5 -18.5 -2.8 -25.3 -3.3 -9.9 -3.2 -11.8 1 -16.7 4 -4.6 8.5 -13.5 8.5 -16.6 0 -2.1 -0.3 -2.1 -33.9 -2.1 -37 0 -40.3 0.4 -50.3 6.3 -9.1 5.3 -17.5 16.6 -20.2 27.2 -2.2 8.3 -2.2 40.7 -0.1 49 4.8 18.1 19.9 33 38.5 37.9 7.1 1.9 11.1 1.9 18.8 0.1z"/>
  <path d="M93 98 c-1.7 -1.7 -2 -3.3 -2 -11.5 0 -8.8 0.2 -9.8 2.5 -12 4.5 -4.6 15.2 -3 17.5 2.6 1.9 4.5 0.9 18.2 -1.4 20.8 -2.7 3 -13.6 3.1 -16.6 0.1z"/>
  <path d="M138.1 97.4 c-2.9 -3.7 -3.1 -19 -0.3 -22.4 2.8 -3.4 11.7 -4 15.5 -1 2.6 2.1 2.7 2.4 2.7 12.1 0 12.5 -1 13.9 -9.9 13.9 -5.2 0 -6.2 -0.3 -8 -2.6z"/>
 </g>
 <g fill="#383838">
  <path d="M41 209.8 l0 -15.2 -3.6 -3.7 -3.6 -3.7 11.5 -15.5 c6.3 -8.5 12 -15.8 12.6 -16.1 0.7 -0.5 1.1 0.4 1.1 2.6 0 2.5 -1.6 5.4 -6.5 11.8 l-6.4 8.5 2.1 2.3 c1.5 1.5 2.5 1.9 3.2 1.2 0.5 -0.5 2.5 -1 4.3 -1 l3.3 0 0 22 0 22 -9 0 -9 0 0 -15.2z"/>
  <path d="M61 200.2 c0 -18 0.3 -25.1 1.2 -26 0.7 -0.7 2.6 -1.2 4.3 -1.2 2.8 0 6.1 2.9 27.8 24.6 13.6 13.6 24.7 25.3 24.7 26 0 1.2 -5.1 1.4 -29 1.4 l-29 0 0 -24.8z"/>
  <path d="M129 223.3 c0 -1 11 -12.8 24.5 -26.3 l24.5 -24.5 -9.5 -9.5 c-8.7 -8.7 -11.5 -13 -8.2 -13 3.8 0.1 14.8 3.5 19.8 6.1 7 3.7 16.7 13.6 20.2 20.4 4.8 9.6 5.7 14.7 5.7 32.2 l0 16.3 -38.5 0 c-35.9 0 -38.5 -0.1 -38.5 -1.7z"/>
  <path d="M61.9 151.3 c0.5 -1 1.7 -3.9 2.6 -6.6 1.7 -4.9 7 -9.7 10.7 -9.7 2.7 0 2.3 3.8 -0.5 4.5 -2.8 0.7 -7.7 7.9 -7.7 11.2 0 1.9 -0.5 2.3 -3 2.3 -2.6 0 -2.9 -0.3 -2.1 -1.7z"/>
  <path d="M88.9 145.5 c-0.9 -3.2 -1.9 -4.5 -3.1 -4.5 -1 0 -1.8 -0.4 -1.8 -1 0 -0.5 -0.9 -1 -2 -1 -1.3 0 -2 -0.7 -2 -2 0 -2.6 2.5 -2.6 6.8 0 5.9 3.6 9.7 13 5.3 13 -1.4 0 -2.2 -1.2 -3.2 -4.5z"/>
  <path d="M112.3 141.8 c-2.6 -0.5 -4.3 -1.5 -4.3 -2.4 0 -1.6 1.5 -1.7 8.4 -0.8 3.6 0.5 4.6 1.1 4.6 2.5 0 2.1 -1.9 2.3 -8.7 0.7z"/>
  <path d="M126 141.3 c0 -1.5 1.3 -2.1 6.3 -3.2 10.7 -2.3 14 -2.5 13.5 -1 -0.5 1.6 -8.3 4.4 -15 5.4 -4.3 0.7 -4.8 0.5 -4.8 -1.2z"/>
  <path d="M99 136.8 c-12.3 -6.3 -22.9 -19.8 -26.5 -33.3 -1.9 -7.6 -1.9 -8.5 0.5 -8.5 1.2 0 2 0.7 2 1.8 0 2.5 4.3 14.5 5.7 16 0.7 0.7 1.3 2 1.3 2.8 0 0.8 0.5 1.4 1 1.4 0.6 0 1 1.1 1 2.5 0 1.8 0.5 2.5 1.8 2.5 2.3 0 6.2 4 6.2 6.3 0 1.1 0.8 1.7 2.5 1.7 1.6 0 2.5 0.6 2.5 1.5 0 0.8 0.9 1.5 2 1.5 3.7 0 7 2.2 7 4.7 0 1.2 -0.2 2.3 -0.4 2.3 -0.2 0 -3.2 -1.5 -6.6 -3.2z"/>
  <path d="M149 133.5 c0 -1.8 0.5 -2.5 2 -2.5 1.1 0 2 -0.7 2 -1.5 0 -1 1.1 -1.5 3.5 -1.5 1.9 0 3.5 0.2 3.5 0.5 0 0.7 -9.2 7.5 -10.1 7.5 -0.5 0 -0.9 -1.1 -0.9 -2.5z"/>
  <path d="M162 122.6 c0 -2.9 0.4 -3.6 2 -3.6 1.6 0 2 -0.7 2 -3 0 -2 0.5 -3 1.5 -3 1 0 1.5 -1 1.5 -3 0 -2.5 0.4 -3 2.5 -3 l2.5 0 -1.5 3.7 c-1.9 4.5 -7 12.7 -9.1 14.3 -1.2 1.1 -1.4 0.7 -1.4 -2.4z"/>
  <path d="M172.4 98.9 c0.3 -3.4 0.6 -10.9 0.6 -16.5 0 -8.4 0.3 -10.4 1.5 -10.4 2.1 0 2.9 5.9 2.2 17.9 -0.7 12.3 -1.4 15.1 -3.5 15.1 -1.2 0 -1.4 -1 -0.8 -6.1z"/>
  <path d="M94 96.5 l0 -3.5 2 2 c1.1 1.1 2.7 2 3.5 2 0.8 0 1.5 0.7 1.5 1.5 0 1 -1.1 1.5 -3.5 1.5 -3.3 0 -3.5 -0.2 -3.5 -3.5z"/>
  <path d="M146 98.6 c0 -0.8 1.1 -1.7 2.5 -2 3.5 -0.9 4.6 -3.7 4.3 -11.3 -0.3 -5.8 -0.6 -6.8 -3 -8.6 -2.2 -1.6 -3.1 -1.8 -5.7 -0.9 -2.9 1 -3.1 0.9 -3.1 -1.4 0 -2.1 0.5 -2.4 3.5 -2.4 1.9 0 3.5 0.5 3.5 1 0 0.6 1.6 1 3.5 1 2.8 0 3.5 0.4 3.5 2 0 1.1 0.5 2 1 2 1.1 0 1.4 13 0.4 16.8 -0.4 1.2 -1.3 2.2 -2 2.2 -0.8 0 -1.4 0.7 -1.4 1.5 0 1 -1.1 1.5 -3.5 1.5 -2.3 0 -3.5 -0.5 -3.5 -1.4z"/>
  <path d="M137 97.1 c-1.6 -3 -1.3 -8.1 0.5 -8.1 0.8 0 1.5 0.7 1.5 1.6 0 0.8 1.4 2.9 3 4.6 1.7 1.6 3 3.1 3 3.4 0 0.2 -1.6 0.4 -3.5 0.4 -2.4 0 -3.7 -0.6 -4.5 -1.9z"/>
  <path d="M108.3 91.5 c0.6 -1.9 1.6 -3.5 2.4 -3.5 0.8 0 1.3 1.3 1.3 3.5 0 3 -0.3 3.5 -2.4 3.5 -2.3 0 -2.4 -0.2 -1.3 -3.5z"/>
  <path d="M108.2 80.6 c-2.5 -6.7 -11 -7.1 -13.5 -0.6 -1.6 4.2 -3.7 3.9 -3.7 -0.5 0 -2.8 0.4 -3.5 2 -3.5 1.3 0 2 -0.7 2 -2 0 -1.8 0.7 -2 6 -2 5 0 6.3 0.4 8.5 2.5 1.7 1.8 2.5 3.7 2.5 6 0 4.5 -2.2 4.6 -3.8 0.1z"/>
  <path d="M172 60 c0 -1.1 -0.9 -4.3 -2 -7.2 -2.4 -6.3 -2.6 -10.8 -0.6 -10.8 0.9 0 1.6 -1.2 1.8 -3.2 0.2 -2.5 0.8 -3.4 2.6 -3.6 1.7 -0.3 2.2 -1 2.2 -3.2 0 -1.6 0.7 -3.5 1.4 -4.3 0.8 -0.8 1.8 -3.8 2.2 -6.6 0.5 -4.2 1 -5.1 2.6 -5.1 1.8 0 2 0.4 1.3 4.8 -0.9 6 -4.5 13.7 -8.9 18.8 l-3.4 4 2.4 6.9 c3 8.8 3.1 11.5 0.4 11.5 -1.3 0 -2 -0.7 -2 -2z"/>
  <path d="M71 56.2 c0 -6.7 6.5 -21.6 11.3 -25.9 1.6 -1.5 1.7 -1.4 1.7 2 0 3 -0.4 3.7 -2 3.7 -1.4 0 -2 0.7 -2 2.3 0 1.2 -1.1 4.9 -2.5 8.2 -1.3 3.3 -2.5 7.2 -2.5 8.8 0 2 -0.5 2.7 -2 2.7 -1.3 0 -2 -0.7 -2 -1.8z"/>
  <path d="M86.6 25.9 c2.8 -3.1 9.7 -6.9 16.5 -9 7.6 -2.4 8.9 -2.4 8.9 0.1 0 1.6 -0.9 2.1 -5 2.6 -2.7 0.4 -5 1 -5 1.4 0 0.4 -1.9 1.5 -4.2 2.6 -2.4 1 -4.7 2.4 -5.1 3.1 -0.4 0.7 -2.4 1.3 -4.4 1.3 -3.6 0 -3.6 0 -1.7 -2.1z"/>
 </g>
 <g fill="#8e562e">
  <path d="M112.3 141.5 c-7.1 -1.5 -18.9 -7.4 -22.4 -11.1 l-2.2 -2.4 3 0 c1.7 0 5.6 1.5 8.9 3.5 17.2 10.4 32.7 9.9 51.2 -1.6 2.7 -1.6 12.2 -10.9 12.2 -11.9 0 -0.3 0.9 -1.5 1.9 -2.7 2.1 -2.2 7.1 -15.2 7.1 -18.4 0 -1.3 0.7 -1.9 2.1 -1.9 2 0 2.1 0.4 1.4 4.7 -3 20 -20 37.4 -41 41.8 -8.5 1.8 -14 1.8 -22.2 0z"/>
  <path d="M82.4 122.7 c-5.8 -7.1 -11.4 -21.3 -11.4 -28.9 0 -2.1 0.5 -2.8 2 -2.8 1.6 0 2 0.7 2 3.1 0 3.7 4.7 17.8 6.6 19.7 0.8 0.7 1.4 1.8 1.4 2.4 0 0.6 0.7 1.6 1.6 2.2 1 0.8 1.4 2.3 1.2 4.6 l-0.3 3.5 -3.1 -3.8z"/>
  <path d="M140.3 100.3 c-0.7 -0.2 -1.3 -1.1 -1.3 -1.9 0 -0.8 -0.7 -1.4 -1.5 -1.4 -1 0 -1.5 -1.1 -1.5 -3.5 0 -2.4 0.5 -3.5 1.5 -3.5 0.8 0 1.5 0.7 1.5 1.5 0 2.6 3.8 5.5 7.3 5.5 3.8 0 6.2 -2.1 7.2 -6.2 1.1 -4.1 3.5 -3.6 3.5 0.8 0 4.5 -1.5 7.4 -4 7.4 -1.1 0 -2 0.5 -2 1 0 1 -8.4 1.3 -10.7 0.3z"/>
  <path d="M153.2 80.6 c-2.5 -6.7 -11 -7.1 -13.5 -0.6 -1.6 4.2 -3.7 3.9 -3.7 -0.5 0 -5.5 2.7 -7.5 10.2 -7.5 5.5 0 6.5 0.3 8.5 2.7 1.4 1.6 2.3 3.9 2.3 6 0 4.4 -2.2 4.3 -3.8 -0.1z"/>
  <path d="M71 67.7 c0 -5.7 0.5 -12.8 1 -15.8 3.3 -17.1 16.3 -30.9 33.5 -35.5 3.7 -1 14.3 -1.4 41.8 -1.4 l36.8 0 -0.6 4.7 c-0.9 6.3 -4.6 14.3 -9 19.8 l-3.7 4.4 2.3 5.8 c1.6 4.3 2.3 8.7 2.7 17.1 l0.5 11.2 -5.2 0 -5.1 0 0 -13 c0 -7.1 -0.3 -13 -0.7 -13 -0.5 0 -2.6 0.7 -4.8 1.5 -2.4 0.8 -7.9 1.4 -13.8 1.5 l-9.7 0 2 4 c1.1 2.1 2 5.6 2 7.6 l0 3.7 -7.7 -0.5 c-9.6 -0.7 -15.3 -3.1 -22.6 -9.8 l-5.5 -5 -9.7 0.5 c-12.9 0.6 -13.3 1 -13.7 12.9 l-0.3 9.1 -5.2 0.3 -5.3 0.3 0 -10.4z"/>
 </g>
 <g fill="#757575">
  <path d="M56 204.5 l0 -20.6 -3 2.3 -3 2.2 -4.5 -4.4 c-2.5 -2.5 -4.3 -5 -4.1 -5.6 0.3 -0.7 4.3 -6.4 9 -12.7 l8.6 -11.5 7.5 7.7 c5.8 6 7.5 8.4 7.5 10.7 0 4.1 1 7.4 2.3 7.4 1.5 0 13.7 12.2 13.7 13.8 0 0.6 0.6 1.2 1.3 1.2 1.5 0 13.7 12.2 13.7 13.8 0 0.7 0.6 1.2 1.3 1.2 2.1 0 11.7 10.5 11.7 12.8 0 1.2 -0.5 2.2 -1.1 2.2 -0.6 0 -12.2 -11 -25.7 -24.5 -19.3 -19.3 -24.8 -24.2 -25.9 -23.4 -1 0.9 -1.3 6.2 -1.3 24.5 l0 23.4 -4 0 -4 0 0 -20.5z"/>
  <path d="M180 172.3 c0 -3.6 0 -3.6 2 -1.8 1.9 1.7 1.9 1.9 0.4 3.7 -2.3 2.4 -2.4 2.4 -2.4 -1.9z"/>
  <path d="M158 152 c0 -1.3 0.7 -2 1.8 -2 1.1 0 2.7 0.9 3.7 2 1.8 2 1.7 2 -1.8 2 -3 0 -3.7 -0.4 -3.7 -2z"/>
  <path d="M90 150.7 c0 -3.7 -5 -10.5 -8.3 -11.3 -3.4 -0.7 -11.7 1.6 -11.7 3.3 0 2.6 -2.4 6.3 -4.2 6.3 -4.1 0 -0.3 -8.5 5.4 -12.1 2.5 -1.5 4.5 -1.9 8.4 -1.6 6.9 0.5 10.9 3.5 13.1 9.8 1 2.7 2.3 4.9 3 4.9 0.7 0 1.3 0.7 1.3 1.5 0 1 -1.1 1.5 -3.5 1.5 -3 0 -3.5 -0.3 -3.5 -2.3z"/>
 </g>
 <g fill="#e3008c">
  <path d="M84 118.2 c0 -2.1 1.1 -7.1 2.4 -11 l2.5 -7.2 -6.5 0 -6.4 0 0 -3.3 c0 -1.8 3.1 -12.5 6.8 -23.7 l6.9 -20.5 9.2 -0.3 9.2 -0.3 6.1 5.5 c3.4 3.1 6.7 5.6 7.5 5.6 1.5 0 1.7 2.8 0.3 6.4 l-1 2.6 6.5 0 6.5 0 0 3.3 c0 2.9 -2.3 5.5 -21.8 25 -19.3 19.3 -22.1 21.7 -25 21.7 -3 0 -3.2 -0.2 -3.2 -3.8z m22.9 -23.8 c3.2 -4.1 3 -13.6 -0.4 -16.9 -3 -3.1 -7.1 -3.2 -10.2 -0.3 -2 1.8 -2.3 3.1 -2.3 8.8 0 8.4 1.6 11 7 11 3 0 4.3 -0.6 5.9 -2.6z"/>
 </g>
 <g fill="#3a96dd">
  <path d="M91.6 200.1 c-23.6 -23.6 -24.8 -24.9 -22.7 -26.1 2.1 -1.1 2.1 -1.3 0.7 -2.9 -1.4 -1.6 -1.3 -2 2.2 -5.3 2 -2 5.1 -3.9 6.9 -4.3 1.8 -0.3 4.3 -1.5 5.7 -2.6 1.8 -1.4 3.7 -1.9 6.2 -1.7 l3.6 0.3 14.8 28.8 14.8 28.9 16.5 -32.4 c13.2 -25.9 16.9 -32.4 18.7 -32.6 1.6 -0.3 4.9 2.3 13.1 10.4 6 5.9 10.9 11.3 10.9 11.8 0 0.6 -11.6 12.7 -25.8 26.9 l-25.7 25.7 -7.5 0 -7.5 0 -24.9 -24.9z"/>
 </g>
 <g fill="#f7894a">
  <path d="M111.5 128.2 c-4.8 -3 -5.6 -4.6 -5.3 -9.9 l0.3 -4.8 5.4 -0.3 c3.5 -0.2 5.9 0.2 7 1.1 3 2.6 5.3 2.8 8.8 0.7 2.2 -1.3 5.2 -2 8.3 -2 5.4 0 6 0.7 6 7 0 3.3 -0.6 4.3 -3.7 6.7 -3.3 2.6 -4.4 2.8 -13.7 3.1 -8.5 0.2 -10.6 0 -13.1 -1.6z"/>
  <path d="M83 119.7 c0 -1.9 1.1 -6.7 2.5 -10.7 1.4 -4 2.5 -7.5 2.5 -7.7 0 -0.2 -2.7 -0.3 -6 -0.3 l-6 0 0 -4.3 c0 -2.4 1.1 -7.6 2.4 -11.5 l2.5 -7.2 -3 0 c-3.3 0 -4 -2.5 -0.9 -3.3 1.1 -0.3 2 -1.2 2 -2.1 0 -1.9 3 -2.2 3.1 -0.3 0 0.6 1.4 -2.6 3 -7.2 1.6 -4.7 2.8 -8.6 2.6 -8.7 -0.8 -0.8 -4.7 1 -4.7 2.2 0 0.8 -0.9 1.4 -2 1.4 -2.6 0 -2.6 -3.1 0 -5.5 2.6 -2.3 12 -3.4 12 -1.4 0 0.8 -3.2 10.9 -7 22.4 -3.8 11.5 -7 21.1 -7 21.2 0 0.2 3.2 0.3 7 0.3 5.1 0 7 0.4 7 1.3 0 0.7 -1.3 5.3 -3 10.2 -3.6 10.7 -3.7 11.5 -0.6 8.6 l2.4 -2.2 -1.1 4 c-1 3.7 -1.4 4.1 -4.4 4.1 -3.1 0 -3.3 -0.2 -3.3 -3.3z"/>
  <path d="M115.5 105.5 c-1.8 -1.8 -2.5 -3.5 -2.5 -6.5 l0 -4 10.5 0 10.5 0 0 4.4 c0 6.1 -3.1 8.6 -10.7 8.6 -4.4 0 -5.8 -0.5 -7.8 -2.5z"/>
  <path d="M117 73.7 c0 -0.7 0.7 -3.5 1.6 -6.1 1.8 -5.1 1.4 -5.1 8.9 -2.2 5.4 2.1 10.9 2.1 10.1 0.1 -0.4 -1 0.1 -1.5 1.4 -1.5 1.6 0 2 0.7 2 3.6 l0 3.7 -6.7 -0.7 c-3.8 -0.4 -6.9 -1.1 -7.1 -1.6 -0.9 -2.4 -4.1 -0.8 -5.2 2.5 -0.8 2.4 -1.8 3.5 -3.1 3.5 -1 0 -1.9 -0.6 -1.9 -1.3z"/>
  <path d="M132.8 55.4 c-2.5 -2.5 -0.4 -3.2 11.5 -3.6 11.3 -0.3 12.6 -0.5 18.5 -3.5 l6.2 -3.1 0 2.4 c0 1.9 -0.5 2.4 -2.5 2.4 -1.6 0 -2.5 0.6 -2.5 1.5 0 1 -1 1.5 -2.9 1.5 -1.6 0 -3.1 0.5 -3.3 1.1 -0.5 1.4 -23.9 2.6 -25 1.3z"/>
 </g>
 <g fill="#ffc83d">
  <path d="M111.5 189.5 c-2.7 -0.8 -5.3 -1.4 -5.6 -1.5 -0.3 0 -3.8 -6.3 -7.8 -14.1 -5.2 -9.9 -7.7 -13.9 -8.7 -13.5 -1.9 0.7 -1.8 -2.3 0.2 -8.5 1.6 -4.7 3.4 -6.6 3.4 -3.4 0 1.3 4.4 1.5 34 1.5 18.7 0 34 0.3 34 0.8 0 0.4 -4.2 8.8 -9.3 18.7 -8.9 17.3 -9.4 18.1 -13.2 19.4 -6 2 -21 2.4 -27 0.6z"/>
  <path d="M108 139.7 c-17 -5.8 -28 -16.6 -33.8 -33.1 -1.9 -5.4 -2.6 -9.9 -3 -19.3 l-0.5 -12.3 4.2 0 4.1 0 0 -9 c0 -11.2 1.3 -13 9 -13 2.7 0 5 0.1 5 0.3 0 0.1 -3.1 9.7 -7 21.2 -3.8 11.5 -7 21.5 -7 22.2 0 0.9 2 1.3 7 1.3 3.9 0 7 0.1 7 0.3 0 0.2 -1.6 5 -3.5 10.7 -1.9 5.7 -3.4 10.5 -3.2 10.6 0.2 0.2 10.4 -9.8 22.7 -22.1 l22.5 -22.5 -7.3 0 c-3.9 0 -7.2 -0.2 -7.2 -0.4 0 -0.3 1.9 -6 3.5 -10.3 0.3 -0.8 1.7 -0.7 5.2 0.6 6 2.3 12.3 3.3 12.3 2 0 -0.5 -1.3 -3.6 -3 -6.9 -1.6 -3.3 -3 -6.1 -3 -6.3 0 -0.2 4.8 -0.6 10.8 -0.9 10.4 -0.5 12.9 -1.2 25 -6.5 0.9 -0.4 1.2 2.8 1.2 14.1 l0 14.6 3.5 0 3.5 0 0 10.8 c0 18.6 -4.1 29.5 -15.4 40.7 -11.4 11.3 -21.7 15.5 -37.6 15.5 -6.1 0 -10.3 -0.7 -15 -2.3z m24.5 -14.3 c4.7 -2.2 6.8 -4.8 6 -7.3 -0.8 -2.7 -3.4 -2.7 -8 0 -4.2 2.5 -11.4 2.2 -14.4 -0.5 -2.3 -2.1 -6 -2.1 -6.8 0 -0.8 2.2 0.6 4.4 4.7 7.2 4 2.7 13.4 3 18.5 0.6z m-4.1 -22.5 c4.7 -3.7 3.5 -4.9 -4.9 -4.9 -8.2 0 -8.9 0.7 -5 4.5 3 3 6.4 3.2 9.9 0.4z m21.5 -6.4 c3.6 -1.8 4.1 -3.2 4.1 -10.4 0 -7.5 -2.5 -11.1 -7.6 -11.1 -5.7 0 -7.4 2.7 -7.4 11.4 0 6.9 0.2 7.6 2.6 9.5 3.2 2.5 4.6 2.6 8.3 0.6z"/>
 </g>
 <g fill="#cccccc">
  <path d="M63.7 165.2 c-3.7 -3.7 -6.7 -7.2 -6.7 -7.8 0 -0.5 1.6 -2.5 3.5 -4.4 1.9 -1.9 3.5 -4 3.5 -4.7 0 -0.8 0.9 -3.2 2.1 -5.4 3.8 -7.5 14.7 -10 21.4 -4.7 5 3.9 7.1 11 5 17.2 -0.8 2.2 -1.1 4.4 -0.8 4.9 0.3 0.6 0.1 0.7 -0.6 0.3 -0.6 -0.4 -2.3 0.2 -3.7 1.3 -1.4 1.1 -3.9 2.3 -5.7 2.6 -1.8 0.4 -3.9 1.3 -4.8 2.1 -1.3 1.2 -2.2 0.6 -6.9 -4.1 -3 -3 -5.9 -5.5 -6.4 -5.5 -0.6 0 1.6 2.7 4.8 5.9 5.1 5.1 5.7 6.2 4.6 7.5 -0.7 0.9 -1.5 1.6 -1.9 1.6 -0.4 0 -3.7 -3 -7.4 -6.8z"/>
 </g>
 <g fill="#e5e5e5">
  <path d="M112.8 202.7 l-10.6 -21.3 4.4 2.2 c2.5 1.3 7 2.8 9.9 3.4 3.9 0.8 5.5 1.6 5.5 2.7 0 1.3 -0.9 1.5 -5 1 -2.7 -0.3 -5 -0.3 -4.9 0.1 0 0.4 2.6 5.9 5.8 12.2 l5.9 11.5 6 -12.2 6.1 -12.1 -5.4 0.5 c-4.6 0.5 -5.5 0.3 -5.5 -1 0 -1.1 1.7 -1.9 5.8 -2.7 3.1 -0.7 7.4 -2.1 9.4 -3.1 2.1 -1.1 4 -1.9 4.3 -1.9 0.3 0 -4.2 9.4 -10 21 -5.8 11.6 -10.6 21 -10.8 21 -0.1 0 -5 -9.6 -10.9 -21.3z"/>
  <path d="M64.2 164.7 l-7.2 -7.3 3.5 -3.4 3.5 -3.4 7.3 7.2 7.2 7.2 -3.5 3.5 -3.5 3.5 -7.3 -7.3z"/>
 </g>
 <g fill="#f2f2f2">
  <path d="M113.3 202.6 l-10.2 -20.5 5.4 2.5 c9.9 4.6 25.1 4 33.3 -1.2 1.2 -0.8 2.2 -1.2 2.2 -0.9 0 0.7 -19.9 40.5 -20.3 40.5 -0.1 0 -4.8 -9.2 -10.4 -20.4z"/>
 </g>
</svg>