<?xml version="1.0" encoding="utf-8"?>
<!DOCTYPE svg PUBLIC "-//W3C//DTD SVG 20010904//EN" "http://www.w3.org/TR/2001/REC-SVG-20010904/DTD/svg10.dtd">
<svg version="1.0" xmlns="http://www.w3.org/2000/svg" width="240px" height="240px" viewBox="0 0 240 240" preserveAspectRatio="xMidYMid meet">
 <g fill="#000000">
  <path d="M33.1 238 c-9.6 -2.6 -14.5 -5.5 -21.4 -12.9 -5.9 -6.4 -8.7 -12.3 -10.7 -22.6 -0.8 -4.3 -1 -30.9 -0.8 -93.5 l0.3 -87.5 2.4 -5.2 c2.8 -6.4 8.1 -11.4 14.7 -13.9 4.7 -1.8 9.2 -1.9 102.4 -1.9 93.2 0 97.7 0.1 102.4 1.9 6.6 2.5 11.9 7.5 14.7 13.9 l2.4 5.2 0.3 87.5 c0.3 91.2 0.2 93.5 -4 104.7 -2.3 6.2 -11 16.1 -17.3 19.8 -2.3 1.4 -7.7 3.4 -12 4.5 -7.5 1.9 -11 2 -86.9 1.9 -74.9 0 -79.5 -0.1 -86.5 -1.9z m173.4 -18.7 c2.2 -1.2 5.6 -3.9 7.6 -6 7 -7.3 9 -14.3 6.5 -22.1 -2.6 -7.8 -7.3 -12.3 -18.6 -18.1 l-10 -5.2 0 -16.3 c0 -22.3 1.2 -21 -20.4 -21.4 l-16.6 -0.3 0 -3 c0 -2 1.2 -4.5 3.4 -7.3 3.8 -4.5 9.6 -16 9.6 -18.8 0 -1.4 0.8 -1.8 3.5 -1.8 l3.5 0 0 8.4 c0 4.7 0.4 8.8 1 9.1 0.6 0.4 1 -3.7 1 -11.4 l0 -12.1 -3.5 0 -3.5 0 0 -10 0 -10 3.5 0 3.5 0 -0.1 -5.7 c0 -3.2 -0.3 -5.2 -0.6 -4.5 -0.2 0.6 -1.9 1.2 -3.7 1.2 -3.1 0 -3.3 -0.2 -4.5 -5.3 -0.6 -2.9 -2.5 -8.2 -4.2 -11.8 -2.8 -5.8 -3 -7 -2.4 -12.9 0.4 -3.7 0.2 -7.6 -0.4 -9 -0.8 -2.2 -1 -1.8 -1 2.8 -0.1 5.2 -0.1 5.2 -3.3 5.2 -3.9 0 -8.8 -4.3 -8.8 -7.7 0 -2 -0.5 -2.3 -3.9 -2.3 -4.6 0 -10.2 -1.7 -11.8 -3.7 -0.9 -1.2 -3.9 -1.4 -17.4 -0.9 -14.9 0.6 -16.5 0.8 -18.6 2.8 -1.3 1.2 -2.3 2.7 -2.3 3.4 0 0.7 -1.7 2.9 -3.7 4.8 -2.8 2.6 -4.7 3.6 -7 3.6 l-3.3 0 0 -6.9 c0 -3.9 -0.5 -7.3 -1 -7.6 -0.6 -0.4 -1 3.8 -1 11.8 0 11.2 -0.3 13.1 -2.5 17.9 -1.3 2.9 -3 7.7 -3.6 10.5 -1.2 5.1 -1.4 5.3 -4.5 5.3 -1.8 0 -3.5 -0.6 -3.7 -1.2 -0.3 -0.7 -0.6 1.3 -0.6 4.5 l-0.1 5.7 3.5 0 3.5 0 0 10 c0 9.9 0 10.1 -3.1 12.8 -3.5 3.1 -4.9 9.7 -3 14.2 0.8 2.1 1 1.3 1 -4.2 l0.1 -6.8 3.3 0 c3 0 3.3 0.3 5 5.8 2.7 8.8 2.4 10.2 -2 10.2 -2 0 -3.3 0.3 -3 0.7 0.4 0.3 2.9 0.5 5.5 0.4 4.5 -0.1 5.1 0.1 8 3.8 2 2.5 3.2 5.1 3.2 7 l0 3.1 -14.7 0 c-14.2 0.1 -26.1 1.8 -23.5 3.4 1.7 1 1.6 17 -0.1 18.4 -0.6 0.6 -2.8 1.2 -4.7 1.5 -3 0.3 -2.8 0.4 1.3 0.5 l4.7 0.2 0 7 0 6.9 -10 5.2 c-11.3 5.8 -16 10.3 -18.6 18.1 -2.5 7.8 -0.5 14.8 6.5 22.1 3.6 3.9 7.5 6.4 12.1 7.8 1.4 0.4 39 0.7 83.5 0.6 l81 -0.2 4 -2.2z m-186.5 -76.8 c0 -7 -0.4 -11.5 -1 -11.5 -0.6 0 -1 4.5 -1 11.5 0 7 0.4 11.5 1 11.5 0.6 0 1 -4.5 1 -11.5z m15 -0.2 c0 -4.8 -0.3 -6.4 -1 -5.3 -1.6 2.4 -1.1 12 0.6 12 0.2 0 0.4 -3 0.4 -6.7z m187 0.2 c0 -2.2 -0.5 -4.7 -1 -5.5 -0.7 -1 -1 0.6 -1 5.5 0 4.9 0.3 6.5 1 5.5 0.5 -0.8 1 -3.3 1 -5.5z m-15.1 -0.2 c0 -4.9 -0.2 -5.4 -1 -3.3 -0.9 2.3 -0.4 9 0.6 9 0.3 0 0.5 -2.6 0.4 -5.7z m-177.9 -26.9 c0 -0.2 -1.5 -0.4 -3.2 -0.3 -2.7 0 -2.9 0.2 -1.3 0.8 1.8 0.8 4.5 0.4 4.5 -0.5z m21 -10.4 c0 -6.2 -0.4 -11.1 -1 -11.5 -0.6 -0.4 -1 3.7 -1 11.5 0 7.8 0.4 11.9 1 11.5 0.6 -0.4 1 -5.3 1 -11.5z m152 10.4 c0 -0.2 -1.5 -0.4 -3.2 -0.4 -2.3 0 -2.9 0.3 -1.9 0.9 1.2 0.8 5.1 0.4 5.1 -0.5z m20 -10.5 c0 -7.7 -0.4 -11.8 -1 -11.4 -1.9 1.1 -1.2 23.5 0.7 23.5 0.2 0 0.3 -5.4 0.3 -12.1z m-202.2 -3.6 l-0.4 -3.8 -0.8 3.8 c-0.5 2 -0.5 5.4 0 7.5 l0.8 3.7 0.4 -3.7 c0.2 -2.1 0.2 -5.5 0 -7.5z m187.1 3.7 c0 -1.9 -0.4 -4.4 -0.9 -5.5 -0.6 -1.4 -0.9 0.4 -0.9 5.5 0 5.1 0.3 6.9 0.9 5.5 0.5 -1.1 0.9 -3.6 0.9 -5.5z m-172.8 -3.2 c-0.8 -2.9 -0.9 -2.5 -0.9 3.2 0 5.7 0.1 6.1 0.9 3.3 0.6 -2.1 0.6 -4.5 0 -6.5z m157.8 3 c-0.1 -5.4 -0.2 -5.9 -1 -3.3 -0.8 2.7 -0.3 9.5 0.7 9.5 0.2 0 0.4 -2.8 0.3 -6.2z m-163.8 -10.7 c-1.2 -0.8 -5.1 -0.4 -5.1 0.5 0 0.2 1.5 0.4 3.3 0.4 2.2 0 2.8 -0.3 1.8 -0.9z m173.9 0.5 c0 -0.9 -3.9 -1.3 -5.1 -0.5 -1 0.6 -0.4 0.9 1.9 0.9 1.7 0 3.2 -0.2 3.2 -0.4z m-182 -27.1 c0 -7 -0.4 -11.5 -1 -11.5 -0.6 0 -1 4.5 -1 11.5 0 7 0.4 11.5 1 11.5 0.6 0 1 -4.5 1 -11.5z m15 0 c0 -7 -0.4 -11.5 -1 -11.5 -0.6 0 -1 4.5 -1 11.5 0 7 0.4 11.5 1 11.5 0.6 0 1 -4.5 1 -11.5z m172 0 c0 -7 -0.4 -11.5 -1 -11.5 -0.6 0 -1 4.5 -1 11.5 0 7 0.4 11.5 1 11.5 0.6 0 1 -4.5 1 -11.5z m15 0 c0 -7 -0.4 -11.5 -1 -11.5 -0.6 0 -1 4.5 -1 11.5 0 7 0.4 11.5 1 11.5 0.6 0 1 -4.5 1 -11.5z m-172 -0.2 c0 -4.8 -0.3 -6.4 -1 -5.3 -1.6 2.4 -1.1 12 0.6 12 0.2 0 0.4 -3 0.4 -6.7z m142 0.2 c0 -2.2 -0.5 -4.7 -1 -5.5 -0.7 -1 -1 0.6 -1 5.5 0 4.9 0.3 6.5 1 5.5 0.5 -0.8 1 -3.3 1 -5.5z m-163 -27.1 c0 -0.2 -1.5 -0.4 -3.2 -0.3 -2.7 0 -2.9 0.2 -1.3 0.8 1.8 0.8 4.5 0.4 4.5 -0.5z m30 0 c0 -0.2 -1.5 -0.4 -3.2 -0.3 -2.7 0 -2.9 0.2 -1.3 0.8 1.8 0.8 4.5 0.4 4.5 -0.5z m118 -10.5 c0 -7.7 -0.4 -11.8 -1 -11.4 -1.9 1.1 -1.2 23.5 0.7 23.5 0.2 0 0.3 -5.4 0.3 -12.1z m15 0 c0 -7.7 -0.4 -11.8 -1 -11.4 -1.9 1.1 -1.2 23.5 0.7 23.5 0.2 0 0.3 -5.4 0.3 -12.1z m25 10.5 c0 -0.2 -1.5 -0.4 -3.2 -0.4 -2.3 0 -2.9 0.3 -1.9 0.9 1.2 0.8 5.1 0.4 5.1 -0.5z m-197.2 -14.1 l-0.4 -3.8 -0.8 3.8 c-0.5 2 -0.5 5.4 0 7.5 l0.8 3.7 0.4 -3.7 c0.2 -2.1 0.2 -5.5 0 -7.5z m30 0 l-0.4 -3.8 -0.8 3.8 c-0.5 2 -0.5 5.4 0 7.5 l0.8 3.7 0.4 -3.7 c0.2 -2.1 0.2 -5.5 0 -7.5z m172.1 3.7 c0 -1.9 -0.4 -4.4 -0.9 -5.5 -0.6 -1.4 -0.9 0.4 -0.9 5.5 0 5.1 0.3 6.9 0.9 5.5 0.5 -1.1 0.9 -3.6 0.9 -5.5z m-187.8 -3.2 c-0.8 -2.9 -0.9 -2.5 -0.9 3.2 0 5.7 0.1 6.1 0.9 3.3 0.6 -2.1 0.6 -4.5 0 -6.5z m30 0 c-0.8 -2.9 -0.9 -2.5 -0.9 3.2 0 5.7 0.1 6.1 0.9 3.3 0.6 -2.1 0.6 -4.5 0 -6.5z m142.8 3 c-0.1 -5.4 -0.2 -5.9 -1 -3.3 -0.8 2.7 -0.3 9.5 0.7 9.5 0.2 0 0.4 -2.8 0.3 -6.2z m-178.8 -10.7 c-1.2 -0.8 -5.1 -0.4 -5.1 0.5 0 0.2 1.5 0.4 3.3 0.4 2.2 0 2.8 -0.3 1.8 -0.9z m30 0 c-1.2 -0.8 -5.1 -0.4 -5.1 0.5 0 0.2 1.5 0.4 3.3 0.4 2.2 0 2.8 -0.3 1.8 -0.9z m98.9 0.5 c0 -0.9 -3.9 -1.3 -5.1 -0.5 -1 0.6 -0.4 0.9 1.9 0.9 1.7 0 3.2 -0.2 3.2 -0.4z m60 0 c0 -0.9 -3.9 -1.3 -5.1 -0.5 -1 0.6 -0.4 0.9 1.9 0.9 1.7 0 3.2 -0.2 3.2 -0.4z"/>
  <path d="M89 97.3 c-1.9 -2.5 -2.1 -3.8 -1.8 -12 0.4 -11.7 1.3 -12.8 10.3 -12.8 9 0 9.9 1.1 10.3 12.8 0.3 8.2 0.1 9.5 -1.8 12 -1.9 2.4 -2.8 2.7 -8.5 2.7 -5.7 0 -6.6 -0.3 -8.5 -2.7z"/>
  <path d="M134 97.3 c-1.9 -2.5 -2.1 -3.8 -1.8 -12 0.4 -11.7 1.3 -12.8 10.3 -12.8 9 0 9.9 1.1 10.3 12.8 0.3 8.2 0.1 9.5 -1.8 12 -1.9 2.4 -2.8 2.7 -8.5 2.7 -5.7 0 -6.6 -0.3 -8.5 -2.7z"/>
 </g>
 <g fill="#8e562e">
  <path d="M45 159.1 c0 -1.5 -0.6 -1.9 -2.7 -1.8 -1.9 0.1 -2.8 -0.3 -3.1 -1.5 -0.3 -1.5 0.4 -1.8 3.2 -1.8 3.4 0 3.6 0.2 3.6 3.5 0 1.9 -0.2 3.5 -0.5 3.5 -0.3 0 -0.5 -0.9 -0.5 -1.9z"/>
  <path d="M210.8 157.3 c-3.4 -0.9 -2 -3.3 1.8 -3.3 2.8 0 3.5 0.3 3.2 1.7 -0.3 1.9 -2.1 2.4 -5 1.6z"/>
  <path d="M202.6 148.8 c-1 -3.8 -0.7 -4.8 1.4 -4.8 1.6 0 2 0.7 2 3.5 0 4 -2.4 4.9 -3.4 1.3z"/>
  <path d="M202 139.8 c0 -3 1.3 -5.8 2.6 -5.8 0.9 0 1.4 1.2 1.4 3.5 0 2.8 -0.4 3.5 -2 3.5 -1.1 0 -2 -0.6 -2 -1.2z"/>
  <path d="M189.2 132.5 c-1 -1.2 -4.6 -1.5 -18.2 -1.5 l-17 0 0 -3.5 c0 -1.9 0.5 -3.5 1 -3.5 0.6 0 1 -0.6 1 -1.4 0 -0.8 0.8 -2.1 1.8 -2.8 2.5 -1.8 9.1 -15.2 9.9 -20 0.6 -3.8 0.7 -3.9 4.2 -3.6 3.5 0.3 3.6 0.4 3.9 4.7 0.2 2.4 -0.1 4.7 -0.6 5 -0.5 0.3 -1.4 2 -2 3.6 -1 2.8 -1.1 2.7 -1.2 -2.5 l-0.1 -5.5 -1.3 4 c-1.9 5.9 -5.4 12.4 -9.2 17.2 l-3.4 4.2 16.6 0.3 c16 0.3 16.6 0.4 18.5 2.7 1 1.3 1.9 2.7 1.9 3.2 0 1.4 -4.4 1 -5.8 -0.6z"/>
  <path d="M42.2 131.3 c-2.5 -0.3 -3.2 -0.9 -3 -2.1 0.2 -1.1 1.2 -1.6 2.8 -1.5 2.9 0.3 1.9 0.3 23.2 -0.3 l16.8 -0.5 -3.1 -3.9 c-1.9 -2.3 -3.7 -3.6 -4.5 -3.3 -0.9 0.3 -1.4 -0.2 -1.4 -1.6 0 -1.7 0.6 -2.1 3.5 -2.1 2.1 0 3.5 0.5 3.5 1.3 0 0.7 0.9 1.8 2 2.5 1.1 0.7 2 1.9 2 2.7 0 0.8 0.5 1.5 1 1.5 0.6 0 1 1.6 1 3.5 l0 3.5 -15.2 0 c-8.4 0 -17.5 0.2 -20.3 0.4 -2.7 0.2 -6.5 0.2 -8.3 -0.1z"/>
  <path d="M209 129.6 c0 -1.5 4.5 -3 6 -2.1 2.4 1.5 0.9 3.5 -2.5 3.5 -2.3 0 -3.5 -0.5 -3.5 -1.4z"/>
  <path d="M66.9 110 c-0.7 -2.2 -1.6 -4 -2.1 -4 -0.9 0 -1.1 -5.1 -0.2 -7.4 0.4 -1 1.8 -1.6 3.8 -1.6 2.9 0 3.2 0.3 4.9 6 0.9 3.2 1.7 7.1 1.7 8.5 0 2.2 -0.4 2.5 -3.5 2.5 -3.1 0 -3.5 -0.3 -4.6 -4z m3.2 -2.9 l-1.6 -4.9 -0.3 3.5 c-0.4 4.3 0.3 6.3 2.1 6.3 1.1 0 1.1 -0.9 -0.2 -4.9z"/>
  <path d="M91.3 100 c-2.7 -1.1 -4.3 -4 -4.3 -7.9 0 -2.1 0.5 -3.1 1.5 -3.1 0.8 0 1.5 0.6 1.5 1.4 0 3 4.1 6.6 7.5 6.6 3.4 0 7.5 -3.6 7.5 -6.6 0 -0.8 0.7 -1.4 1.5 -1.4 2.2 0 1.9 6.2 -0.3 9 -1.4 1.8 -3.1 2.4 -7.3 2.6 -3 0.2 -6.4 0 -7.6 -0.6z"/>
  <path d="M136.3 100 c-2.7 -1.1 -4.3 -4 -4.3 -7.9 0 -2.1 0.5 -3.1 1.5 -3.1 0.8 0 1.5 0.6 1.5 1.4 0 3 4.1 6.6 7.5 6.6 3.4 0 7.5 -3.6 7.5 -6.6 0 -0.8 0.7 -1.4 1.5 -1.4 2.2 0 1.9 6.2 -0.3 9 -1.4 1.8 -3.1 2.4 -7.3 2.6 -3 0.2 -6.4 0 -7.6 -0.6z"/>
  <path d="M65.3 91.6 c1.3 -1 1.7 -2.8 1.7 -8.7 0 -6.5 -0.1 -7.1 -1.4 -5.4 -1.3 1.7 -1.4 0.7 -1.4 -8.8 0.1 -10.6 0.9 -14 2.4 -9.5 0.6 1.9 1 1 2.6 -4.5 1 -3.8 2.7 -8.6 3.8 -10.7 1.1 -2.2 2 -5.6 2 -7.8 0 -3.1 0.7 -4.5 4 -7.7 l4 -3.9 0 2.8 0 2.8 3.4 -2.9 c1.9 -1.5 3.9 -4 4.5 -5.5 2 -5.6 5 -6.3 25.4 -6.6 14.6 -0.2 18.6 0 19 1.1 0.3 0.7 2.4 1.9 4.7 2.6 3.5 1 4.4 1 5.1 0 0.6 -1.1 1.8 -0.8 5.6 1.1 4 2 4.4 2.5 2.6 2.8 -3 0.5 -2.9 1.3 0.7 4.7 l3 2.9 0 -2.9 0 -2.9 4.1 3.9 c3.3 3.3 4 4.5 3.6 7 -0.3 1.8 0.3 4.6 1.6 7 1.1 2.2 3.1 7.3 4.3 11.4 1.7 5.9 2.3 7 2.8 5.3 1.5 -4.5 2.3 -1 2.4 9.5 0 9.5 -0.1 10.5 -1.4 8.8 -1.3 -1.7 -1.4 -1.1 -1.4 5.3 0 5.7 0.3 7.2 1.5 7.2 0.8 0 1.5 0.7 1.5 1.5 0 1 -1.1 1.5 -3.5 1.5 -3.4 0 -3.5 -0.1 -3.5 -4 0 -3.9 -0.1 -4 -3.5 -4 l-3.5 0 0 -7.4 0 -7.4 -19.7 -0.4 c-21.9 -0.3 -22.7 -0.5 -30.4 -7.5 -4.7 -4.2 -8.3 -10.9 -9.4 -17.1 -0.6 -3.8 -0.9 -4.2 -2.8 -3.6 -8.8 2.7 -16.6 9.8 -19.7 18 -1.5 4.2 -2 7.9 -2 15.4 l0 10 -3.5 0 c-3.4 0 -3.5 0.1 -3.5 4 0 4 0 4 -3.7 4 -3.4 -0.1 -3.6 -0.2 -2 -1.4z"/>
  <path d="M87 80 c0 -3.3 0.3 -4 2 -4 1.3 0 2 -0.7 2 -2 0 -1.8 0.7 -2 6.5 -2 5.8 0 6.5 0.2 6.5 2 0 1.3 0.7 2 2 2 1.7 0 2 0.7 2 4 0 4.8 -2.5 5.6 -3.5 1.1 -0.8 -3.9 -2.9 -5.5 -7 -5.5 -4.1 0 -6.2 1.6 -7 5.5 -1 4.5 -3.5 3.7 -3.5 -1.1z"/>
  <path d="M132 80 c0 -3.3 0.3 -4 2 -4 1.3 0 2 -0.7 2 -2 0 -1.8 0.7 -2 6.5 -2 5.8 0 6.5 0.2 6.5 2 0 1.3 0.7 2 2 2 1.7 0 2 0.7 2 4 0 4.8 -2.5 5.6 -3.5 1.1 -0.8 -3.9 -2.9 -5.5 -7 -5.5 -4.1 0 -6.2 1.6 -7 5.5 -1 4.5 -3.5 3.7 -3.5 -1.1z"/>
  <path d="M54.7 82.3 c-1.8 -1.7 -0.5 -3.3 2.8 -3.3 4 0 4.9 2.4 1.3 3.4 -2.9 0.7 -3.3 0.7 -4.1 -0.1z"/>
  <path d="M180.8 82.3 c-3.4 -0.9 -2 -3.3 1.8 -3.3 2.8 0 3.5 0.3 3.2 1.7 -0.3 1.9 -2.1 2.4 -5 1.6z"/>
  <path d="M54 54.6 c0 -2.1 1.5 -2.8 4.5 -2 3.9 1 3.2 3.4 -1 3.4 -2.4 0 -3.5 -0.5 -3.5 -1.4z"/>
  <path d="M179 54.6 c0 -1.5 4.5 -3 6 -2.1 2.4 1.5 0.9 3.5 -2.5 3.5 -2.3 0 -3.5 -0.5 -3.5 -1.4z"/>
 </g>
 <g fill="#00bcf2">
  <path d="M42.7 224.3 c-0.9 -0.8 -0.9 -6.6 -0.1 -12.7 l0.7 -4.6 76.8 0 76.7 0 0.7 6.3 c0.4 3.5 0.5 7.4 0.3 8.8 l-0.3 2.4 -77.1 0.3 c-42.4 0.1 -77.4 -0.1 -77.7 -0.5z"/>
 </g>
 <g fill="#79db75">
  <path d="M45 158.6 c0 -1 -1.1 -1.4 -3.4 -1.3 -7.8 0.2 -11.6 -4.7 -11.6 -14.8 0 -10.3 3.9 -15.2 11.8 -14.6 2 0.1 4.7 0.3 6 0.4 2.6 0.2 2.8 1.9 1 7.7 -1.2 3.8 -3.8 5.6 -3.8 2.6 0 -2.1 -2.7 -3.8 -5 -3.1 -1.7 0.6 -2 1.5 -2 7 0 5.5 0.3 6.4 2 7 2.3 0.7 5 -1 5 -3.1 0 -0.8 0.7 -1.4 1.5 -1.4 1.2 0 1.5 1.5 1.5 7.5 0 6 -0.3 7.5 -1.5 7.5 -0.8 0 -1.5 -0.6 -1.5 -1.4z"/>
  <path d="M15.5 156.8 c-0.3 -0.8 -0.4 -7.7 -0.3 -15.3 l0.3 -14 3.5 0 3.5 0 0 15 0 15 -3.3 0.3 c-2 0.2 -3.4 -0.2 -3.7 -1z"/>
  <path d="M210.1 156.7 c-4.7 -1.6 -7.1 -5.3 -7.7 -11.8 -1 -10.1 3.3 -17 10.9 -17.2 7.9 -0.2 11.7 4.6 11.7 14.8 0 9.3 -2.5 13.1 -9.5 14.9 -1.1 0.2 -3.5 -0.1 -5.4 -0.7z m5.3 -7.3 c1.2 -0.5 1.6 -2.1 1.6 -6.9 0 -5.5 -0.3 -6.5 -2 -7 -3.4 -1.1 -5 1.2 -5 6.9 0 6.5 1.6 8.5 5.4 7z"/>
  <path d="M77.7 121 c-0.5 -1.1 -2.3 -1.5 -6.2 -1.5 -4.6 0 -5.9 -0.4 -8.2 -2.8 -2.6 -2.6 -2.8 -3.2 -2.8 -11.8 l0 -9 4.3 -3.9 c2.4 -2.2 4.7 -4 5.2 -4 0.6 0 1 4.1 0.9 9.8 -0.1 9.2 -0.2 9.5 -1.3 5.7 -1.5 -4.8 -2.4 -3 -1.6 3.3 0.4 3.5 1 4.8 2.3 5 1.5 0.3 1.8 0 1.2 -1.7 -0.6 -1.8 -0.4 -2 1.7 -1.2 3.2 1.2 6 6.3 5.6 10.3 -0.3 2.2 -0.6 2.8 -1.1 1.8z"/>
  <path d="M21.5 119.1 c-4.8 -2 -6 -4.8 -6 -14.2 0 -8.2 0.2 -9 2.6 -11.5 5.2 -5.1 14.7 -3.9 18.1 2.4 1.7 3.2 1.7 15.2 0 18.4 -2.6 4.8 -9.4 7 -14.7 4.9z m7.9 -8.7 c0.9 -2.3 0.7 -9.7 -0.3 -11.2 -0.4 -0.8 -1.9 -1.2 -3.2 -1 -2.1 0.3 -2.4 0.9 -2.7 5.7 -0.2 2.9 -0.1 6 0.2 6.7 0.7 1.9 5.2 1.8 6 -0.2z"/>
  <path d="M45 105 l0 -15.1 3.8 0.3 3.7 0.3 0 14.5 0 14.5 -3.7 0.3 -3.8 0.3 0 -15.1z"/>
  <path d="M172.5 118.9 c-0.4 -0.5 -0.5 -5 -0.3 -9.9 0.1 -4.8 0 -9.2 -0.4 -9.6 -0.5 -0.4 -0.8 0.4 -0.9 1.7 0 1.3 -0.4 3.3 -0.9 4.4 -0.6 1.3 -0.9 -1.6 -0.9 -8.2 -0.1 -8.5 0.2 -10.3 1.4 -10.3 0.8 0 1.5 0.7 1.5 1.5 0 1.1 1.1 1.5 4 1.5 l4 0 0 15 0 15 -3.4 0 c-1.9 0 -3.8 -0.5 -4.1 -1.1z"/>
  <path d="M192.8 118.3 c-1.5 -0.9 -3.3 -2.8 -4 -4.1 -1.7 -3.2 -1.7 -15.2 0 -18.4 3.4 -6.3 12.9 -7.5 18.1 -2.4 2.4 2.5 2.6 3.3 2.6 11.6 0 8.3 -0.2 9.1 -2.6 11.6 -3.4 3.4 -10.2 4.2 -14.1 1.7z m8.7 -13.3 c0 -6.1 -0.2 -6.5 -2.4 -6.8 -3 -0.5 -4.1 1.2 -4.1 6.5 0 6 0.8 7.5 3.9 7.1 2.5 -0.3 2.6 -0.5 2.6 -6.8z"/>
  <path d="M217.4 118.7 c-0.2 -0.7 -0.3 -7.4 -0.2 -14.8 l0.3 -13.4 3.8 -0.3 3.7 -0.3 0 15 0 15.1 -3.5 0 c-2 0 -3.8 -0.6 -4.1 -1.3z"/>
  <path d="M15.5 81.8 c-0.3 -0.8 -0.4 -7.7 -0.3 -15.3 l0.3 -14 3.5 0 3.5 0 0 15 0 15 -3.3 0.3 c-2 0.2 -3.4 -0.2 -3.7 -1z"/>
  <path d="M30.5 81.8 c-0.3 -0.8 -0.4 -7.7 -0.3 -15.3 l0.3 -14 3.5 0 3.5 0 0 15 0 15 -3.3 0.3 c-2 0.2 -3.4 -0.2 -3.7 -1z"/>
  <path d="M53.5 82.1 c-6.2 -1.9 -8.5 -5.8 -8.5 -14.4 0 -7.6 1.7 -11.7 5.7 -13.8 3.2 -1.7 8.8 -1.5 11.9 0.6 7 4.6 7.2 21.5 0.2 25.8 -3 1.9 -6.8 2.6 -9.3 1.8z m5.3 -8.3 c0.7 -0.7 1.2 -3.5 1.2 -6.4 0 -5.7 -1.6 -8 -5 -6.9 -1.7 0.5 -2 1.5 -2 7 0 6.1 0.5 7.2 3.6 7.4 0.5 0.1 1.5 -0.4 2.2 -1.1z"/>
  <path d="M180.1 81.7 c-4.9 -1.7 -7.4 -5.6 -7.9 -12.5 -0.7 -10 3.5 -16.3 11.2 -16.5 7.8 -0.2 11.6 4.6 11.6 14.8 0 9.3 -2.5 13.1 -9.5 14.9 -1.1 0.2 -3.5 -0.1 -5.4 -0.7z m5.3 -7.3 c1.2 -0.5 1.6 -2.1 1.6 -6.9 0 -5.5 -0.3 -6.5 -2 -7 -3.4 -1.1 -5 1.2 -5 6.9 0 6.5 1.6 8.5 5.4 7z"/>
  <path d="M202.5 81.8 c-0.3 -0.8 -0.4 -7.7 -0.3 -15.3 l0.3 -14 3.5 0 3.5 0 0 15 0 15 -3.3 0.3 c-2 0.2 -3.4 -0.2 -3.7 -1z"/>
  <path d="M217.5 81.8 c-0.3 -0.8 -0.4 -7.7 -0.3 -15.3 l0.3 -14 3.5 0 3.5 0 0 15 0 15 -3.3 0.3 c-2 0.2 -3.4 -0.2 -3.7 -1z"/>
  <path d="M21.5 44.1 c-4.8 -2 -6 -4.8 -6 -14.2 0 -8.2 0.2 -9 2.6 -11.5 5.2 -5.1 14.7 -3.9 18.1 2.4 1.7 3.2 1.7 15.2 0 18.4 -2.6 4.8 -9.4 7 -14.7 4.9z m7.9 -8.7 c0.9 -2.3 0.7 -9.7 -0.3 -11.2 -0.4 -0.8 -1.9 -1.2 -3.2 -1 -2.1 0.3 -2.4 0.9 -2.7 5.7 -0.2 2.9 -0.1 6 0.2 6.7 0.7 1.9 5.2 1.8 6 -0.2z"/>
  <path d="M51.5 44.1 c-4.8 -2 -6 -4.8 -6 -14.2 0 -8.2 0.2 -9 2.6 -11.5 5.2 -5.1 14.7 -3.9 18.1 2.4 0.7 1.4 1.3 5.5 1.3 9.2 0 3.7 -0.6 7.8 -1.3 9.2 -2.6 4.8 -9.4 7 -14.7 4.9z m7.9 -8.7 c0.9 -2.3 0.7 -9.7 -0.3 -11.2 -0.4 -0.8 -1.9 -1.2 -3.2 -1 -2.1 0.3 -2.4 0.9 -2.7 5.7 -0.2 2.9 -0.1 6 0.2 6.7 0.7 1.9 5.2 1.8 6 -0.2z"/>
  <path d="M172.4 43.7 c-0.2 -0.7 -0.3 -7.4 -0.2 -14.8 l0.3 -13.4 3.8 -0.3 3.7 -0.3 0 15 0 15.1 -3.5 0 c-2 0 -3.8 -0.6 -4.1 -1.3z"/>
  <path d="M187.4 43.7 c-0.2 -0.7 -0.3 -7.4 -0.2 -14.8 l0.3 -13.4 3.8 -0.3 3.7 -0.3 0 15 0 15.1 -3.5 0 c-2 0 -3.8 -0.6 -4.1 -1.3z"/>
  <path d="M207.8 43.3 c-1.5 -0.9 -3.3 -2.8 -4 -4.1 -1.7 -3.2 -1.7 -15.2 0 -18.4 3.4 -6.3 12.9 -7.5 18.1 -2.4 2.4 2.5 2.6 3.3 2.6 11.6 0 8.3 -0.2 9.1 -2.6 11.6 -3.4 3.4 -10.2 4.2 -14.1 1.7z m8.7 -13.3 c0 -6.1 -0.2 -6.5 -2.4 -6.8 -3 -0.5 -4.1 1.2 -4.1 6.5 0 6 0.8 7.5 3.9 7.1 2.5 -0.3 2.6 -0.5 2.6 -6.8z"/>
  <path d="M75 27.2 l0 -12.3 3.8 0.3 3.7 0.3 0.2 7.5 c0.3 7.5 0.2 7.5 -3.7 12 l-4 4.5 0 -12.3z"/>
  <path d="M160.5 34.2 c-1.7 -2 -3.2 -5.3 -3.5 -7.2 -0.5 -3.3 -0.7 -3.5 -4.5 -3.6 -4.7 0 -8.6 -1.9 -7.9 -3.7 0.2 -0.7 1.8 -2.1 3.5 -3.1 4.2 -2.5 10.3 -1.6 13.8 1.8 2.2 2.3 2.6 3.7 2.9 10.2 0.3 4.2 0 8 -0.5 8.5 -0.5 0.5 -2.1 -0.7 -3.8 -2.9z"/>
  <path d="M90.7 22.1 c1.2 -4.6 9.3 -8.5 14 -6.7 1.4 0.6 0 1.6 -5.7 4.4 -4.1 2 -7.8 3.8 -8.2 4 -0.3 0.2 -0.4 -0.6 -0.1 -1.7z"/>
  <path d="M130 16 c-2.2 -0.7 -2.1 -0.8 1.3 -0.9 2 -0.1 3.7 0.4 3.7 0.9 0 1.1 -1.4 1.1 -5 0z"/>
 </g>
 <g fill="#f7894a">
  <path d="M37.3 218.8 c-1.7 -0.8 -2.3 -2 -2.3 -4.5 0 -3 0.3 -3.3 3 -3.3 4.7 0 8.2 2 7.6 4.4 -0.3 1.2 -0.6 2.7 -0.6 3.4 0 1.5 -4.6 1.5 -7.7 0z"/>
  <path d="M195 218.8 c0 -0.7 -0.3 -2.2 -0.6 -3.4 -0.6 -2.4 2.9 -4.4 7.6 -4.4 2.7 0 3 0.3 3 3.3 0 2.6 -0.6 3.6 -2.5 4.5 -3.4 1.6 -7.5 1.5 -7.5 0z"/>
  <path d="M27 203.5 c0 -3.3 0.2 -3.5 3.5 -3.5 3.3 0 3.5 0.2 3.5 3.5 0 3.3 -0.2 3.5 -3.5 3.5 -3.3 0 -3.5 -0.2 -3.5 -3.5z"/>
  <path d="M206 203.5 c0 -3.3 0.2 -3.5 3.5 -3.5 3.3 0 3.5 0.2 3.5 3.5 0 3.3 -0.2 3.5 -3.5 3.5 -3.3 0 -3.5 -0.2 -3.5 -3.5z"/>
  <path d="M27 195.1 c0 -3.4 1.9 -9.1 3 -9.1 0.4 0 1 -0.9 1.3 -2.1 0.3 -1.1 1.5 -2.3 2.6 -2.6 1.2 -0.3 2.1 -0.9 2.1 -1.3 0 -1.1 5.7 -3 9.1 -3 2.6 0 2.9 0.3 2.9 3.3 0 2.9 -0.5 3.5 -3.5 4.6 -4.5 1.6 -8 5.1 -9.6 9.6 -1.1 3 -1.7 3.5 -4.6 3.5 -3 0 -3.3 -0.3 -3.3 -2.9z"/>
  <path d="M205.1 194.5 c-0.7 -2 -2.3 -4.6 -3.6 -6 -1.4 -1.3 -4 -2.9 -6 -3.6 -3 -1.1 -3.5 -1.7 -3.5 -4.6 0 -3 0.3 -3.3 2.9 -3.3 3.4 0 9.1 1.9 9.1 3 0 0.4 0.9 1 2.1 1.3 1.1 0.3 2.3 1.5 2.6 2.6 0.3 1.2 0.9 2.1 1.3 2.1 1.1 0 3 5.7 3 9.1 0 2.6 -0.3 2.9 -3.3 2.9 -2.9 0 -3.5 -0.5 -4.6 -3.5z"/>
  <path d="M111 129.5 c-6.8 -2.1 -9.2 -5.1 -8.8 -11.1 l0.3 -4.9 5 -0.3 c3.6 -0.2 5.9 0.2 8.7 1.8 l3.8 2.1 3.8 -2.1 c2.8 -1.6 5.1 -2 8.7 -1.8 l5 0.3 0.3 4.9 c0.4 6.1 -2 9 -9.2 11.1 -6.1 1.8 -11.6 1.8 -17.6 0z"/>
  <path d="M113.2 107.3 c-1.9 -0.7 -4.2 -5.8 -4.2 -9.3 l0 -3 10.5 0 10.5 0 0 4.5 c0 6.5 -2.3 8.5 -9.7 8.4 -3.2 0 -6.4 -0.3 -7.1 -0.6z"/>
  <path d="M68 84 c0 -1.6 0.7 -2 3.5 -2 2.4 0 3.5 -0.5 3.5 -1.5 0 -0.8 0.5 -1.5 1 -1.5 0.6 0 1 1.6 1 3.5 0 3.5 0 3.5 -4.5 3.5 -3.8 0 -4.5 -0.3 -4.5 -2z"/>
  <path d="M163 82.5 c0 -1.9 0.5 -3.5 1 -3.5 0.6 0 1 0.7 1 1.5 0 1 1.1 1.5 3.5 1.5 2.8 0 3.5 0.4 3.5 2 0 1.7 -0.7 2 -4.5 2 -4.5 0 -4.5 0 -4.5 -3.5z"/>
  <path d="M126.8 70.3 c-2 -0.3 -2.8 -1 -2.8 -2.5 0 -1.8 0.4 -2 3.1 -1.4 1.7 0.3 11 0.6 20.5 0.6 16.7 0 17.4 0.1 17.4 2 0 1.9 -0.6 2 -17.7 1.9 -9.8 -0.1 -19 -0.4 -20.5 -0.6z"/>
  <path d="M115 64.5 c0 -0.8 -0.8 -1.5 -1.8 -1.5 -2.3 0 -4.2 -1.9 -4.2 -4.2 0 -1 -0.6 -1.8 -1.3 -1.8 -1.7 0 -3.7 -4.2 -3.7 -7.5 0 -1.4 -0.4 -2.5 -1 -2.5 -0.5 0 -1 -1.2 -1 -2.8 0 -2.6 -0.2 -2.7 -4 -2.4 -3.1 0.3 -4 0.1 -4 -1.1 0 -1 1.6 -1.9 4.7 -2.5 2.6 -0.6 5 -0.9 5.4 -0.6 0.4 0.2 1 2.3 1.4 4.7 1.1 6.4 4.9 13 10.1 17.6 2.6 2.2 5.1 4.1 5.5 4.1 0.5 0 0.9 0.5 0.9 1 0 0.6 -1.6 1 -3.5 1 -2.4 0 -3.5 -0.5 -3.5 -1.5z"/>
  <path d="M75 63.6 c0 -5.6 6.2 -16.1 11.9 -20 4.6 -3.2 5.1 -3.2 5.1 -0.1 0 1.8 -0.5 2.5 -1.9 2.5 -1 0 -2.1 0.9 -2.4 2.1 -0.3 1.1 -1.4 2.3 -2.5 2.6 -1.2 0.3 -2.2 1.6 -2.5 3.3 -0.4 1.5 -1.3 3.5 -2.2 4.3 -0.8 0.9 -1.5 2.7 -1.5 4.1 0 1.9 -0.5 2.6 -2 2.6 -1.1 0 -2 -0.6 -2 -1.4z"/>
 </g>
 <g fill="#876be5">
  <path d="M35 224.1 c-6.9 -2.1 -14.1 -8.3 -17.5 -15.1 -2.6 -5.1 -3.1 -14.7 -1.1 -20.7 2.6 -7.9 7.3 -12.4 18.6 -18.2 5.7 -3 10 -5.8 10 -6.6 0 -0.8 0.7 -1.5 1.5 -1.5 1.2 0 1.5 1.8 1.5 10.4 l0 10.4 -4.6 2.2 c-5.6 2.8 -9.9 8.7 -9.9 14 0 4.4 4 10.2 9.1 13.2 2.8 1.7 3.2 2.3 2.7 5.1 -0.4 2.5 0 3.6 1.9 5.2 l2.3 2 -1.8 -2.2 c-1 -1.2 -1.7 -2.9 -1.5 -3.8 0.3 -1.5 0.6 -1.4 3.1 0.5 5.1 4 2.8 6 -6.8 5.9 -2.7 0 -6.1 -0.4 -7.5 -0.8z"/>
  <path d="M189.8 224.4 c-2.6 -0.8 -2.2 -2.9 1 -5.4 2.4 -1.9 2.7 -2 3 -0.5 0.2 0.9 -0.5 2.6 -1.5 3.8 l-1.8 2.2 2.3 -2 c1.9 -1.6 2.3 -2.7 1.9 -5.2 -0.5 -2.8 -0.1 -3.4 2.7 -5.1 5.1 -3 9.1 -8.8 9.1 -13.2 0 -5.3 -4.3 -11.2 -9.9 -14 l-4.6 -2.2 0 -10.4 c0 -8.6 0.3 -10.4 1.5 -10.4 0.8 0 1.5 0.7 1.5 1.5 0 0.8 4.3 3.6 10 6.6 11.3 5.8 16 10.3 18.6 18.2 2 6 1.5 15.6 -1.1 20.7 -2.4 4.9 -8.3 10.8 -13 13.2 -3.9 2.1 -15.7 3.4 -19.7 2.2z"/>
 </g>
 <g fill="#31d2f7">
  <path d="M47.7 222.2 c-4.4 -4.9 -6.9 -4.7 72.3 -4.7 67.1 0 74 0.1 74 1.6 0 0.9 -0.8 2.3 -1.8 3.2 -1.7 1.6 -8.2 1.7 -72.4 1.7 -67 0 -70.6 -0.1 -72.1 -1.8z"/>
  <path d="M42.7 216.4 c-0.4 -0.4 -0.7 -2.7 -0.7 -5.1 0 -4.3 0 -4.3 3.5 -4.3 2.4 0 3.5 0.5 3.5 1.5 0 0.8 -0.6 1.5 -1.4 1.5 -0.9 0 -1.6 1.2 -1.8 3.2 -0.3 3.1 -1.7 4.5 -3.1 3.2z"/>
  <path d="M194.7 216.4 c-0.4 -0.4 -0.7 -2 -0.7 -3.6 0 -1.8 -0.5 -2.8 -1.5 -2.8 -0.8 0 -1.5 -0.7 -1.5 -1.5 0 -1.1 1.1 -1.5 3.6 -1.5 l3.5 0 -0.3 4.7 c-0.3 4.4 -1.5 6.2 -3.1 4.7z"/>
 </g>
 <g fill="#ffc83d">
  <path d="M39.8 215 c-8.2 -4.3 -11.7 -13.8 -8.4 -22.5 1.9 -4.8 7.2 -10.1 11.1 -11.1 1.4 -0.3 2.5 -1.2 2.5 -2 0 -0.8 0.7 -1.4 1.5 -1.4 1.3 0 1.5 2.4 1.5 16 0 13.6 -0.2 16 -1.5 16 -1 0 -1.5 1.1 -1.5 3.5 0 4 -0.2 4.1 -5.2 1.5z"/>
  <path d="M195 213.5 c0 -2.4 -0.5 -3.5 -1.5 -3.5 -1.3 0 -1.5 -2.4 -1.5 -16 0 -13.6 0.2 -16 1.5 -16 0.8 0 1.5 0.6 1.5 1.4 0 0.8 1.1 1.7 2.5 2 3.9 1 9.2 6.3 11.1 11.1 3.3 8.8 -0.3 18.3 -8.6 22.5 -2.2 1.1 -4.2 2 -4.5 2 -0.3 0 -0.5 -1.6 -0.5 -3.5z"/>
  <path d="M78.5 129 c-0.4 -0.6 0.5 -1 2 -1 l2.7 0 -2.2 -2.7 c-10.2 -13.2 -13.5 -22.9 -13.1 -38.8 0.1 -3.8 0.2 -4 3.4 -4 l3.2 0 0.6 -11.5 c0.4 -9.8 0.9 -12.3 3.1 -16.6 4.6 -8.8 13 -15 21.9 -16.1 4.8 -0.6 4.9 -0.5 4.9 2 0 4.8 4 13.5 8.1 17.7 2.3 2.3 6.6 5.4 9.7 6.8 5.4 2.5 6.7 2.7 23.9 3 l18.2 0.4 0.3 7.1 0.3 7.2 3.3 0 3.2 0 0 7.5 c0 12.6 -3.8 23.4 -11.4 33 l-3.6 4.5 2.5 0.3 c1.4 0.2 2.3 0.8 2 1.3 -0.4 0.5 -8.9 0.9 -19.6 0.9 -15.1 0 -18.9 -0.3 -18.9 -1.3 0 -0.8 1.7 -1.9 3.8 -2.5 4.5 -1.4 8.5 -5.3 8 -7.9 -0.5 -2.6 -4 -2.8 -7.9 -0.4 -4.3 2.7 -9.5 2.7 -13.8 0 -3.9 -2.4 -7.4 -2.2 -7.9 0.4 -0.5 2.6 3.5 6.5 8 7.9 2.1 0.6 3.8 1.7 3.8 2.5 0 1 -3.8 1.3 -18.9 1.3 -11.6 0 -19.2 -0.4 -19.6 -1z m46.5 -26 c3.9 -3.9 2.7 -5 -5.5 -5 l-7.6 0 1.6 2.9 c0.8 1.6 2 3.1 2.7 3.4 2.9 1.2 6.9 0.6 8.8 -1.3z m-21.7 -8.2 c2.7 -3.2 2.4 -14.4 -0.5 -17.5 -2.8 -3 -7.4 -3 -10.5 -0.1 -1.9 1.8 -2.3 3.2 -2.3 8.5 0 3.6 0.5 7.3 1.1 8.4 2.2 4.2 8.9 4.6 12.2 0.7z m45 0 c2.7 -3.2 2.4 -14.4 -0.5 -17.5 -2.8 -3 -7.4 -3 -10.5 -0.1 -1.9 1.8 -2.3 3.2 -2.3 8.5 0 3.6 0.5 7.3 1.1 8.4 2.2 4.2 8.9 4.6 12.2 0.7z"/>
 </g>
 <g fill="#f2d791">
  <path d="M80 129.6 c0 -0.8 1 -1.6 2.3 -2 3 -0.7 72.4 -0.7 75.4 0 1.3 0.4 2.3 1.2 2.3 2 0 1.2 -6.5 1.4 -40 1.4 -33.5 0 -40 -0.2 -40 -1.4z"/>
 </g>
 <g fill="#e5e5e5">
  <path d="M45 171.9 c0 -37.7 0.3 -41 3.4 -43.1 0.6 -0.4 32.9 -0.8 71.8 -0.8 l70.7 0 2.1 2.2 c1.9 2.1 2 3.3 2 41 l0 38.8 -75 0 -75 0 0 -38.1z m67.5 8.1 l0 -4.5 -4 0 c-3.8 0 -4 0.2 -4.3 3.3 -0.5 5.3 0.3 6.4 4.5 6 3.8 -0.3 3.8 -0.3 3.8 -4.8z m23 0 l0 -4.5 -4 0 c-3.8 0 -4 0.2 -4.3 3.3 -0.5 5.3 0.3 6.4 4.5 6 3.8 -0.3 3.8 -0.3 3.8 -4.8z m-22.5 -22.5 l0 -4.5 -4.5 0 -4.5 0 0 4.5 0 4.5 4.5 0 4.5 0 0 -4.5z m23 0 l0 -4.5 -4.5 0 -4.5 0 0 4.5 0 4.5 4.5 0 4.5 0 0 -4.5z"/>
 </g>
 <g fill="#f2f2f2">
  <path d="M101.4 186.7 c-0.3 -0.8 -0.4 -4.3 -0.2 -7.8 l0.3 -6.4 7 0 7 0 0 7.5 0 7.5 -6.8 0.3 c-5 0.2 -6.9 -0.1 -7.3 -1.1z"/>
  <path d="M124.4 186.7 c-0.3 -0.8 -0.4 -4.3 -0.2 -7.8 l0.3 -6.4 7 0 7 0 0 7.5 0 7.5 -6.8 0.3 c-5 0.2 -6.9 -0.1 -7.3 -1.1z"/>
  <path d="M101 157.5 l0 -7.5 7.5 0 7.5 0 0 7.5 0 7.5 -7.5 0 -7.5 0 0 -7.5z"/>
  <path d="M124 157.5 l0 -7.5 7.5 0 7.5 0 0 7.5 0 7.5 -7.5 0 -7.5 0 0 -7.5z"/>
 </g>
</svg>