<?xml version="1.0" encoding="utf-8"?>
<!DOCTYPE svg PUBLIC "-//W3C//DTD SVG 20010904//EN" "http://www.w3.org/TR/2001/REC-SVG-20010904/DTD/svg10.dtd">
<svg version="1.0" xmlns="http://www.w3.org/2000/svg" width="240px" height="240px" viewBox="0 0 240 240" preserveAspectRatio="xMidYMid meet">
 <g fill="#000000">
  <path d="M17.7 195.5 l-17.7 -44.4 0 -60.9 c0 -72.5 -0.6 -67.8 10.9 -79.3 9 -9 13.6 -10.9 26.6 -10.9 11.4 0 18 2.1 23.2 7.6 3.4 3.5 4.5 5.5 5.5 10.5 1 4.7 1.7 6.3 3.4 6.9 1.2 0.5 3.7 2.2 5.7 3.9 3.1 2.8 4.2 4.7 6.1 10.5 0.5 1.5 1.7 0.8 7.9 -5 20.9 -19.9 51.2 -24.1 77 -10.7 10.1 5.2 22.9 18.1 28 28.3 6.4 12.9 7.2 17.7 7.2 42 0 27.9 -1.8 34.7 -13.2 50.8 -2.9 4.1 -4 6.3 -3.1 6.6 16.2 4.5 24.9 8.8 33.5 16.9 15.1 14.1 21.3 31.3 21.3 59 l0 12.7 -102.2 0 -102.3 0 -17.8 -44.5z m204.3 22.7 c0 -23 -17.4 -44.4 -39.8 -49.1 -3.4 -0.7 -22.8 -1.1 -55.4 -1.1 -36.3 0 -51.2 -0.3 -54.2 -1.2 -2.7 -0.8 -6 -3.2 -9.7 -6.8 l-5.5 -5.5 -7.7 -38.5 c-4.9 -24.3 -7.7 -40.9 -7.7 -45 l0 -6.5 11 -9.9 c6.1 -5.5 11 -10.3 11 -10.6 0 -1.8 -3 -2.9 -8.5 -3.2 l-6 -0.3 -0.3 -9.5 c-0.3 -12.1 -1.1 -13 -11.8 -13 -6.1 0 -7.8 0.4 -9.4 2 -1.1 1.1 -2 2.7 -2 3.6 0 0.8 -1.4 2 -3 2.6 -1.7 0.5 -3.5 1.8 -4 2.8 -0.6 1.2 -1 24 -1 60 l0 58.1 14.1 35.2 c7.8 19.4 14.5 36.2 15 37.5 l0.9 2.2 87 0 87 0 0 -3.8z m-73.7 -66.3 c15.5 -5.2 27.9 -17.3 33.3 -32.7 2.1 -6.1 2.4 -8.3 2.4 -24.8 0 -15.4 -0.3 -19.2 -2 -24.6 -5.5 -17.9 -22.2 -32.5 -40.8 -36 -13.1 -2.4 -30.2 4.1 -41.1 15.7 -11.7 12.6 -14.1 20.1 -14.1 44.9 0 16.5 0.3 18.7 2.4 24.8 7.1 20.2 26.5 34.7 46.4 34.8 4.8 0 9.4 -0.7 13.5 -2.1z"/>
  <path d="M128.2 145.1 c-3.9 -1 -8.6 -5.2 -10.2 -9.1 -0.6 -1.5 -1 -4.7 -0.8 -7.1 l0.3 -4.4 17.5 0 17.5 0 0 5.7 c0 6.1 -1.7 9.4 -6.6 13 -2.8 2.1 -12.7 3.1 -17.7 1.9z"/>
  <path d="M106.4 114.6 c-4 -1.8 -4.4 -3 -4.4 -13.7 0 -8.2 0.2 -9.2 2.5 -11.4 2 -2.1 3.4 -2.5 8 -2.5 4.6 0 6 0.4 8 2.5 2.3 2.2 2.5 3.2 2.5 11.5 0 5 -0.4 10 -1 11 -2 3.7 -10 5 -15.6 2.6z"/>
  <path d="M151.4 114.6 c-4 -1.8 -4.4 -3 -4.4 -13.7 0 -8.2 0.2 -9.2 2.5 -11.4 2 -2.1 3.4 -2.5 8 -2.5 4.6 0 6 0.4 8 2.5 2.3 2.2 2.5 3.2 2.5 11.5 0 5 -0.4 10 -1 11 -2 3.7 -10 5 -15.6 2.6z"/>
 </g>
 <g fill="#3a96dd">
  <path d="M44.1 222.8 c-0.5 -1.3 -7.2 -18.1 -15 -37.5 l-14.1 -35.2 0 -39 0 -39.1 14.8 0 14.7 0 7.9 39.8 8 39.7 5.5 5.5 c3.7 3.6 7 6 9.7 6.8 3 0.9 17.9 1.2 54.2 1.2 32.6 0 52 0.4 55.4 1.1 9 1.9 17.7 6.7 24.9 13.9 10.3 10.2 14.9 22 14.9 38.2 l0 6.8 -90 0 -90 0 -0.9 -2.2z"/>
 </g>
 <g fill="#ffc83d">
  <path d="M118 154.7 c-20.9 -7.4 -34.7 -26.1 -35 -47.7 -0.2 -13 -0.2 -13 1.9 -13 1.7 0 1.9 -1 2.3 -11.2 0.3 -9.8 0.7 -12 3 -16.4 5.3 -10.2 15.4 -16.4 26.8 -16.4 l5.7 0 0.6 4 c1.2 8.8 8.3 18.6 16.5 22.6 3.1 1.6 6.9 2 23.2 2.4 l19.5 0.5 0.3 7.3 c0.3 6.4 0.5 7.2 2.2 7.2 1.9 0 2 0.7 2 10.8 0 13 -2.4 20.9 -9.3 30.5 -6.9 9.6 -15.3 15.9 -26.4 19.6 -9 3 -24.4 2.9 -33.3 -0.2z m24.9 -14.6 c3.7 -2.6 6.1 -6.3 6.4 -9.6 l0.2 -3 -14.3 -0.3 c-15.7 -0.3 -16.6 0.1 -14.2 5.7 3.5 8.7 14.7 12.3 21.9 7.2z m-23.9 -31.1 c0.6 -1 1 -4.6 1 -8 0 -5.1 -0.4 -6.5 -2.5 -8.5 -1.3 -1.4 -3.6 -2.5 -5 -2.5 -1.4 0 -3.7 1.1 -5 2.5 -2.1 2 -2.5 3.4 -2.5 8.4 0 7.6 0.6 9 4.3 10.6 3.6 1.5 8.2 0.3 9.7 -2.5z m45 0 c0.6 -1 1 -4.6 1 -8 0 -5.1 -0.4 -6.5 -2.5 -8.5 -1.3 -1.4 -3.6 -2.5 -5 -2.5 -1.4 0 -3.7 1.1 -5 2.5 -2.1 2 -2.5 3.4 -2.5 8.4 0 7.6 0.6 9 4.3 10.6 3.6 1.5 8.2 0.3 9.7 -2.5z"/>
  <path d="M15 51 c0 -22.7 0.1 -24.1 2 -26 1.1 -1.1 2.7 -2 3.6 -2 0.8 0 2 -1.4 2.6 -3 1.5 -4.3 3.4 -5 14.6 -5 13.6 0 14.1 0.4 14.4 13 l0.3 9.5 6.3 0.3 c5.3 0.3 6.4 0.6 7.8 2.7 0.9 1.5 1.4 3.5 1 4.8 -0.3 1.3 -5.5 6.8 -11.6 12.3 -10.3 9.2 -11 10.1 -11 13.7 l0 3.7 -15 0 -15 0 0 -24z"/>
 </g>
 <g fill="#8e562e">
  <path d="M82.9 89.8 c-0.2 -12.4 0.1 -16.1 1.7 -21.8 5 -17.6 19.7 -31.7 38 -36.5 21 -5.5 44.2 3.9 56.6 22.9 5.9 9.1 7.8 16.6 7.8 30.7 l0 11.9 -3.5 0 -3.4 0 -0.3 -7.2 -0.3 -7.3 -19.5 -0.5 c-16.3 -0.4 -20.1 -0.8 -23.2 -2.4 -8.2 -4 -15.3 -13.8 -16.5 -22.6 -0.5 -3.5 -0.9 -4 -3.3 -4 -8.3 0 -19.1 7.4 -23.8 16.4 -2.3 4.4 -2.7 6.6 -3 16.4 l-0.4 11.2 -3.4 0 -3.4 0 -0.1 -7.2z"/>
 </g>
 <g fill="#f7894a">
  <path d="M130.2 118.4 c-1.5 -1 -2.2 -2.4 -2 -3.7 0.3 -2 0.9 -2.2 6.8 -2.2 7.3 0 8.8 1.7 5.1 5.4 -2.5 2.5 -6.8 2.7 -9.9 0.5z"/>
 </g>
</svg>