<?xml version="1.0" encoding="utf-8"?>
<!DOCTYPE svg PUBLIC "-//W3C//DTD SVG 20010904//EN" "http://www.w3.org/TR/2001/REC-SVG-20010904/DTD/svg10.dtd">
<svg version="1.0" xmlns="http://www.w3.org/2000/svg" width="240px" height="240px" viewBox="0 0 240 240" preserveAspectRatio="xMidYMid meet">
 <g fill="#000000">
  <path d="M24.4 238.6 c-15.7 -3.8 -25.8 -17.9 -23.2 -32.4 1.3 -7.4 44.6 -107.7 48.5 -112.1 4 -4.7 4 -5.1 0.8 -5.1 -3.5 0 -8.4 -2.2 -12.4 -5.6 -8.8 -7.4 -9.5 -22.1 -1.3 -30.7 4.2 -4.5 8.1 -6 16.2 -6.6 l7.5 -0.6 0.6 -6.1 c1 -10.6 7.1 -18.4 17.3 -22.3 3.6 -1.3 5 -2.6 6.9 -6.1 2.6 -5 7.1 -8.5 12.7 -10 6.3 -1.7 15.5 2.8 19.3 9.5 0.6 1.1 1.4 6.1 1.7 11 l0.5 9 7.5 0.6 c8.1 0.6 12 2.1 16.2 6.6 8.1 8.5 7.5 23.3 -1.1 30.6 -3.1 2.6 -3.2 2.9 -2.1 6.3 1.1 3.3 1.5 3.6 4.4 3 1.7 -0.3 8.3 -0.9 14.6 -1.2 10.6 -0.6 11.8 -0.9 15.6 -3.6 15.3 -10.9 34.3 -0.5 34.4 18.9 0 5.9 0.1 6.2 3.4 8.1 4.7 2.8 9.2 9.2 10.7 15.3 1.2 4.5 1.8 5.3 5.6 7.1 12.9 6.1 14 23.6 2.1 31.6 -4 2.6 -4.6 2.7 -20.5 3.1 l-16.3 0.3 0 6.5 c0 15.6 -13.2 26.1 -27.5 21.8 -2.7 -0.8 -6.2 -2.6 -7.7 -4 -3.5 -3.2 -4.3 -3.2 -5.8 0.5 -0.7 1.7 -3.4 5 -6 7.3 -4 3.6 -12.3 7.5 -56.6 26.4 -28.5 12.2 -53.2 22.5 -54.9 22.9 -1.6 0.3 -3.7 0.7 -4.5 0.9 -0.8 0.2 -3.8 -0.2 -6.6 -0.9z m57.6 -38.8 c41 -17.6 50.1 -21.8 53.3 -24.9 6.5 -6.4 5.4 -8.9 -11.7 -25.9 -11 -10.9 -12.6 -12.9 -12.6 -15.7 0 -3 -0.3 -3.3 -3.2 -3.3 -2.8 0 -5.1 -1.8 -17.3 -13.9 -7.7 -7.7 -15.1 -14.2 -16.5 -14.6 -3.6 -0.9 -7.4 0.8 -10.3 4.7 -1.9 2.5 -39.3 88.1 -44.6 102 -0.7 1.8 -0.5 3.3 0.6 5.7 1.8 3.5 9 8.4 11.3 7.5 0.8 -0.3 23.8 -10 51 -21.6z m92.4 -32.4 c2.1 -2.1 2 -4.1 -0.3 -5.4 -1.5 -0.7 -2.3 -0.6 -3.5 0.6 -0.9 0.8 -1.6 1.9 -1.6 2.4 0 0.8 2.8 4 3.5 4 0.2 0 1.1 -0.7 1.9 -1.6z m-19.5 -29 c0.2 -0.2 -1.2 -0.4 -3.3 -0.4 -2.2 0 -3.5 0.4 -3.1 1 0.5 0.9 5.2 0.4 6.4 -0.6z m64.1 0.6 c1.1 -0.7 0.2 -0.9 -3 -0.9 -3.7 0.1 -4.1 0.2 -2 0.9 3.4 1.1 3.3 1.1 5 0z m-57.2 -13 c0 -3.7 -0.1 -4.1 -0.8 -2 -1.1 3.6 -1.1 11.2 0 8.5 0.5 -1.1 0.8 -4 0.8 -6.5z m14.9 -0.7 c-0.2 -1.6 -0.4 -0.3 -0.4 2.7 0 3 0.2 4.3 0.4 2.8 0.2 -1.6 0.2 -4 0 -5.5z m30 1 c-0.2 -1.6 -0.4 -0.5 -0.4 2.2 0 2.8 0.2 4 0.4 2.8 0.2 -1.3 0.2 -3.5 0 -5z m-15 -2 c-0.2 -1.6 -0.4 -0.3 -0.4 2.7 0 3 0.2 4.3 0.4 2.8 0.2 -1.6 0.2 -4 0 -5.5z m-33.2 -30.3 c1.4 -0.7 0.8 -0.8 -2 -0.3 -2.2 0.3 -4.2 0.7 -4.4 0.9 -0.9 0.8 4.5 0.2 6.4 -0.6z m32.5 -4.6 c0 -0.7 -0.9 -1.8 -1.9 -2.4 -1.5 -0.7 -2.3 -0.6 -3.5 0.6 -2 1.9 -2 2.3 0.1 4.6 1.5 1.7 1.7 1.7 3.5 0.2 1 -1 1.8 -2.3 1.8 -3z m-89.9 -4.1 c-0.9 -1.5 -1 -1.2 -1.1 1.8 0 2 0.3 3.9 0.8 4.3 1.1 1.2 1.4 -4.2 0.3 -6.1z m21.3 -1.2 c1.6 -1.7 1.6 -2 0.1 -3.5 -0.9 -0.9 -2 -1.6 -2.5 -1.6 -0.5 0 -1.6 0.7 -2.5 1.6 -1.5 1.5 -1.5 1.8 0.1 3.5 0.9 1.1 2 1.9 2.4 1.9 0.4 0 1.5 -0.8 2.4 -1.9z m-30.1 -5.8 c-1.3 -0.2 -3.5 -0.2 -5 0 -1.6 0.2 -0.5 0.4 2.2 0.4 2.8 0 4 -0.2 2.8 -0.4z m-36.9 -9.5 c0.8 -1.4 0.7 -2.1 -0.6 -3.4 -3 -3 -7.5 0.9 -4.8 4.2 1.6 1.8 3.9 1.5 5.4 -0.8z m37.9 -5.5 c-1.3 -0.2 -3.5 -0.2 -5 0 -1.6 0.2 -0.5 0.4 2.2 0.4 2.8 0 4 -0.2 2.8 -0.4z m37.1 -9.5 c0.8 -1.4 0.7 -2.1 -0.6 -3.4 -3 -3 -7.5 0.9 -4.8 4.2 1.6 1.8 3.9 1.5 5.4 -0.8z m-38.1 -5.5 c-1.3 -0.2 -3.5 -0.2 -5 0 -1.6 0.2 -0.5 0.4 2.2 0.4 2.8 0 4 -0.2 2.8 -0.4z m1.5 -15 c-1.6 -0.2 -4 -0.2 -5.5 0 -1.6 0.2 -0.3 0.4 2.7 0.4 3 0 4.3 -0.2 2.8 -0.4z m7.9 -11.5 c-0.2 -1.3 -0.4 -0.5 -0.4 1.7 -0.1 2.2 0.1 3.2 0.4 2.3 0.2 -1 0.2 -2.8 0 -4z"/>
 </g>
 <g fill="#ffc83d">
  <path d="M22.4 222.5 c-4.4 -2.6 -7.4 -7.5 -7.4 -12.1 0 -4.2 42.9 -103.9 46.5 -108.1 2.4 -2.8 3.9 -3.6 7.7 -4 2.6 -0.3 5.9 -0.2 7.5 0.2 1.7 0.4 8.2 6 16.8 14.6 7.8 7.6 14.4 13.9 14.8 13.9 0.4 0 0.7 -0.7 0.7 -1.5 0 -2.2 1.3 -1.8 4 1 1.6 1.7 2.1 3.1 1.7 4.7 -0.5 1.9 1.5 4.4 12.7 15.8 14.5 14.6 16.2 17.5 14.6 24.7 -0.6 2.3 -2.2 5 -4.2 6.8 -4.3 3.9 -103.3 46.5 -108.1 46.5 -1.7 0 -5.1 -1.1 -7.3 -2.5z m78 -56.2 c1 -2.5 -2.2 -5.5 -4.5 -4.2 -2.3 1.2 -2.4 2.7 -0.3 5 1.8 2 3.9 1.6 4.8 -0.8z m-22.9 -29.3 c1.8 -2 1.8 -2.1 -0.3 -4.3 l-2.2 -2.1 -2.2 2.1 c-2.1 2.2 -2.1 2.3 -0.3 4.3 1 1.1 2.1 2 2.5 2 0.4 0 1.5 -0.9 2.5 -2z"/>
 </g>
 <g fill="#00bcf2">
  <path d="M92.2 169.7 c-5.1 -5.4 -0.8 -12.8 6.8 -11.7 2.6 0.3 6 4.3 6 7 0 6.3 -8.4 9.4 -12.8 4.7z"/>
  <path d="M98 95.1 c-0.5 -1.1 -1 -4 -1 -6.5 0 -5.5 -1.5 -6.6 -9.4 -6.6 -6.7 0 -11.2 -3.2 -12.2 -8.6 -1.4 -7.7 4.2 -13.4 13.3 -13.4 6.7 0 8.3 -0.7 8.3 -3.6 0 -3.1 -2.7 -4.4 -9.4 -4.4 -6.7 0 -11.2 -3.2 -12.2 -8.6 -1.5 -8.1 4.1 -13.4 14.3 -13.4 3.7 0 6.5 -0.5 6.9 -1.2 0.4 -0.6 1 -3.9 1.3 -7.2 0.5 -4.8 1 -6.2 2.4 -6.4 3.3 -0.7 4.7 1.7 4.7 8 0 10.1 -3.2 13.7 -12.3 13.8 -7 0 -9.7 1.3 -9.7 4.4 0 2.9 1.6 3.6 8.3 3.6 9.1 0 14.7 5.7 13.3 13.4 -1 5.4 -5.5 8.6 -12.2 8.6 -6.7 0 -9.4 1.3 -9.4 4.4 0 2.9 1.6 3.6 8.1 3.6 6.1 0 10.4 2.1 12.4 6 1.5 2.9 2 11.4 0.9 14.4 -0.9 2.2 -5.1 2 -6.4 -0.3z"/>
  <path d="M122.5 57.5 c-1.4 -1.3 -2.5 -3.6 -2.5 -5 0 -1.4 1.1 -3.7 2.5 -5 1.3 -1.4 3.6 -2.5 5 -2.5 3.3 0 7.5 4.2 7.5 7.5 0 3.3 -4.2 7.5 -7.5 7.5 -1.4 0 -3.7 -1.1 -5 -2.5z"/>
 </g>
 <g fill="#f03a17">
  <path d="M144.8 142 c-2.2 -1.4 -2.3 -5.6 -0.2 -6.4 0.9 -0.3 3.3 -0.6 5.4 -0.6 6.2 0 7 -0.7 7 -5.9 0 -10.9 3.8 -16.1 11.7 -16.1 3.8 0 5 0.5 7.9 3.4 3.2 3.2 3.4 3.9 3.4 9.8 0 6.6 1 8.8 4.2 8.8 2.4 0 3.8 -3.8 3.8 -10.5 0 -4.5 0.5 -5.8 2.9 -8.4 2.4 -2.6 3.6 -3.1 7.5 -3.1 3.6 0 5.2 0.6 7.8 2.9 2.9 2.6 3.2 3.5 3.6 9.7 0.2 3.8 0.9 7.5 1.4 8.2 0.6 0.7 3.3 1.2 6.3 1.2 3.4 0 5.7 0.5 6.5 1.5 5.5 6.6 -11.7 9 -18.2 2.5 -2.4 -2.4 -2.8 -3.6 -2.8 -8.4 0 -6.8 -1.4 -10.6 -3.8 -10.6 -3.2 0 -4.2 2.2 -4.2 8.8 0 5.9 -0.2 6.6 -3.4 9.8 -2.9 2.9 -4.1 3.4 -8.1 3.4 -4 0 -5.1 -0.5 -7.6 -3.1 -2.4 -2.6 -2.9 -3.9 -2.9 -8.4 0 -6.7 -1.4 -10.5 -3.8 -10.5 -3 0 -4.2 2.2 -4.2 8 0 6.2 -1.4 9.5 -5.1 12.2 -3 2.2 -12.6 3.4 -15.1 1.8z"/>
  <path d="M69.7 140.2 c-2.3 -2.5 -2.2 -8.5 0.1 -10.5 2.6 -2.4 8.5 -2.2 10.7 0.3 2.3 2.6 2.3 7.4 0 10 -2.4 2.6 -8.5 2.7 -10.8 0.2z"/>
  <path d="M182.2 94.7 c-4.5 -4.8 -1.3 -11.7 5.3 -11.7 6.8 0 10 7.3 5.2 11.8 -3.1 2.9 -7.7 2.9 -10.5 -0.1z"/>
 </g>
 <g fill="#886ce4">
  <path d="M110.7 130.2 l-2.6 -2.7 1.9 -4.2 c8 -18 26.1 -30.9 46.2 -33 5.8 -0.6 8.8 0.5 8.8 3.1 -0.1 2.7 -2.1 3.7 -9.6 4.6 -16.7 2.1 -30.9 12.4 -38 27.4 -2 4.2 -3.7 7.6 -3.8 7.6 -0.1 0 -1.4 -1.2 -2.9 -2.8z"/>
  <path d="M47.5 72.5 c-1.4 -1.3 -2.5 -3.6 -2.5 -5 0 -1.4 1.1 -3.7 2.5 -5 3.1 -3.2 6.9 -3.2 10 0 1.4 1.3 2.5 3.6 2.5 5 0 1.4 -1.1 3.7 -2.5 5 -3.1 3.2 -6.9 3.2 -10 0z"/>
 </g>
 <g fill="#fff100">
  <path d="M167 169.8 c-5.4 -5.9 1.1 -14.5 8.6 -11.3 7.4 3.1 5 13.5 -3.1 13.5 -2.2 0 -4.1 -0.8 -5.5 -2.2z"/>
  <path d="M115.2 87.7 c-4.5 -4.7 -1.4 -12.7 4.8 -12.7 6.3 0 9.4 8.4 4.7 12.8 -3 2.8 -6.8 2.8 -9.5 -0.1z"/>
 </g>
</svg>