<?xml version="1.0" encoding="utf-8"?>
<!DOCTYPE svg PUBLIC "-//W3C//DTD SVG 20010904//EN" "http://www.w3.org/TR/2001/REC-SVG-20010904/DTD/svg10.dtd">
<svg version="1.0" xmlns="http://www.w3.org/2000/svg" width="240px" height="240px" viewBox="0 0 240 240" preserveAspectRatio="xMidYMid meet">
 <g fill="#000000">
  <path d="M0 231.1 c0 -10.8 2.5 -36.9 4.6 -47.1 6.7 -33.3 19.8 -62.7 40 -89.7 7.5 -9.9 26.6 -29.7 36.4 -37.6 23.9 -19.3 53.2 -34 82.5 -41.5 16.8 -4.3 30.1 -6.1 50.8 -6.9 l17.7 -0.6 0 82.1 0 82.2 -10.8 0 c-18.4 0 -31.4 5.1 -42.1 16.6 -10.4 11.1 -15 24.1 -15.1 42.2 l0 9.2 -82 0 -82 0 0 -8.9z m147.4 -15.5 c1.6 -16 7.8 -28.8 19.6 -40.6 6.7 -6.8 10.3 -9.4 17 -12.8 9.6 -4.7 18.2 -7.2 25.1 -7.2 l4.7 0 0.4 -13.7 c0.1 -7.6 0.1 -36.6 0 -64.5 l-0.4 -50.8 -5.6 0 c-7.3 0 -23.3 2.3 -34.2 4.9 -28.1 6.6 -58.1 21.4 -81 39.8 -9.8 8 -26 24.7 -33.9 35.1 -23.9 31.5 -37.3 67.2 -40.7 108 l-0.7 8.2 64.5 0 64.5 0 0.7 -6.4z"/>
 </g>
 <g fill="#16c60c">
  <path d="M79.5 215.8 c1.9 -27.1 8.6 -47.2 23.2 -69.2 7.9 -11.9 23.2 -27.6 34.5 -35.4 21.3 -14.6 50.4 -24.2 73.5 -24.2 l6.2 0 0.3 13.8 c0.2 8.3 -0.1 14 -0.7 14.4 -0.5 0.4 -2.9 0.8 -5.2 0.8 -5.9 0 -17.7 2.4 -26.9 5.5 -41.4 13.9 -71.9 52.4 -75.9 95.8 l-0.7 7.7 -14.5 0 -14.5 0 0.7 -9.2z"/>
 </g>
 <g fill="#e81224">
  <path d="M15.3 213.8 c2.9 -49.8 22.3 -93.6 57.2 -129.7 17.6 -18.2 34.8 -30.5 57.6 -41.5 25.9 -12.4 54.3 -19.5 78.2 -19.6 l8.7 0 0 11.5 c0 6.3 0.1 11.8 0.2 12.3 0.2 0.4 -5.3 1.3 -12.2 1.9 -16.4 1.6 -29.9 4.6 -43.4 9.5 -6.1 2.2 -12.2 4.2 -13.5 4.5 -1.4 0.3 -4 1.7 -5.9 3 -1.9 1.2 -4.1 2.3 -4.9 2.3 -0.8 0 -2.2 0.8 -3.3 1.8 -1 0.9 -4.5 3.1 -7.6 4.7 -3.2 1.7 -6.9 4 -8.2 5.2 -1.4 1.3 -3.1 2.3 -3.7 2.3 -0.7 0 -1.5 0.7 -1.9 1.5 -0.3 0.8 -1 1.5 -1.7 1.5 -0.6 0 -2 1.1 -3.1 2.5 -1.1 1.4 -2.4 2.5 -2.9 2.5 -1.8 0 -22.4 21.8 -28.4 30.1 -20.9 28.6 -33.5 62.2 -35.2 94.2 l-0.6 10.7 -13 0 -13 0 0.6 -11.2z"/>
 </g>
 <g fill="#0046ff">
  <path d="M105.4 216 c4.2 -55.5 50.5 -100.6 106.1 -103.2 l6 -0.3 0.3 8.5 c0.2 4.7 0 10.4 -0.3 12.6 -0.6 4.1 -0.7 4.2 -5.3 4.8 -11.4 1.6 -21.2 4.1 -27.8 7.2 -3.9 1.9 -7.4 3.4 -7.8 3.4 -0.4 0 -1.6 0.8 -2.7 1.8 -1 1.1 -3.1 2.5 -4.6 3.3 -1.5 0.8 -3.5 2.1 -4.4 2.9 -15.6 14 -24 25.7 -29.4 41.5 -2.4 7.1 -4.5 17.3 -4.5 22.3 l0 4.2 -13.1 0 -13.2 0 0.7 -9z"/>
 </g>
 <g fill="#f7630c">
  <path d="M38.3 212.8 c1.4 -32.9 13.8 -66.5 35.2 -95.7 6 -8.3 26.6 -30.1 28.4 -30.1 0.5 0 1.8 -1.1 2.9 -2.5 1.1 -1.4 2.5 -2.5 3.1 -2.5 0.7 0 1.4 -0.7 1.7 -1.5 0.4 -0.8 1.2 -1.5 1.9 -1.5 0.6 0 2.3 -1 3.7 -2.2 1.3 -1.3 5 -3.6 8.2 -5.3 3.1 -1.6 6.6 -3.8 7.6 -4.7 1.1 -1 2.5 -1.8 3.3 -1.8 0.8 0 3 -1.1 4.9 -2.3 1.9 -1.3 4.5 -2.7 5.9 -3 1.3 -0.3 7.4 -2.3 13.4 -4.5 6.1 -2.2 15.3 -4.9 20.5 -6 10.7 -2.4 29.8 -4.5 34.8 -4 l3.4 0.3 -0.1 11.3 c0 6.1 0 11.8 -0.1 12.5 0 1 -2.7 1.6 -10.2 2 -24 1.5 -51.6 11.2 -73.4 25.7 -39.9 26.6 -64.6 67.8 -69.5 116 l-1.3 12 -12.4 0 -12.5 0 0.6 -12.2z"/>
 </g>
 <g fill="#744da9">
  <path d="M128 219.3 c0.1 -11.8 4.9 -28 12.1 -40.3 3 -5.1 10.7 -14.7 15.3 -19 7.4 -7 8 -7.4 10.9 -8.9 1.5 -0.8 3.5 -2.2 4.4 -3.1 1 -0.9 3.8 -2.4 6.3 -3.4 2.5 -0.9 6 -2.6 7.9 -3.7 1.9 -1.1 4.6 -2.2 6 -2.4 1.4 -0.2 6.6 -1.1 11.5 -1.9 4.9 -0.9 10.2 -1.6 11.7 -1.6 l2.9 0 0 11.5 0 11.5 -4.8 0 c-7 0 -15.6 2.5 -25.2 7.2 -6.7 3.4 -10.3 6 -17 12.8 -11.8 11.8 -18 24.6 -19.6 40.6 l-0.7 6.4 -10.8 0 -10.9 0 0 -5.7z"/>
 </g>
 <g fill="#ffc83d">
  <path d="M60 220.3 c0 -7.3 2.6 -24.9 4.9 -34 16.7 -65.1 72.5 -112.4 139.8 -118.2 5.9 -0.5 11.1 -0.7 11.5 -0.5 0.4 0.3 0.8 5.4 0.8 11.5 l0 10.9 -4.7 0 c-21.7 0 -51.4 10 -72.1 24.2 -17.5 12 -35.8 33.9 -45.1 53.9 -7.1 15.3 -12.1 33.9 -12.1 45.3 0 2.2 -0.3 5.8 -0.6 7.9 l-0.7 3.7 -10.8 0 -10.9 0 0 -4.7z"/>
 </g>
</svg>