<?xml version="1.0" encoding="utf-8"?>
<!DOCTYPE svg PUBLIC "-//W3C//DTD SVG 20010904//EN" "http://www.w3.org/TR/2001/REC-SVG-20010904/DTD/svg10.dtd">
<svg version="1.0" xmlns="http://www.w3.org/2000/svg" width="240px" height="240px" viewBox="0 0 240 240" preserveAspectRatio="xMidYMid meet">
 <g fill="#000000">
  <path d="M44.6 238.4 c-27.7 -4.3 -47.6 -31.2 -43 -57.9 1.6 -9.7 3.3 -13.5 18.8 -42.3 7.5 -14 13.6 -25.5 13.6 -25.7 0 -0.3 -3.8 -0.6 -8.3 -0.7 l-8.4 -0.3 4.4 -12 c3.1 -8.7 6.1 -14.7 10.9 -21.9 l6.6 -9.8 -17.6 -17.8 c-18.3 -18.5 -20.8 -21.9 -20.8 -29.4 0.1 -7.4 4.3 -14.1 11.1 -17.5 9.9 -5 13.1 -3.8 37.5 13.8 l19.6 14.2 2.9 -2 c7.4 -5.3 25.3 -12.1 31.8 -12.1 1.6 0 2.8 -1.1 4.2 -3.8 5.6 -10.8 18 -15.3 28.3 -10.3 2.5 1.2 7.1 4.8 10.2 8.1 5.2 5.5 6.1 6 13.7 7.9 33.8 8.6 60.2 32.3 72.6 65.1 6.4 17.3 6.6 18.6 7 90.8 l0.4 65.2 -71 0 -71 0 1.4 -3.2 c0.7 -1.8 5.6 -13.3 10.9 -25.5 5.3 -12.3 9.6 -22.7 9.6 -23.3 0 -0.5 -2.2 -1 -4.8 -1 -6.6 0 -10.7 4.1 -12.8 13 -2 8.7 -5.8 15.2 -13.3 23.2 -11.6 12.4 -27.6 17.8 -44.5 15.2z m21 -20.4 c10.9 -5.3 19.3 -16.8 20.9 -28.5 0.7 -4.5 1.4 -5.7 8.3 -12.7 l7.7 -7.8 21.2 0 21.3 0 0 4 c0 2.7 -2.8 10.5 -9.5 25.9 -5.2 12.2 -9.5 22.3 -9.5 22.6 0 0.3 21.6 0.5 48.1 0.5 l48 0 -0.3 -57.2 -0.4 -57.3 -2.8 -9 c-7.6 -24.7 -23.4 -43.9 -45.6 -55.5 -7.9 -4.1 -23.2 -9 -28 -9 -2.2 0 -4.2 -1.6 -9.5 -7.5 -3.7 -4.1 -7.3 -7.5 -8.1 -7.5 -2.3 0 -4.4 4.3 -4.4 9.2 l0 4.8 -5.1 0 c-12.1 0 -30.4 6.7 -40.6 14.8 -3.4 2.7 -6.3 4.2 -8.1 4.2 -2 0 -8.9 -4.4 -25.6 -16.6 -15.3 -11 -23.2 -16.2 -23.9 -15.5 -0.6 0.6 5.9 7.9 19.7 21.9 22.8 23.1 22.7 23 18.3 30.7 -1.3 2.2 -4.9 7.9 -8 12.8 l-5.7 8.7 8.5 0 8.5 0 0 3.6 c0 2.8 -4.4 11.9 -19.4 39.8 -10.7 19.8 -20.2 37.9 -21.1 40.1 -7 16.2 6.5 38.6 26.2 43.5 5.6 1.3 12 0.3 18.9 -3z"/>
  <path d="M101.1 121.7 c-5.1 -2.6 -6.5 -6 -6.9 -16.7 -0.6 -13.6 0.3 -18.7 3.8 -22.2 2.6 -2.6 3.4 -2.8 10.5 -2.8 7.4 0 7.8 0.1 11.1 3.4 l3.4 3.4 0 13.6 c0 15.2 -0.9 18.5 -6 21.1 -3.5 1.8 -12.6 2 -15.9 0.2z"/>
 </g>
 <g fill="#757575">
  <path d="M120.7 223 c0.3 -1.1 1.2 -2 1.9 -2 0.8 0 1.4 0.9 1.4 2 0 1.3 -0.7 2 -1.9 2 -1.4 0 -1.8 -0.5 -1.4 -2z"/>
  <path d="M124 215.5 c0 -1.4 3.2 -6.5 4 -6.5 0.6 0 1 1.6 1 3.5 0 3.1 -0.3 3.5 -2.5 3.5 -1.4 0 -2.5 -0.2 -2.5 -0.5z"/>
  <path d="M18 201.8 l-1.9 -4.3 2.1 -0.3 c2.6 -0.5 3.8 1.3 3.8 5.6 0 4.4 -1.7 4 -4 -1z"/>
  <path d="M28 193.6 c0 -3.5 7.6 -22.3 10.8 -26.6 3 -4 6.1 -5.1 12.3 -4.7 6.7 0.6 9.5 2.1 10.9 6.1 2.7 7.8 0.6 15.3 -5.3 18.7 -6.7 3.8 -22.6 9.9 -25.8 9.9 -2.6 0 -2.9 -0.3 -2.9 -3.4z"/>
  <path d="M137.3 184.8 c1.9 -4.6 3.7 -4.8 3.7 -0.4 0 3.2 -0.3 3.6 -2.5 3.6 -2.4 0 -2.5 -0.1 -1.2 -3.2z"/>
 </g>
 <g fill="#2fd2f7">
  <path d="M177 223.7 c0 -0.8 1.8 -3.3 4 -5.7 4.2 -4.6 10 -15.1 10 -18.2 0 -1.7 -1.3 -1.8 -22 -1.8 l-22 0 0 -3.3 c0 -3 0.7 -3.8 5.6 -7.2 10.9 -7.5 19.9 -21.8 22.9 -36.4 1.3 -5.9 1.5 -14 1.3 -42.5 l-0.3 -35.3 -3.7 -5.4 c-2 -3 -9.6 -11.7 -16.8 -19.4 -10.6 -11.4 -13 -14.5 -13 -16.9 0 -2.3 0.3 -2.7 1.2 -1.8 0.7 0.7 2.4 1.2 3.9 1.2 4.7 0 20.1 5 27.9 9 22.2 11.6 38 30.8 45.6 55.5 l2.8 9 0.4 60.3 0.3 60.2 -24 0 c-19.4 0 -24.1 -0.3 -24.1 -1.3z"/>
  <path d="M57.5 99 c0.6 -1.9 0.2 -2 -9.5 -2 -8.2 0 -10.1 -0.3 -9.7 -1.4 0.3 -0.7 3.9 -6.6 8.1 -13 9.9 -15.2 10.8 -17 9.3 -18.5 -0.8 -0.8 -0.4 -1.1 1.9 -1.1 2.2 0 4.2 1.2 7.8 4.9 2.7 2.7 5.7 5.1 6.7 5.4 2.6 0.7 7.7 -2.8 8.5 -5.8 0.9 -3.4 -1.2 -6.3 -8 -11 -4.1 -2.8 -5.6 -4.4 -5.6 -6.2 0 -1.4 0.5 -2.3 1.3 -2.1 0.6 0.1 3.7 -1.6 6.8 -3.9 10.6 -8.1 27.9 -14.3 39.8 -14.3 3.9 0 5.1 -0.4 5.1 -1.5 0 -0.8 0.7 -1.5 1.5 -1.5 1.3 0 1.5 2.3 1.5 14.8 0 14.2 -0.1 14.9 -2.8 19.4 -8.6 15 -28.2 31.5 -43.3 36.7 -3 1 -8.7 2.1 -12.7 2.5 -7 0.6 -7.3 0.5 -6.7 -1.4z"/>
 </g>
 <g fill="#ffc83d">
  <path d="M68.5 76 c-1.1 -0.4 -13.6 -12.5 -27.7 -26.8 -19.4 -19.6 -25.8 -26.7 -25.8 -28.5 0 -3.1 3.3 -6.1 6.2 -5.5 1.3 0.2 15.5 10.1 31.7 21.8 32.4 23.6 33.4 24.6 31.1 32.2 -1.8 6.2 -9.2 9.4 -15.5 6.8z"/>
 </g>
 <g fill="#ffffff">
  <path d="M43.7 224 c-10.6 -2.7 -20.6 -11.2 -25.3 -21.5 -3.5 -7.6 -4 -20.4 -1.1 -27.4 1.8 -4.4 39.2 -74.6 40.8 -76.7 0.5 -0.6 3.7 -1.4 7.2 -1.6 11.3 -1 25.9 -9.3 38.4 -22 15.5 -15.6 16.3 -17.5 16.3 -38.3 0 -16.3 0 -16.6 2.5 -19 3.7 -3.7 7 -3.2 11.9 1.7 13 13.3 39.5 42.7 42.1 46.6 l3 4.6 0.3 38.2 c0.2 31.2 0 39.5 -1.3 45.5 -3 14.7 -12 28.9 -23 36.5 l-5.7 3.9 22.7 0.3 22.7 0.2 -0.6 4.8 c-0.9 6.3 -5.6 15.8 -10.4 21 l-3.9 4.2 -29.6 0 c-25.1 0 -29.7 -0.2 -29.7 -1.4 0 -0.8 1.3 -4.3 2.9 -7.8 5.4 -11.8 18.1 -41.8 18.1 -42.8 0 -0.6 -7 -1 -18.3 -1 l-18.2 0 -7.7 7.8 c-6.9 7 -7.6 8.2 -8.3 12.7 -2.3 17.2 -17.4 31.1 -34.6 32 -4.1 0.2 -9.1 0 -11.2 -0.5z m-1.2 -34.7 c11.3 -4.5 15.3 -7.2 16.6 -11 2.2 -6.9 -2.1 -12.7 -9.6 -12.7 -5.7 0 -8.1 3.1 -15.1 19.8 -1.9 4.4 -3.4 8.2 -3.4 8.3 0 0.1 1 -0.2 2.3 -0.7 1.2 -0.5 5.4 -2.2 9.2 -3.7z m71.5 -70.8 c4.8 -2.5 6 -6.1 6 -18.1 l0 -10.6 -3.4 -3.4 c-2.9 -2.9 -4.1 -3.4 -8.1 -3.4 -8.9 0 -12.4 6.7 -11.3 22.2 0.6 7.5 2.5 11.3 6.9 13.5 3.2 1.7 6.4 1.6 9.9 -0.2z"/>
 </g>
</svg>