<?xml version="1.0" encoding="utf-8"?>
<!DOCTYPE svg PUBLIC "-//W3C//DTD SVG 20010904//EN" "http://www.w3.org/TR/2001/REC-SVG-20010904/DTD/svg10.dtd">
<svg version="1.0" xmlns="http://www.w3.org/2000/svg" width="144px" height="144px" viewBox="0 0 144 144" preserveAspectRatio="xMidYMid meet">
 <g fill="#000000">
  <path d="M91.3 142.9 c-10.9 -1.8 -15.7 -4.5 -27.8 -15.5 l-11.4 -10.4 0.6 5.5 c0.5 5.2 0.4 5.6 -2.8 8.6 -3.2 3 -3.6 3.1 -10.4 2.7 -17.2 -1.2 -31.6 -15.3 -34.1 -33.6 -0.4 -3.6 -0.2 -5.7 1.1 -8.1 1.9 -3.7 7.5 -6.6 11.1 -5.7 2.9 0.8 3 0.3 0.3 -3.3 -2.9 -4 -3.6 -10.9 -1.4 -15.4 1.5 -3.2 1.5 -3.8 0.2 -5.9 -5.1 -8 -1.7 -19.2 7.3 -23.8 2.3 -1.2 4.2 -3.1 5 -5.1 0.7 -1.7 3.1 -4.4 5.3 -6 3.2 -2.4 5 -2.9 9.5 -2.9 4.3 0 6 -0.5 8.4 -2.5 4.5 -3.8 10.1 -5.1 15.1 -3.6 6.5 1.9 7.2 1.8 6.9 -0.4 -1.8 -10.4 -0.8 -13.5 5.3 -16.1 7.5 -3.1 22.5 2.6 30.9 11.7 4.7 5 9.6 14.2 9.6 17.8 0 0.5 1.7 1.1 3.8 1.5 5 0.8 10.1 4.2 12.6 8.6 2 3.3 2.1 5.4 2.4 32 0.2 18 -0.1 30.9 -0.8 34.9 -3 17.1 -16.1 31 -32.2 34.2 -8.5 1.6 -9.1 1.7 -14.5 0.8z m17.5 -14.6 c6 -3 11.9 -9 15.4 -15.5 2.2 -4.2 2.3 -5.1 2.6 -34.3 l0.3 -30.1 -2.6 -2.4 -2.5 -2.4 -2.8 2.1 c-2.7 2 -2.7 2.2 -3 14.7 l-0.3 12.6 -3.7 0 c-3.5 0 -4.9 -1.2 -24.7 -21.1 -11.6 -11.5 -21.8 -21.5 -22.8 -22 -3 -1.7 -6.7 2.4 -6.7 7.3 0 3.7 -0.1 3.8 -3.4 3.8 -1.9 0 -3.7 -0.4 -4.1 -1 -0.3 -0.5 -1.8 -1.8 -3.4 -2.9 l-2.9 -2.1 -2.6 2.1 c-2.2 1.7 -2.6 2.8 -2.6 7.1 l0 5.1 -4.4 -0.5 c-3.7 -0.5 -4.9 -0.2 -6.5 1.6 -1.2 1.2 -2.1 2.7 -2.1 3.2 0 0.5 2 3 4.5 5.4 3.8 3.7 4.5 5 4.5 8.2 0 3.5 -0.2 3.8 -2.9 3.8 -1.6 0 -3.5 0.7 -4.2 1.6 -1.2 1.5 1.4 4.4 23.6 26 27.1 26.4 30 28.8 37.8 31.6 6.5 2.3 12.3 1.7 19.5 -1.9z"/>
 </g>
 <g fill="#d38b00">
  <path d="M92.6 114.9 c-5.9 -7 -7.3 -22.8 -2.8 -32 1.2 -2.5 2.2 -4.8 2.2 -5.2 0 -0.9 4.6 -5.7 5.6 -5.7 0.4 0 2.5 -1.7 4.6 -3.7 l3.8 -3.7 2.8 2.7 c3.4 3.2 4.2 3.4 4.2 0.6 0 -1.1 0.5 -1.7 1 -1.4 0.6 0.3 1 2.1 1 3.8 0 2.6 -1.5 4.7 -8 11.3 -5.9 6.2 -8 9.1 -8.6 11.9 -0.8 4.3 1 10.7 3.8 13.1 2.1 2 2.5 8.3 0.6 10.2 -2.3 2.3 -7.4 1.4 -10.2 -1.9z"/>
  <path d="M40.1 80.7 c-10.3 -10.2 -12.1 -12.3 -10.3 -12.5 1.2 -0.2 2.2 -0.6 2.2 -1 0 -0.3 -2 -2.7 -4.4 -5.2 -2.4 -2.5 -4.5 -5.4 -4.6 -6.5 -0.5 -4.4 0 -5.5 2.3 -5.5 1.6 0 7.3 5.1 19.5 17.3 15.9 16 17.2 17.5 17.2 20.8 0 3 -0.4 3.8 -2.2 4.3 -5.8 1.5 -7 0.8 -19.7 -11.7z"/>
  <path d="M49.5 64.9 c-15.8 -15.6 -19.8 -20.7 -15.3 -19.6 1.7 0.5 1.9 0.2 1.4 -1.9 -0.9 -3.6 0.3 -7.6 2.3 -7.2 0.9 0.2 9.6 8.4 19.4 18.4 14.9 15.2 17.7 18.5 17.7 21 0 3.9 -1.6 5.4 -5.8 5.4 -3.1 0 -5.1 -1.6 -19.7 -16.1z"/>
  <path d="M65.3 54.9 c-10.7 -10.7 -13.4 -13.9 -13.9 -16.8 -0.7 -3.5 -0.6 -3.6 1.3 -1.9 1.8 1.7 1.9 1.6 1.9 -1.7 0 -7.4 2.2 -6.2 18.3 9.9 l13.5 13.5 0 4.8 0.1 4.8 -4 0.3 c-3.9 0.2 -4.3 -0.1 -17.2 -12.9z"/>
 </g>
 <g fill="#31d2f7">
  <path d="M32.5 124 c-10.5 -4.1 -17.3 -12.7 -18.2 -23.1 -0.5 -5.4 -0.4 -5.9 1.4 -5.9 1.7 0 2.1 0.8 2.5 4.3 1.3 10.9 11.5 21.6 20.9 21.7 3.1 0 6.4 2.3 5.5 3.8 -1.1 1.7 -6.4 1.4 -12.1 -0.8z"/>
  <path d="M39.5 112 c-4.5 -1 -7.1 -2.7 -9.5 -6 -2.7 -3.8 -3.8 -9.9 -1.9 -11 1.9 -1.2 3.9 0.7 3.9 3.7 0 3.3 6 9.3 9.3 9.3 3.1 0 4.4 1.7 2.6 3.4 -0.9 0.8 -2.5 1.1 -4.4 0.6z"/>
  <path d="M109.4 40.2 c-0.6 -0.4 -1.4 -2.7 -1.8 -5 -1.8 -11.9 -9.9 -19.6 -22.9 -21.7 -4.8 -0.8 -4.9 -3.8 -0.1 -4.3 8.8 -0.9 22.6 8.9 25.8 18.4 2.6 7.6 2 14.6 -1 12.6z"/>
  <path d="M94.7 39.3 c-0.4 -0.3 -0.7 -1.7 -0.7 -3.1 0 -3.3 -6 -9.2 -9.4 -9.2 -2.9 0 -4.7 -2.7 -2.6 -4 1.7 -1.1 7.3 0.4 10.8 2.9 3.3 2.3 6.8 10 5.9 12.6 -0.7 1.5 -2.8 2 -4 0.8z"/>
 </g>
 <g fill="#ffc83d">
  <path d="M86.9 133.5 c-7.4 -2.4 -11.4 -5.7 -38.3 -31.9 -18 -17.4 -25.6 -25.5 -25.6 -27 0 -3.9 2.8 -6.6 6.7 -6.6 3.2 0 4.8 1.1 14.7 10.8 7.4 7.3 11.7 10.7 12.9 10.5 0.9 -0.3 1.7 -0.8 1.7 -1.2 0 -0.4 -8.1 -8.7 -18 -18.6 -9.9 -9.8 -18 -18.4 -18 -19 0 -2.5 4.6 -5.5 8.4 -5.5 3.6 0 4.9 1 20.7 16.6 14.3 14.1 17.2 16.4 18.4 15.4 1.3 -1.1 -1.1 -4 -16.5 -19.6 -9.9 -10.1 -18 -19 -18 -19.8 0 -2.4 5 -5.6 8.7 -5.6 3.1 0 5.1 1.6 20 16.3 9 8.9 17 16.2 17.6 16.2 3.2 0 -0.7 -5.3 -13.4 -17.9 -7.6 -7.7 -13.9 -14.5 -13.9 -15.1 0 -1.4 3.8 -5 6.3 -5.8 3.6 -1.3 7.8 1.9 27.4 21.6 l20.3 20.1 -3.7 3.8 c-2 2.1 -4.1 3.8 -4.6 3.8 -1 0 -5.7 4.7 -5.6 5.6 0 0.2 -0.9 2.5 -2.1 5 -1.2 2.4 -2.4 6.2 -2.7 8.3 -0.7 5 2 14.1 5.4 18.1 2.3 2.8 2.7 3 4.1 1.6 1.4 -1.4 1.4 -1.8 -0.6 -3.9 -1.2 -1.3 -2.2 -2.9 -2.2 -3.5 0 -0.7 -0.5 -1.2 -1.2 -1.2 -0.6 0 -0.9 -0.2 -0.6 -0.6 0.3 -0.3 0.2 -2.1 -0.3 -4.2 -0.5 -2.2 -0.3 -5.6 0.3 -8.7 0.7 -2.7 1.1 -5.3 1 -5.7 -0.1 -0.5 0.2 -0.8 0.7 -0.8 0.5 0 4.3 -3.5 8.5 -7.7 l7.6 -7.8 0 -12.2 c0 -11.9 0 -12.2 2.6 -14.2 3.7 -2.9 9.4 -2.8 12.3 0.3 2.2 2.3 2.2 2.4 1.9 35.2 -0.3 32.2 -0.3 33 -2.6 37.2 -3.5 6.6 -9.5 12.5 -15.7 15.7 -6.9 3.4 -17.4 4.3 -24.6 2z"/>
 </g>
</svg>