<?xml version="1.0" encoding="UTF-8" standalone="no"?>
<!DOCTYPE svg PUBLIC "-//W3C//DTD SVG 1.1//EN" "http://www.w3.org/Graphics/SVG/1.1/DTD/svg11.dtd">
<svg width="100%" height="100%" viewBox="0 0 512 512" version="1.1" xmlns="http://www.w3.org/2000/svg" xmlns:xlink="http://www.w3.org/1999/xlink" xml:space="preserve" xmlns:serif="http://www.serif.com/" style="fill-rule:evenodd;clip-rule:evenodd;stroke-linejoin:round;stroke-miterlimit:2;">
    <g transform="matrix(9.08234,0,0,7.69554,-7707.68,-3823.68)">
        <rect id="Artboard1" x="848.645" y="501.721" width="202.552" height="55.496" style="fill:none;"/>
        <g transform="matrix(1.37994,0,0,1.62861,868.363,497.43)">
            <g id="Artboard11" serif:id="Artboard1">
                <g>
                    <g transform="matrix(1,0,0,1,0.219732,0.0812114)">
                        <path d="M6.617,25.223L6.631,25.236C6.633,25.232 6.635,25.227 6.637,25.223L6.617,25.223Z" style="fill:rgb(43,204,126);fill-rule:nonzero;"/>
                    </g>
                    <g transform="matrix(1,0,0,1,0.219732,0.0812114)">
                        <path d="M17.059,14.776L6.617,14.776L14.001,7.388L6.617,0L0,6.622L3.557,10.181C4.909,11.534 5.925,13.096 6.605,14.763C6.609,14.774 6.613,14.784 6.617,14.794C7.968,18.13 7.974,21.884 6.636,25.224L17.059,25.224L17.059,14.776Z" style="fill:rgb(43,204,126);fill-rule:nonzero;"/>
                    </g>
                    <g transform="matrix(1,0,0,1,0.219732,0.0812114)">
                        <path d="M0.036,33.409L0.03,33.409L6.617,40.001L14.001,32.613L6.631,25.238C5.951,26.93 4.927,28.515 3.557,29.885L0.036,33.409Z" style="fill:rgb(43,204,126);fill-rule:nonzero;"/>
                    </g>
                </g>
            </g>
        </g>
    </g>
</svg>
