<?xml version="1.0" encoding="UTF-8" standalone="no"?>
<!DOCTYPE svg PUBLIC "-//W3C//DTD SVG 1.1//EN" "http://www.w3.org/Graphics/SVG/1.1/DTD/svg11.dtd">
<svg width="100%" height="100%" viewBox="0 0 596 595" version="1.1" xmlns="http://www.w3.org/2000/svg" xmlns:xlink="http://www.w3.org/1999/xlink" xml:space="preserve" xmlns:serif="http://www.serif.com/" style="fill-rule:evenodd;clip-rule:evenodd;stroke-linejoin:round;stroke-miterlimit:2;">
    <g id="Pokéball_1_">
        <g id="Colours" transform="matrix(1.14449,0,0,1.14449,-43.3615,-42.5603)">
            <path id="Down" d="M297.6,380.9C257.2,380.9 223.5,352.3 215.5,314.3L81.1,314.3C90.6,424.8 183.3,511.5 296.2,511.5C409.1,511.5 501.9,424.8 511.3,314.3L379.7,314.3C371.7,352.4 338,380.9 297.6,380.9Z" style="fill:white;fill-rule:nonzero;"/>
            <path id="Shadow_Down" d="M345.6,505.9C435.2,484.9 503.3,408.2 511.3,314.3L458.3,314.3C453,399.5 408.3,471.7 345.6,505.9Z" style="fill:rgb(223,223,223);fill-rule:nonzero;"/>
            <path id="Center" d="M347.1,297C347,297 347,297 347.1,297C347,290.9 345.9,285.1 343.9,279.7C336.9,260.9 318.8,247.6 297.6,247.6C276.4,247.6 258.3,261 251.3,279.7C249.3,285.1 248.2,290.9 248.2,297L248.3,297C248.3,303.1 249.4,308.9 251.4,314.3C258.4,333.1 276.5,346.4 297.7,346.4C318.9,346.4 337,333 344,314.3C346,309 347.1,303.1 347.1,297Z" style="fill:white;fill-rule:nonzero;"/>
            <path id="Up" d="M297.7,213.2C338.1,213.2 371.8,241.8 379.8,279.8L514.2,279.8C504.7,169.2 412,82.5 299,82.5C186,82.5 93.4,169.2 83.9,279.7L215.6,279.7C223.6,241.7 257.3,213.2 297.7,213.2Z" style="fill:rgb(255,28,28);fill-rule:nonzero;"/>
            <path id="Shadow_Up" d="M458.3,279.7L514.1,279.7C505.9,184.2 435.5,106.4 343.6,87.1C407.4,120.8 452.9,193.7 458.3,279.7Z" style="fill:rgb(223,24,24);fill-rule:nonzero;"/>
        </g>
        <g id="Line" transform="matrix(1.14449,0,0,1.14449,-43.3615,-42.5603)">
            <path d="M299,82.5C412,82.5 504.7,169.2 514.1,279.7L379.7,279.7C371.7,241.7 338,213.1 297.6,213.1C257.2,213.1 223.5,241.7 215.5,279.7L83.9,279.7C93.4,169.2 186.1,82.5 299,82.5ZM343.9,279.7C345.9,285.1 347,290.9 347,297L347.1,297C347.1,303.1 346,308.9 344,314.3C337,333.1 318.9,346.4 297.7,346.4C276.5,346.4 258.4,333 251.4,314.3C249.4,308.9 248.3,303.1 248.3,297L248.2,297C248.2,290.9 249.3,285.1 251.3,279.7C258.3,260.9 276.4,247.6 297.6,247.6C318.8,247.6 336.9,261 343.9,279.7ZM296.2,511.6C183.2,511.6 90.5,424.9 81.1,314.4L215.5,314.4C223.5,352.4 257.2,381 297.6,381C338,381 371.7,352.4 379.7,314.4L511.4,314.4C501.9,424.8 409.2,511.6 296.2,511.6ZM297.6,41.3C156.4,41.3 41.9,155.8 41.9,297C41.9,438.2 156.4,552.7 297.6,552.7C438.8,552.7 553.4,438.3 553.4,297C553.4,155.7 438.9,41.3 297.6,41.3Z" style="fill-rule:nonzero;"/>
        </g>
    </g>
</svg>
