<?xml version="1.0" encoding="UTF-8" standalone="no"?>
<!DOCTYPE svg PUBLIC "-//W3C//DTD SVG 1.1//EN" "http://www.w3.org/Graphics/SVG/1.1/DTD/svg11.dtd">
<svg width="100%" height="100%" viewBox="0 0 600 600" version="1.1" xmlns="http://www.w3.org/2000/svg" xmlns:xlink="http://www.w3.org/1999/xlink" xml:space="preserve" xmlns:serif="http://www.serif.com/" style="fill-rule:evenodd;clip-rule:evenodd;stroke-linejoin:round;stroke-miterlimit:2;">
    <g transform="matrix(0.918973,0,0,0.918973,5,12.1102)">
        <g transform="matrix(1,0,0,1,0,50.5)">
            <path d="M335.698,67.455C314.064,67.455 284.897,81.762 284.897,116.666L284.897,413.865L320.216,413.865L320.216,116.666C320.216,116.66 320.216,116.654 320.216,116.648C320.216,109.065 326.456,102.825 334.039,102.825C334.269,102.825 334.5,102.831 334.73,102.842L606.633,102.842L606.633,145.694L416.494,145.694C372.744,145.694 365.763,173.341 365.763,197.117L365.763,458.515L284.897,458.515L284.897,496.39L401.082,496.39L401.082,200.711C401.082,189.998 403.155,181.013 418.015,181.013L642.021,181.013L642.021,67.386L335.698,67.386L335.698,67.455Z" style="fill:rgb(130,188,0);fill-rule:nonzero;"/>
        </g>
        <g transform="matrix(1,0,0,1,0,50.5)">
            <path d="M335.836,107.75C330.143,107.797 325.486,112.493 325.486,118.186C325.486,118.532 325.503,118.878 325.537,119.223L325.537,418.012L280.405,418.012L280.405,139.128C280.405,108.925 263.54,87.706 230.019,87.706L35.94,87.706L36.562,42.711L308.258,42.711C308.696,42.675 309.134,42.657 309.573,42.657C318.331,42.657 325.539,49.864 325.539,58.623C325.539,58.687 325.538,58.751 325.537,58.815L325.537,64.552C328.482,64.013 331.462,63.69 334.453,63.584L360.787,63.584L360.787,58.746C361.125,40.406 351.005,23.388 334.73,14.926C327.62,10.392 319.446,7.795 311.023,7.393L0,7.393L0,123.093L227.807,123.093C228.07,123.081 228.334,123.075 228.597,123.075C237.659,123.075 245.116,130.531 245.116,139.593C245.116,139.922 245.106,140.251 245.086,140.58L245.086,454.298L360.856,454.298L360.856,107.75L335.836,107.75Z" style="fill:rgb(188,190,192);fill-rule:nonzero;"/>
        </g>
    </g>
</svg>
